Recursive Mono-Casual SemiBold Italic.ufo
<glyph name="exclam" format="2">
  <advance width="600.0"/>
  <unicode hex="0021"/>
  <outline>
    <contour>
      <point x="345.51880893868" y="270.0" type="line"/>
      <point x="375.47369926271995" y="340.2"/>
      <point x="409.18030329009997" y="435.0"/>
      <point x="426.78520754674" y="505.4" type="curve"/>
      <point x="463.59546190146" y="652.6" type="line" smooth="yes"/>
      <point x="473.89833200616005" y="693.8"/>
      <point x="439.5494605425" y="710.0"/>
      <point x="380.3494605425" y="710.0" type="curve" smooth="yes"/>
      <point x="361.74946054250006" y="710.0"/>
      <point x="347.29939087980006" y="709.0"/>
      <point x="329.99908436370004" y="704.6" type="curve"/>
      <point x="328.89660437028004" y="669.0"/>
      <point x="322.64408257928005" y="632.8"/>
      <point x="312.94137966512005" y="594.0" type="curve" smooth="yes"/>
      <point x="291.58543046746" y="508.6" type="line"/>
      <point x="267.6287567774001" y="412.8"/>
      <point x="251.77172084103998" y="311.8"/>
      <point x="265.87041118159993" y="293.0" type="curve" smooth="yes"/>
      <point x="277.11936624056" y="278.0"/>
      <point x="300.51880893867997" y="270.0"/>
      <point x="334.91880893868" y="270.0" type="curve"/>
    </contour>
    <component base="period"/>
  </outline>
</glyph>
<glyph name="quotedbl" format="2">
  <advance width="600.0"/>
  <unicode hex="0022"/>
  <outline>
    <contour>
      <point x="278.0" y="442.8" type="curve"/>
      <point x="344.79999999999995" y="659.0" type="line" smooth="yes"/>
      <point x="365.2" y="723.4"/>
      <point x="340.8" y="754.0"/>
      <point x="266.0" y="754.0" type="curve" smooth="yes"/>
      <point x="250.39999999999998" y="754.0"/>
      <point x="237.0" y="752.6"/>
      <point x="224.4" y="750.0" type="curve"/>
      <point x="227.00000000000003" y="725.8"/>
      <point x="225.4" y="705.6"/>
      <point x="215.20000000000002" y="651.6" type="curve" smooth="yes"/>
      <point x="184.40000000000003" y="489.6" type="line" smooth="yes"/>
      <point x="177.60000000000002" y="452.4"/>
      <point x="191.6" y="439.2"/>
      <point x="239.0" y="439.2" type="curve" smooth="yes"/>
      <point x="254.00000000000003" y="439.2"/>
      <point x="267.20000000000005" y="440.4"/>
    </contour>
    <contour>
      <point x="510.00000000000006" y="442.8" type="curve"/>
      <point x="577.4" y="654.2" type="line" smooth="yes"/>
      <point x="599.0" y="721.6"/>
      <point x="575.2" y="754.0"/>
      <point x="506.20000000000005" y="754.0" type="curve" smooth="yes"/>
      <point x="491.59999999999997" y="754.0"/>
      <point x="480.6000000000001" y="753.0"/>
      <point x="467.80000000000007" y="750.6" type="curve"/>
      <point x="418.20000000000005" y="489.6" type="line" smooth="yes"/>
      <point x="411.40000000000003" y="453.6"/>
      <point x="426.6" y="439.2"/>
      <point x="472.8" y="439.2" type="curve" smooth="yes"/>
      <point x="487.8" y="439.2"/>
      <point x="499.2" y="440.4"/>
    </contour>
  </outline>
</glyph>
<glyph name="numbersign" format="2">
  <advance width="600.0"/>
  <unicode hex="0023"/>
  <outline>
    <contour>
      <point x="214.4" y="715.6" type="curve"/>
      <point x="202.4" y="513.6"/>
      <point x="158.0" y="240.2"/>
      <point x="35.599999999999994" y="-9.2" type="curve"/>
      <point x="44.39999999999999" y="-15.2"/>
      <point x="53.60000000000001" y="-18.8"/>
      <point x="74.19999999999999" y="-18.8" type="curve"/>
      <point x="104.19999999999999" y="-19.4"/>
      <point x="125.39999999999999" y="-13.0"/>
      <point x="145.2" y="27.2" type="curve" smooth="yes"/>
      <point x="250.39999999999998" y="256.0"/>
      <point x="291.4" y="505.4"/>
      <point x="300.4" y="670.0" type="curve" smooth="yes"/>
      <point x="304.0" y="713.0"/>
      <point x="283.0" y="720.0"/>
      <point x="253.0" y="720.0" type="curve" smooth="yes"/>
      <point x="240.20000000000002" y="720.0"/>
      <point x="226.79999999999998" y="719.2"/>
    </contour>
    <contour>
      <point x="419.0" y="714.4" type="curve"/>
      <point x="406.4" y="514.0"/>
      <point x="362.59999999999997" y="239.6"/>
      <point x="239.6" y="-10.4" type="curve"/>
      <point x="248.39999999999998" y="-16.4"/>
      <point x="257.6" y="-20.0"/>
      <point x="278.2" y="-20.0" type="curve"/>
      <point x="308.2" y="-20.0"/>
      <point x="328.8" y="-13.6"/>
      <point x="348.0" y="25.4" type="curve" smooth="yes"/>
      <point x="454.40000000000003" y="255.4"/>
      <point x="495.4" y="504.8"/>
      <point x="505.00000000000006" y="670.0" type="curve" smooth="yes"/>
      <point x="508.00000000000006" y="711.8"/>
      <point x="486.99999999999994" y="719.4"/>
      <point x="456.99999999999994" y="719.4" type="curve" smooth="yes"/>
      <point x="444.2" y="719.4"/>
      <point x="430.8" y="718.0"/>
    </contour>
    <contour>
      <point x="576.2" y="432.0" type="line"/>
      <point x="576.2" y="436.8"/>
      <point x="576.2" y="442.0"/>
      <point x="576.2" y="447.4" type="curve" smooth="yes"/>
      <point x="576.2" y="482.6"/>
      <point x="569.0" y="503.2"/>
      <point x="556.2" y="516.0" type="curve" smooth="yes"/>
      <point x="546.0" y="526.2"/>
      <point x="532.4000000000001" y="530.0"/>
      <point x="502.8" y="530.0" type="curve"/>
      <point x="80.0" y="530.0" type="line"/>
      <point x="74.60000000000001" y="516.2"/>
      <point x="72.2" y="500.8"/>
      <point x="72.2" y="488.2" type="curve" smooth="yes"/>
      <point x="72.2" y="448.8"/>
      <point x="84.4" y="432.0"/>
      <point x="125.19999999999997" y="432.0" type="curve"/>
    </contour>
    <contour>
      <point x="23.200000000000006" y="268.0" type="line"/>
      <point x="23.200000000000006" y="263.2"/>
      <point x="23.200000000000006" y="258.0"/>
      <point x="23.200000000000006" y="252.6" type="curve" smooth="yes"/>
      <point x="23.200000000000006" y="217.4"/>
      <point x="30.400000000000002" y="196.8"/>
      <point x="43.2" y="184.0" type="curve" smooth="yes"/>
      <point x="53.400000000000006" y="173.8"/>
      <point x="67.0" y="170.0"/>
      <point x="96.59999999999998" y="170.0" type="curve"/>
      <point x="544.0" y="170.0" type="line"/>
      <point x="546.4000000000001" y="183.8"/>
      <point x="548.2" y="199.2"/>
      <point x="548.2" y="211.8" type="curve" smooth="yes"/>
      <point x="548.2" y="251.2"/>
      <point x="536.0" y="268.0"/>
      <point x="495.20000000000005" y="268.0" type="curve"/>
    </contour>
  </outline>
</glyph>
<glyph name="dollar" format="2">
  <advance width="600.0"/>
  <unicode hex="0024"/>
  <outline>
    <contour>
      <point x="223.39999999999998" y="-16.799999999999997" type="curve" smooth="yes"/>
      <point x="380.4" y="-16.799999999999997"/>
      <point x="483.2" y="45.400000000000006"/>
      <point x="511.20000000000005" y="155.6" type="curve" smooth="yes"/>
      <point x="514.0" y="167.20000000000002" type="line" smooth="yes"/>
      <point x="530.0" y="236.79999999999998"/>
      <point x="508.20000000000005" y="311.2"/>
      <point x="397.6" y="355.8" type="curve" smooth="yes"/>
      <point x="317.0" y="388.6" type="line" smooth="yes"/>
      <point x="240.20000000000002" y="419.2"/>
      <point x="221.0" y="451.99999999999994"/>
      <point x="234.2" y="499.40000000000003" type="curve" smooth="yes"/>
      <point x="236.6" y="506.9999999999999" type="line" smooth="yes"/>
      <point x="256.40000000000003" y="569.0"/>
      <point x="349.2" y="613.8"/>
      <point x="458.6" y="613.8" type="curve" smooth="yes"/>
      <point x="522.0" y="613.8"/>
      <point x="553.0" y="601.8"/>
      <point x="578.0" y="578.1999999999999" type="curve"/>
      <point x="584.0" y="578.1999999999999" type="line"/>
      <point x="600.5999999999999" y="593.6"/>
      <point x="612.5999999999999" y="615.6"/>
      <point x="617.3999999999999" y="633.4000000000001" type="curve" smooth="yes"/>
      <point x="622.8" y="653.1999999999999"/>
      <point x="624.5999999999999" y="670.6"/>
      <point x="608.4" y="687.6" type="curve" smooth="yes"/>
      <point x="592.1999999999999" y="704.9999999999999"/>
      <point x="550.2" y="720.0"/>
      <point x="478.99999999999994" y="720.0" type="curve" smooth="yes"/>
      <point x="308.4" y="720.0"/>
      <point x="170.4" y="643.8"/>
      <point x="140.4" y="528.8000000000001" type="curve" smooth="yes"/>
      <point x="137.79999999999998" y="518.8" type="line" smooth="yes"/>
      <point x="118.79999999999998" y="447.0"/>
      <point x="128.40000000000003" y="365.6"/>
      <point x="264.20000000000005" y="309.99999999999994" type="curve" smooth="yes"/>
      <point x="345.8" y="276.8" type="line" smooth="yes"/>
      <point x="410.99999999999994" y="250.00000000000003"/>
      <point x="427.8" y="211.4"/>
      <point x="416.0" y="160.00000000000003" type="curve" smooth="yes"/>
      <point x="414.59999999999997" y="153.79999999999998" type="line" smooth="yes"/>
      <point x="378.20000000000005" y="112.6"/>
      <point x="317.8" y="89.39999999999999"/>
      <point x="249.8" y="89.39999999999999" type="curve" smooth="yes"/>
      <point x="146.0" y="89.39999999999999"/>
      <point x="82.4" y="118.4"/>
      <point x="49.6" y="176.60000000000002" type="curve"/>
      <point x="43.59999999999999" y="176.60000000000002" type="line"/>
      <point x="33.8" y="163.6"/>
      <point x="24.799999999999997" y="147.8"/>
      <point x="19.599999999999994" y="127.0" type="curve" smooth="yes"/>
      <point x="8.999999999999995" y="87.59999999999998"/>
      <point x="18.799999999999997" y="54.400000000000006"/>
      <point x="32.99999999999999" y="38.99999999999999" type="curve" smooth="yes"/>
      <point x="66.8" y="0.8000000000000007"/>
      <point x="129.60000000000002" y="-16.799999999999997"/>
    </contour>
    <contour>
      <point x="387.6" y="422.2" type="curve"/>
      <point x="445.6" y="526.4"/>
      <point x="508.8" y="683.6"/>
      <point x="539.1999999999999" y="797.4" type="curve" smooth="yes"/>
      <point x="556.6" y="861.5999999999999"/>
      <point x="542.8000000000001" y="891.0"/>
      <point x="493.5999999999999" y="891.0" type="curve" smooth="yes"/>
      <point x="473.99999999999994" y="891.0"/>
      <point x="456.20000000000005" y="887.8"/>
      <point x="443.2" y="881.6" type="curve"/>
      <point x="447.4" y="856.4"/>
      <point x="447.40000000000003" y="830.8"/>
      <point x="437.59999999999997" y="773.9999999999999" type="curve" smooth="yes"/>
      <point x="420.6" y="674.4"/>
      <point x="392.0" y="567.4000000000001"/>
      <point x="354.0" y="474.0" type="curve" smooth="yes"/>
      <point x="347.0" y="458.2"/>
      <point x="349.80000000000007" y="440.59999999999997"/>
      <point x="361.99999999999994" y="432.40000000000003" type="curve" smooth="yes"/>
      <point x="370.8" y="425.6"/>
      <point x="379.59999999999997" y="422.8"/>
    </contour>
    <contour>
      <point x="259.6" y="244.4" type="curve"/>
      <point x="199.2" y="129.6"/>
      <point x="142.79999999999998" y="3.000000000000009"/>
      <point x="113.8" y="-103.19999999999999" type="curve" smooth="yes"/>
      <point x="96.2" y="-165.6"/>
      <point x="109.2" y="-195.0"/>
      <point x="157.2" y="-195.0" type="curve" smooth="yes"/>
      <point x="176.79999999999998" y="-195.0"/>
      <point x="194.59999999999997" y="-191.8"/>
      <point x="207.59999999999997" y="-185.6" type="curve"/>
      <point x="204.59999999999997" y="-160.4"/>
      <point x="204.99999999999997" y="-134.8"/>
      <point x="212.39999999999995" y="-91.99999999999999" type="curve" smooth="yes"/>
      <point x="228.39999999999995" y="3.6000000000000014"/>
      <point x="262.2" y="111.80000000000001"/>
      <point x="293.59999999999997" y="190.6" type="curve" smooth="yes"/>
      <point x="300.0" y="207.4"/>
      <point x="297.4" y="224.79999999999998"/>
      <point x="284.0" y="233.79999999999998" type="curve" smooth="yes"/>
      <point x="275.59999999999997" y="240.6"/>
      <point x="267.59999999999997" y="243.4"/>
    </contour>
  </outline>
</glyph>
<glyph name="percent" format="2">
  <advance width="600.0"/>
  <unicode hex="0025"/>
  <outline>
    <contour>
      <point x="285.2" y="710.0" type="curve" smooth="yes"/>
      <point x="191.20000000000002" y="710.0"/>
      <point x="110.20000000000002" y="637.0"/>
      <point x="83.2" y="529.0" type="curve" smooth="yes"/>
      <point x="81.2" y="523.0" type="line" smooth="yes"/>
      <point x="56.199999999999996" y="420.0"/>
      <point x="97.2" y="356.0"/>
      <point x="190.20000000000002" y="356.0" type="curve" smooth="yes"/>
      <point x="287.20000000000005" y="356.0"/>
      <point x="365.79999999999995" y="424.4"/>
      <point x="392.99999999999994" y="532.0" type="curve" smooth="yes"/>
      <point x="394.4" y="538.0" type="line" smooth="yes"/>
      <point x="419.79999999999995" y="639.6"/>
      <point x="373.99999999999994" y="710.0"/>
    </contour>
    <contour>
      <point x="156.20000000000002" y="521.6" type="curve" smooth="yes"/>
      <point x="157.6" y="526.4" type="line" smooth="yes"/>
      <point x="173.4" y="591.8"/>
      <point x="219.20000000000002" y="636.6"/>
      <point x="269.40000000000003" y="636.6" type="curve" smooth="yes"/>
      <point x="282.6" y="636.6"/>
      <point x="291.99999999999994" y="635.1999999999999"/>
      <point x="299.80000000000007" y="632.4" type="curve" smooth="yes"/>
      <point x="316.0" y="608.8000000000001"/>
      <point x="314.00000000000006" y="580.0"/>
      <point x="306.20000000000005" y="549.8" type="curve" smooth="yes"/>
      <point x="305.20000000000005" y="545.0" type="line" smooth="yes"/>
      <point x="289.8" y="483.0"/>
      <point x="252.0" y="448.2"/>
      <point x="193.99999999999997" y="448.2" type="curve" smooth="yes"/>
      <point x="185.99999999999997" y="448.2"/>
      <point x="171.79999999999998" y="449.2"/>
      <point x="158.00000000000003" y="456.0" type="curve" smooth="yes"/>
      <point x="147.6" y="474.2"/>
      <point x="150.60000000000002" y="499.0"/>
    </contour>
    <contour>
      <point x="449.4" y="344.0" type="curve" smooth="yes"/>
      <point x="355.4" y="344.0"/>
      <point x="274.40000000000003" y="271.0"/>
      <point x="247.40000000000003" y="163.0" type="curve" smooth="yes"/>
      <point x="246.4" y="157.0" type="line" smooth="yes"/>
      <point x="220.40000000000003" y="54.0"/>
      <point x="261.3999999999999" y="-10.0"/>
      <point x="354.3999999999999" y="-10.0" type="curve" smooth="yes"/>
      <point x="451.4" y="-10.0"/>
      <point x="530.0" y="58.4"/>
      <point x="557.2" y="166.0" type="curve" smooth="yes"/>
      <point x="558.6" y="172.0" type="line" smooth="yes"/>
      <point x="584.4" y="273.6"/>
      <point x="538.1999999999999" y="344.0"/>
    </contour>
    <contour>
      <point x="320.4" y="155.6" type="curve" smooth="yes"/>
      <point x="321.79999999999995" y="160.4" type="line" smooth="yes"/>
      <point x="338.2" y="225.8"/>
      <point x="383.4" y="270.6"/>
      <point x="433.59999999999997" y="270.6" type="curve" smooth="yes"/>
      <point x="446.8" y="270.6"/>
      <point x="456.2" y="269.2"/>
      <point x="464.0" y="266.40000000000003" type="curve" smooth="yes"/>
      <point x="480.2" y="242.8"/>
      <point x="478.2" y="214.0"/>
      <point x="470.8" y="183.8" type="curve" smooth="yes"/>
      <point x="469.40000000000003" y="179.0" type="line" smooth="yes"/>
      <point x="454.00000000000006" y="117.0"/>
      <point x="416.79999999999995" y="82.2"/>
      <point x="358.79999999999995" y="82.2" type="curve" smooth="yes"/>
      <point x="350.79999999999995" y="82.2"/>
      <point x="336.0" y="83.19999999999999"/>
      <point x="322.20000000000005" y="90.0" type="curve" smooth="yes"/>
      <point x="312.8" y="108.19999999999999"/>
      <point x="314.8" y="133.0"/>
    </contour>
    <component base="fraction"/>
  </outline>
</glyph>
<glyph name="ampersand" format="2">
  <advance width="600.0"/>
  <unicode hex="0026"/>
  <outline>
    <contour>
      <point x="272.20000000000005" y="371.4" type="curve" smooth="yes"/>
      <point x="259.4" y="425.2"/>
      <point x="258.8" y="482.4"/>
      <point x="268.59999999999997" y="523.6" type="curve" smooth="yes"/>
      <point x="272.2" y="538.6000000000001"/>
      <point x="277.99999999999994" y="555.8000000000001"/>
      <point x="288.0" y="572.5999999999999" type="curve"/>
      <point x="319.2" y="590.0"/>
      <point x="357.2" y="600.4000000000001"/>
      <point x="405.20000000000005" y="600.4000000000001" type="curve" smooth="yes"/>
      <point x="466.0" y="600.4000000000001"/>
      <point x="502.39999999999986" y="590.2"/>
      <point x="532.0" y="567.8000000000001" type="curve"/>
      <point x="537.9999999999999" y="567.8000000000001" type="line"/>
      <point x="549.0" y="578.8000000000001"/>
      <point x="559.1999999999998" y="593.4000000000001"/>
      <point x="563.9999999999999" y="613.2000000000002" type="curve" smooth="yes"/>
      <point x="570.5999999999999" y="639.6"/>
      <point x="569.4" y="661.4000000000001"/>
      <point x="554.1999999999999" y="677.5999999999999" type="curve" smooth="yes"/>
      <point x="537.1999999999999" y="696.0"/>
      <point x="493.4" y="710.0"/>
      <point x="420.4" y="710.0" type="curve" smooth="yes"/>
      <point x="280.2" y="710.0"/>
      <point x="191.20000000000002" y="632.9999999999999"/>
      <point x="170.4" y="537.0" type="curve" smooth="yes"/>
      <point x="169.0" y="530.6" type="line" smooth="yes"/>
      <point x="157.6" y="473.8"/>
      <point x="158.4" y="406.2"/>
      <point x="178.2" y="335.6" type="curve" smooth="yes"/>
      <point x="203.6" y="246.8"/>
      <point x="249.4" y="155.0"/>
      <point x="299.4" y="88.0" type="curve" smooth="yes"/>
      <point x="357.40000000000003" y="10.4"/>
      <point x="388.6" y="-10.0"/>
      <point x="438.6" y="-10.0" type="curve" smooth="yes"/>
      <point x="457.20000000000005" y="-10.0"/>
      <point x="472.80000000000007" y="-5.2"/>
      <point x="484.8" y="3.4" type="curve" smooth="yes"/>
      <point x="501.40000000000003" y="15.6"/>
      <point x="513.6000000000001" y="33.0"/>
      <point x="520.2" y="63.800000000000004" type="curve" smooth="yes"/>
      <point x="524.6" y="85.19999999999999"/>
      <point x="524.0" y="104.4"/>
      <point x="520.2" y="119.4" type="curve"/>
      <point x="514.1999999999999" y="119.4" type="line"/>
      <point x="503.59999999999997" y="109.39999999999999"/>
      <point x="493.8" y="106.0"/>
      <point x="473.20000000000005" y="106.0" type="curve" smooth="yes"/>
      <point x="438.2" y="106.0"/>
      <point x="397.59999999999997" y="127.2"/>
      <point x="368.80000000000007" y="166.0" type="curve" smooth="yes"/>
      <point x="323.99999999999994" y="224.39999999999998"/>
      <point x="288.59999999999997" y="301.8"/>
    </contour>
    <contour>
      <point x="132.40000000000003" y="-9.4" type="curve"/>
      <point x="205.6" y="-9.4"/>
      <point x="263.59999999999997" y="20.200000000000003"/>
      <point x="298.6" y="81.2" type="curve"/>
      <point x="338.4" y="81.2" type="line"/>
      <point x="302.19999999999993" y="148.6" type="line"/>
      <point x="261.6" y="103.0"/>
      <point x="223.4" y="88.2"/>
      <point x="172.6" y="88.2" type="curve" smooth="yes"/>
      <point x="117.0" y="88.2"/>
      <point x="87.0" y="127.20000000000002"/>
      <point x="105.6" y="186.0" type="curve" smooth="yes"/>
      <point x="107.0" y="190.6" type="line" smooth="yes"/>
      <point x="123.4" y="243.60000000000002"/>
      <point x="170.4" y="279.2"/>
      <point x="219.4" y="286.79999999999995" type="curve"/>
      <point x="193.60000000000002" y="363.00000000000006" type="line"/>
      <point x="173.00000000000003" y="332.79999999999995" type="line"/>
      <point x="96.00000000000001" y="317.8"/>
      <point x="19.000000000000004" y="259.40000000000003"/>
      <point x="-0.8" y="173.6" type="curve" smooth="yes"/>
      <point x="-2.8000000000000003" y="163.0" type="line" smooth="yes"/>
      <point x="-21.0" y="71.0"/>
      <point x="21.599999999999994" y="-9.4"/>
    </contour>
    <contour>
      <point x="446.59999999999997" y="402.6" type="curve"/>
      <point x="445.19999999999993" y="388.79999999999995"/>
      <point x="443.19999999999993" y="376.4"/>
      <point x="438.99999999999994" y="357.6" type="curve" smooth="yes"/>
      <point x="425.99999999999994" y="298.20000000000005"/>
      <point x="395.40000000000003" y="233.2"/>
      <point x="328.79999999999995" y="174.6" type="curve"/>
      <point x="373.6" y="120.2" type="line"/>
      <point x="382.79999999999995" y="159.6" type="line"/>
      <point x="472.40000000000003" y="203.20000000000002"/>
      <point x="529.6" y="270.6"/>
      <point x="544.8" y="338.4" type="curve" smooth="yes"/>
      <point x="546.8" y="347.4" type="line" smooth="yes"/>
      <point x="554.8" y="383.40000000000003"/>
      <point x="532.4" y="406.8"/>
      <point x="483.2" y="406.8" type="curve" smooth="yes"/>
      <point x="465.40000000000003" y="406.8"/>
      <point x="455.59999999999997" y="405.20000000000005"/>
    </contour>
  </outline>
</glyph>
<glyph name="quotesingle" format="2">
  <advance width="600.0"/>
  <unicode hex="0027"/>
  <outline>
    <contour>
      <point x="395.20000000000005" y="442.8" type="curve"/>
      <point x="460.8" y="654.2" type="line" smooth="yes"/>
      <point x="482.4" y="723.4"/>
      <point x="458.0" y="754.0"/>
      <point x="381.2" y="754.0" type="curve" smooth="yes"/>
      <point x="367.59999999999997" y="754.0"/>
      <point x="354.2" y="752.6"/>
      <point x="341.6" y="750.0" type="curve"/>
      <point x="344.2" y="725.8"/>
      <point x="342.6" y="705.6"/>
      <point x="332.40000000000003" y="651.6" type="curve" smooth="yes"/>
      <point x="301.6" y="489.6" type="line" smooth="yes"/>
      <point x="294.80000000000007" y="453.0"/>
      <point x="309.40000000000003" y="439.2"/>
      <point x="356.20000000000005" y="439.2" type="curve" smooth="yes"/>
      <point x="371.2" y="439.2"/>
      <point x="384.4" y="440.4"/>
    </contour>
  </outline>
</glyph>
<glyph name="parenleft" format="2">
  <advance width="600.0"/>
  <unicode hex="0028"/>
  <outline>
    <contour>
      <point x="432.33333333333337" y="735.3333333333334" type="curve" smooth="yes"/>
      <point x="310.3333333333333" y="642.0"/>
      <point x="215.66666666666666" y="489.0"/>
      <point x="176.0" y="319.0" type="curve" smooth="yes"/>
      <point x="173.33333333333334" y="307.6666666666667" type="line" smooth="yes"/>
      <point x="133.66666666666666" y="136.66666666666666"/>
      <point x="154.0" y="-39.33333333333333"/>
      <point x="217.0" y="-131.0" type="curve" smooth="yes"/>
      <point x="235.66666666666666" y="-159.0"/>
      <point x="258.3333333333333" y="-172.66666666666666"/>
      <point x="289.6666666666667" y="-172.66666666666666" type="curve" smooth="yes"/>
      <point x="317.0" y="-172.66666666666666"/>
      <point x="345.6666666666667" y="-165.33333333333334"/>
      <point x="364.3333333333333" y="-148.33333333333334" type="curve"/>
      <point x="366.0" y="-142.33333333333334" type="line"/>
      <point x="281.6666666666667" y="-34.333333333333336"/>
      <point x="264.0" y="127.33333333333334"/>
      <point x="304.66666666666663" y="303.6666666666667" type="curve" smooth="yes"/>
      <point x="307.3333333333333" y="315.0" type="line" smooth="yes"/>
      <point x="345.6666666666667" y="479.0"/>
      <point x="443.66666666666663" y="618.0"/>
      <point x="605.0" y="728.3333333333334" type="curve"/>
      <point x="606.6666666666666" y="734.3333333333334" type="line"/>
      <point x="592.3333333333334" y="755.3333333333334"/>
      <point x="561.3333333333334" y="770.0"/>
      <point x="526.6666666666666" y="770.0" type="curve" smooth="yes"/>
      <point x="493.0" y="770.0"/>
      <point x="465.3333333333333" y="761.3333333333334"/>
    </contour>
  </outline>
</glyph>
<glyph name="asterisk" format="2">
  <advance width="600.0"/>
  <unicode hex="002A"/>
  <outline>
    <contour>
      <point x="358.3333333333333" y="577.3333333333334" type="curve" smooth="yes"/>
      <point x="334.6666666666667" y="577.3333333333334"/>
      <point x="318.0" y="574.6666666666666"/>
      <point x="302.3333333333333" y="569.0" type="curve"/>
      <point x="307.6666666666667" y="543.0"/>
      <point x="308.6666666666667" y="525.0"/>
      <point x="307.6666666666667" y="489.6666666666667" type="curve" smooth="yes"/>
      <point x="304.6666666666667" y="442.0"/>
      <point x="298.0" y="404.3333333333333"/>
      <point x="297.0" y="367.6666666666667" type="curve"/>
      <point x="290.0" y="364.3333333333333" type="line"/>
      <point x="260.6666666666667" y="395.0"/>
      <point x="226.66666666666666" y="426.0"/>
      <point x="195.0" y="452.6666666666667" type="curve" smooth="yes"/>
      <point x="163.66666666666666" y="481.0"/>
      <point x="126.33333333333333" y="476.6666666666667"/>
      <point x="100.33333333333333" y="438.3333333333333" type="curve" smooth="yes"/>
      <point x="90.66666666666667" y="424.0"/>
      <point x="84.66666666666667" y="407.3333333333333"/>
      <point x="82.0" y="392.0" type="curve"/>
      <point x="142.0" y="362.0"/>
      <point x="189.33333333333334" y="340.6666666666667"/>
      <point x="245.66666666666669" y="315.0" type="curve"/>
      <point x="244.33333333333334" y="309.0" type="line"/>
      <point x="189.66666666666666" y="295.0"/>
      <point x="141.33333333333334" y="279.6666666666667"/>
      <point x="89.0" y="264.0" type="curve" smooth="yes"/>
      <point x="43.333333333333336" y="253.33333333333331"/>
      <point x="34.33333333333333" y="217.0"/>
      <point x="46.666666666666664" y="177.0" type="curve" smooth="yes"/>
      <point x="52.333333333333336" y="158.0"/>
      <point x="62.33333333333333" y="145.33333333333334"/>
      <point x="74.33333333333333" y="136.33333333333334" type="curve"/>
      <point x="139.33333333333334" y="176.33333333333334"/>
      <point x="199.0" y="214.33333333333334"/>
      <point x="259.0" y="256.6666666666667" type="curve"/>
      <point x="264.6666666666667" y="253.33333333333334" type="line"/>
      <point x="244.0" y="213.33333333333334"/>
      <point x="227.0" y="175.0"/>
      <point x="212.33333333333334" y="139.66666666666666" type="curve" smooth="yes"/>
      <point x="182.33333333333334" y="77.33333333333333"/>
      <point x="202.33333333333334" y="42.0"/>
      <point x="253.0" y="42.0" type="curve" smooth="yes"/>
      <point x="272.0" y="42.0"/>
      <point x="294.6666666666667" y="43.666666666666664"/>
      <point x="311.3333333333333" y="50.0" type="curve"/>
      <point x="305.0" y="73.66666666666667"/>
      <point x="303.6666666666667" y="97.66666666666667"/>
      <point x="309.3333333333333" y="133.66666666666666" type="curve" smooth="yes"/>
      <point x="315.3333333333333" y="174.33333333333334"/>
      <point x="322.6666666666667" y="212.66666666666666"/>
      <point x="327.0" y="254.0" type="curve"/>
      <point x="333.3333333333333" y="256.0" type="line"/>
      <point x="361.6666666666667" y="223.66666666666666"/>
      <point x="386.6666666666667" y="198.66666666666666"/>
      <point x="416.3333333333333" y="171.0" type="curve" smooth="yes"/>
      <point x="450.0" y="135.66666666666666"/>
      <point x="485.3333333333333" y="141.0"/>
      <point x="516.0" y="180.0" type="curve" smooth="yes"/>
      <point x="526.3333333333334" y="193.0"/>
      <point x="533.3333333333334" y="208.66666666666666"/>
      <point x="538.0" y="227.66666666666666" type="curve"/>
      <point x="476.0" y="258.0"/>
      <point x="424.3333333333333" y="284.6666666666667"/>
      <point x="370.3333333333333" y="307.0" type="curve"/>
      <point x="371.6666666666667" y="313.0" type="line"/>
      <point x="423.0" y="326.0"/>
      <point x="476.0" y="342.3333333333333"/>
      <point x="531.0" y="360.0" type="curve" smooth="yes"/>
      <point x="579.3333333333334" y="372.3333333333333"/>
      <point x="594.3333333333334" y="411.0"/>
      <point x="577.3333333333334" y="449.0" type="curve" smooth="yes"/>
      <point x="569.3333333333334" y="467.0"/>
      <point x="560.0" y="477.0"/>
      <point x="548.6666666666666" y="485.3333333333333" type="curve"/>
      <point x="467.3333333333333" y="434.6666666666667"/>
      <point x="413.3333333333333" y="400.6666666666667"/>
      <point x="361.0" y="363.6666666666667" type="curve"/>
      <point x="355.3333333333333" y="367.6666666666667" type="line"/>
      <point x="372.3333333333333" y="398.3333333333333"/>
      <point x="392.0" y="441.3333333333333"/>
      <point x="406.0" y="479.0" type="curve" smooth="yes"/>
      <point x="433.0" y="541.0"/>
      <point x="418.3333333333333" y="577.3333333333334"/>
    </contour>
  </outline>
</glyph>
<glyph name="plus" format="2">
  <advance width="600.0"/>
  <unicode hex="002B"/>
  <outline>
    <contour>
      <point x="295.20000000000005" y="538.8" type="curve"/>
      <point x="299.8" y="513.6"/>
      <point x="299.00000000000006" y="484.0"/>
      <point x="292.00000000000006" y="447.0" type="curve"/>
      <point x="274.2" y="351.79999999999995"/>
      <point x="220.2" y="248.60000000000002"/>
      <point x="207.0" y="154.8" type="curve"/>
      <point x="197.0" y="87.8"/>
      <point x="224.60000000000002" y="54.0"/>
      <point x="290.0" y="54.0" type="curve" smooth="yes"/>
      <point x="298.8" y="54.0"/>
      <point x="305.59999999999997" y="55.0"/>
      <point x="312.6" y="57.00000000000001" type="curve"/>
      <point x="311.20000000000005" y="172.0"/>
      <point x="370.20000000000005" y="278.59999999999997"/>
      <point x="400.20000000000005" y="411.6" type="curve" smooth="yes"/>
      <point x="422.6" y="501.0"/>
      <point x="399.80000000000007" y="543.6"/>
      <point x="331.8" y="543.6" type="curve" smooth="yes"/>
      <point x="317.40000000000003" y="543.6"/>
      <point x="305.40000000000003" y="542.0000000000001"/>
    </contour>
    <contour>
      <point x="75.0" y="355.0" type="line"/>
      <point x="68.2" y="340.6"/>
      <point x="62.2" y="323.59999999999997"/>
      <point x="58.400000000000006" y="309.20000000000005" type="curve" smooth="yes"/>
      <point x="47.400000000000006" y="267.6"/>
      <point x="64.60000000000001" y="245.0"/>
      <point x="107.4" y="245.0" type="curve" smooth="yes"/>
      <point x="542.4000000000001" y="245.0" type="line"/>
      <point x="548.0" y="260.8"/>
      <point x="552.8000000000001" y="276.00000000000006"/>
      <point x="556.6" y="290.79999999999995" type="curve" smooth="yes"/>
      <point x="567.8000000000001" y="335.4"/>
      <point x="551.8000000000001" y="355.0"/>
      <point x="501.6" y="355.0" type="curve" smooth="yes"/>
    </contour>
  </outline>
</glyph>
<glyph name="comma" format="2">
  <advance width="600.0"/>
  <unicode hex="002C"/>
  <outline>
    <contour>
      <point x="135.6" y="-196.0" type="curve" smooth="yes"/>
      <point x="153.2" y="-196.0"/>
      <point x="167.0" y="-192.2"/>
      <point x="178.2" y="-181.0" type="curve" smooth="yes"/>
      <point x="251.59999999999994" y="-113.2"/>
      <point x="327.20000000000005" y="8.999999999999998"/>
      <point x="352.19999999999993" y="118.2" type="curve" smooth="yes"/>
      <point x="362.59999999999997" y="166.0"/>
      <point x="334.8" y="188.0"/>
      <point x="270.2" y="188.0" type="curve" smooth="yes"/>
      <point x="249.60000000000002" y="188.0"/>
      <point x="233.59999999999997" y="185.6"/>
      <point x="211.6" y="179.6" type="curve"/>
      <point x="177.99999999999997" y="27.199999999999996"/>
      <point x="135.79999999999998" y="-70.4"/>
      <point x="60.39999999999999" y="-167.2" type="curve"/>
      <point x="78.00000000000001" y="-185.2"/>
      <point x="102.80000000000001" y="-196.0"/>
    </contour>
  </outline>
</glyph>
<glyph name="hyphen" format="2">
  <advance width="600.0"/>
  <unicode hex="002D"/>
  <outline>
    <contour>
      <point x="122.4" y="354.40000000000003" type="line"/>
      <point x="120.8" y="349.6"/>
      <point x="119.8" y="344.40000000000003"/>
      <point x="118.19999999999999" y="339.0" type="curve" smooth="yes"/>
      <point x="98.6" y="263.40000000000003"/>
      <point x="107.80000000000001" y="244.4"/>
      <point x="167.8" y="244.4" type="curve" smooth="yes"/>
      <point x="489.0" y="244.4" type="line"/>
      <point x="494.80000000000007" y="258.20000000000005"/>
      <point x="500.6000000000001" y="273.6"/>
      <point x="504.0" y="286.20000000000005" type="curve" smooth="yes"/>
      <point x="516.8000000000001" y="334.00000000000006"/>
      <point x="506.40000000000003" y="354.40000000000003"/>
      <point x="468.20000000000005" y="354.40000000000003" type="curve"/>
    </contour>
  </outline>
</glyph>
<glyph name="period" format="2">
  <advance width="600.0"/>
  <unicode hex="002E"/>
  <outline>
    <contour>
      <point x="323.3333333333333" y="3.0000000000000018" type="curve"/>
      <point x="349.3333333333333" y="105.33333333333333" type="line" smooth="yes"/>
      <point x="361.3333333333333" y="153.33333333333334"/>
      <point x="333.0" y="179.0"/>
      <point x="269.3333333333333" y="179.0" type="curve"/>
      <point x="240.0" y="179.0"/>
      <point x="209.0" y="174.0"/>
      <point x="184.66666666666666" y="165.0" type="curve"/>
      <point x="158.66666666666666" y="64.0" type="line" smooth="yes"/>
      <point x="146.66666666666666" y="16.0"/>
      <point x="176.33333333333334" y="-9.0"/>
      <point x="245.33333333333331" y="-9.0" type="curve" smooth="yes"/>
      <point x="272.6666666666667" y="-9.0"/>
      <point x="304.3333333333333" y="-3.9999999999999996"/>
    </contour>
  </outline>
</glyph>
<glyph name="slash" format="2">
  <advance width="600.0"/>
  <unicode hex="002F"/>
  <outline>
    <contour>
      <point x="559.8" y="750.6" type="curve"/>
      <point x="541.9999999999999" y="759.4"/>
      <point x="527.8" y="763.2"/>
      <point x="508.4" y="763.2" type="curve" smooth="yes"/>
      <point x="466.5999999999999" y="763.2"/>
      <point x="436.4" y="748.8"/>
      <point x="426.5999999999999" y="717.2" type="curve" smooth="yes"/>
      <point x="346.0" y="442.6"/>
      <point x="234.20000000000002" y="188.8"/>
      <point x="90.60000000000001" y="-42.2" type="curve" smooth="yes"/>
      <point x="69.60000000000001" y="-75.6"/>
      <point x="52.4" y="-99.2"/>
      <point x="31.6" y="-121.0" type="curve"/>
      <point x="49.6" y="-132.2"/>
      <point x="67.60000000000002" y="-136.6"/>
      <point x="92.2" y="-136.6" type="curve" smooth="yes"/>
      <point x="132.4" y="-136.6"/>
      <point x="163.6" y="-119.0"/>
      <point x="191.20000000000002" y="-78.0" type="curve" smooth="yes"/>
      <point x="347.8" y="161.8"/>
      <point x="469.79999999999984" y="437.8"/>
    </contour>
  </outline>
</glyph>
<glyph name="zero" format="2">
  <advance width="600.0"/>
  <unicode hex="0030"/>
  <outline>
    <contour>
      <point x="406.20000000000005" y="720.0" type="curve" smooth="yes"/>
      <point x="265.2" y="720.0"/>
      <point x="145.8" y="610.1999999999999"/>
      <point x="86.8" y="375.40000000000003" type="curve" smooth="yes"/>
      <point x="76.8" y="335.79999999999995" type="line" smooth="yes"/>
      <point x="22.2" y="120.19999999999999"/>
      <point x="95.60000000000002" y="-20.0"/>
      <point x="238.20000000000002" y="-20.0" type="curve" smooth="yes"/>
      <point x="374.2" y="-20.0"/>
      <point x="490.4" y="74.4"/>
      <point x="545.0" y="296.2" type="curve" smooth="yes"/>
      <point x="555.8000000000001" y="341.4" type="line" smooth="yes"/>
      <point x="613.8" y="575.6000000000001"/>
      <point x="550.8000000000001" y="720.0"/>
    </contour>
    <contour>
      <point x="396.8" y="615.2" type="curve" smooth="yes"/>
      <point x="415.0" y="615.2"/>
      <point x="430.6" y="612.4"/>
      <point x="443.79999999999995" y="606.2" type="curve" smooth="yes"/>
      <point x="475.0" y="557.4000000000001"/>
      <point x="479.2" y="475.99999999999994"/>
      <point x="451.0" y="357.8" type="curve" smooth="yes"/>
      <point x="442.0" y="320.40000000000003" type="line" smooth="yes"/>
      <point x="408.4" y="178.8"/>
      <point x="343.6" y="86.39999999999999"/>
      <point x="245.99999999999997" y="86.39999999999999" type="curve" smooth="yes"/>
      <point x="224.99999999999997" y="86.39999999999999"/>
      <point x="205.19999999999996" y="90.2"/>
      <point x="191.0" y="98.19999999999999" type="curve" smooth="yes"/>
      <point x="161.60000000000002" y="142.6"/>
      <point x="157.6" y="216.20000000000002"/>
      <point x="181.6" y="310.8" type="curve" smooth="yes"/>
      <point x="191.0" y="348.59999999999997" type="line" smooth="yes"/>
      <point x="232.39999999999998" y="513.2"/>
      <point x="302.0" y="615.2"/>
    </contour>
    <contour>
      <point x="513.6" y="555.2" type="line"/>
      <point x="411.6" y="454.2"/>
      <point x="322.6" y="382.6"/>
      <point x="247.99999999999994" y="324.79999999999995" type="curve" smooth="yes"/>
      <point x="208.0" y="294.8"/>
      <point x="185.60000000000002" y="272.2"/>
      <point x="165.60000000000002" y="232.0" type="curve"/>
      <point x="202.6" y="257.6" type="line"/>
      <point x="139.0" y="257.6" type="line"/>
      <point x="123.19999999999997" y="169.6" type="line"/>
      <point x="228.4" y="232.4"/>
      <point x="316.19999999999993" y="292.8"/>
      <point x="385.20000000000005" y="355.0" type="curve" smooth="yes"/>
      <point x="418.4" y="381.99999999999994"/>
      <point x="447.00000000000006" y="410.59999999999997"/>
      <point x="468.8" y="459.79999999999995" type="curve"/>
      <point x="430.20000000000005" y="435.40000000000003" type="line"/>
      <point x="494.2" y="435.40000000000003" type="line"/>
    </contour>
  </outline>
</glyph>
<glyph name="one" format="2">
  <advance width="600.0"/>
  <unicode hex="0031"/>
  <outline>
    <contour>
      <point x="365.6666666666667" y="702.0" type="curve"/>
      <point x="349.6666666666667" y="682.0"/>
      <point x="311.6666666666667" y="645.0"/>
      <point x="274.6666666666667" y="615.0" type="curve" smooth="yes"/>
      <point x="235.66666666666666" y="583.6666666666666"/>
      <point x="196.0" y="560.0"/>
      <point x="149.66666666666669" y="539.3333333333334" type="curve"/>
      <point x="144.33333333333334" y="520.3333333333334" type="line" smooth="yes"/>
      <point x="127.66666666666667" y="462.0"/>
      <point x="141.66666666666666" y="433.3333333333333"/>
      <point x="168.66666666666666" y="433.3333333333333" type="curve" smooth="yes"/>
      <point x="197.66666666666666" y="433.3333333333333"/>
      <point x="237.0" y="450.3333333333333"/>
      <point x="276.6666666666667" y="482.33333333333337" type="curve" smooth="yes"/>
      <point x="312.0" y="511.6666666666667"/>
      <point x="339.0" y="540.3333333333334"/>
      <point x="369.6666666666667" y="589.0" type="curve"/>
      <point x="325.6666666666667" y="564.0" type="line"/>
      <point x="385.3333333333333" y="564.0" type="line"/>
      <point x="364.3333333333333" y="595.0" type="line"/>
      <point x="345.0" y="452.6666666666667"/>
      <point x="248.0" y="298.33333333333337"/>
      <point x="231.0" y="205.0" type="curve" smooth="yes"/>
      <point x="222.66666666666666" y="162.33333333333331"/>
      <point x="232.33333333333334" y="134.33333333333331"/>
      <point x="254.33333333333331" y="118.0" type="curve"/>
      <point x="240.66666666666666" y="87.0" type="line"/>
      <point x="325.6666666666667" y="87.0" type="line"/>
      <point x="338.0" y="257.33333333333337"/>
      <point x="467.6666666666667" y="465.33333333333337"/>
      <point x="496.6666666666667" y="639.6666666666666" type="curve" smooth="yes"/>
      <point x="504.6666666666667" y="688.0"/>
      <point x="481.6666666666667" y="710.0"/>
      <point x="429.3333333333333" y="710.0" type="curve" smooth="yes"/>
      <point x="406.0" y="710.0"/>
      <point x="379.0" y="706.3333333333334"/>
    </contour>
    <contour>
      <point x="48.33333333333333" y="111.99999999999999" type="curve"/>
      <point x="45.33333333333333" y="102.66666666666666"/>
      <point x="41.33333333333333" y="91.0"/>
      <point x="38.0" y="76.66666666666666" type="curve" smooth="yes"/>
      <point x="32.0" y="51.666666666666664"/>
      <point x="31.666666666666664" y="30.0"/>
      <point x="41.0" y="16.333333333333332" type="curve" smooth="yes"/>
      <point x="49.666666666666664" y="4.666666666666666"/>
      <point x="63.333333333333336" y="0.0"/>
      <point x="99.0" y="0.0" type="curve" smooth="yes"/>
      <point x="171.66666666666666" y="0.0"/>
      <point x="483.3333333333333" y="0.0"/>
      <point x="494.6666666666667" y="0.0" type="curve"/>
      <point x="499.6666666666667" y="8.666666666666666"/>
      <point x="504.3333333333333" y="20.333333333333336"/>
      <point x="507.0" y="32.333333333333336" type="curve" smooth="yes"/>
      <point x="517.6666666666666" y="80.33333333333333"/>
      <point x="470.3333333333333" y="111.99999999999999"/>
      <point x="347.6666666666667" y="111.99999999999999" type="curve" smooth="yes"/>
      <point x="323.66666666666663" y="111.99999999999999"/>
      <point x="59.666666666666664" y="111.99999999999999"/>
    </contour>
  </outline>
</glyph>
<glyph name="two" format="2">
  <advance width="600.0"/>
  <unicode hex="0032"/>
  <outline>
    <contour>
      <point x="387.3333333333333" y="720.0" type="curve" smooth="yes"/>
      <point x="310.3333333333333" y="720.0"/>
      <point x="250.66666666666666" y="699.0"/>
      <point x="207.0" y="658.3333333333334" type="curve" smooth="yes"/>
      <point x="176.0" y="630.3333333333334"/>
      <point x="154.0" y="595.3333333333334"/>
      <point x="145.0" y="557.0" type="curve" smooth="yes"/>
      <point x="134.0" y="511.6666666666667"/>
      <point x="160.66666666666666" y="467.0"/>
      <point x="227.66666666666666" y="467.6666666666667" type="curve"/>
      <point x="233.33333333333331" y="467.6666666666667" type="line"/>
      <point x="248.0" y="553.3333333333334"/>
      <point x="295.3333333333333" y="607.3333333333334"/>
      <point x="386.0" y="607.3333333333334" type="curve" smooth="yes"/>
      <point x="423.6666666666667" y="607.3333333333334"/>
      <point x="451.6666666666667" y="598.6666666666666"/>
      <point x="470.6666666666667" y="582.0" type="curve" smooth="yes"/>
      <point x="475.6666666666667" y="567.3333333333334"/>
      <point x="477.6666666666667" y="541.6666666666666"/>
      <point x="472.6666666666667" y="518.3333333333334" type="curve" smooth="yes"/>
      <point x="471.6666666666667" y="513.6666666666666" type="line" smooth="yes"/>
      <point x="454.6666666666667" y="435.6666666666667"/>
      <point x="417.6666666666667" y="396.0"/>
      <point x="284.0" y="328.3333333333333" type="curve" smooth="yes"/>
      <point x="106.0" y="240.33333333333334"/>
      <point x="36.0" y="179.0"/>
      <point x="15.0" y="96.0" type="curve" smooth="yes"/>
      <point x="13.333333333333332" y="89.33333333333333" type="line" smooth="yes"/>
      <point x="4.0" y="53.0"/>
      <point x="14.666666666666666" y="0.0"/>
      <point x="46.66666666666667" y="0.0" type="curve" smooth="yes"/>
      <point x="81.33333333333334" y="0.0"/>
      <point x="368.314" y="0.0"/>
      <point x="463.3333333333333" y="0.0" type="curve"/>
      <point x="474.6666666666667" y="11.666666666666666"/>
      <point x="481.6666666666667" y="26.333333333333336"/>
      <point x="486.3333333333333" y="43.0" type="curve" smooth="yes"/>
      <point x="498.3333333333333" y="92.66666666666666"/>
      <point x="479.0" y="111.99999999999999"/>
      <point x="427.3333333333333" y="111.99999999999999" type="curve" smooth="yes"/>
      <point x="291.0" y="111.99999999999999" type="line" smooth="yes"/>
      <point x="205.33333333333334" y="111.99999999999999"/>
      <point x="140.33333333333331" y="104.33333333333333"/>
      <point x="84.66666666666666" y="79.33333333333334" type="curve"/>
      <point x="139.0" y="91.33333333333333" type="line"/>
      <point x="79.33333333333334" y="91.33333333333333" type="line"/>
      <point x="99.33333333333334" y="69.33333333333334" type="line"/>
      <point x="127.66666666666666" y="138.66666666666666"/>
      <point x="160.66666666666666" y="168.0"/>
      <point x="321.0" y="241.33333333333334" type="curve" smooth="yes"/>
      <point x="477.0" y="312.0"/>
      <point x="556.0" y="369.0"/>
      <point x="581.0" y="483.6666666666667" type="curve" smooth="yes"/>
      <point x="582.6666666666666" y="491.0" type="line" smooth="yes"/>
      <point x="610.3333333333334" y="621.3333333333334"/>
      <point x="544.6666666666666" y="720.0"/>
    </contour>
  </outline>
</glyph>
<glyph name="three" format="2">
  <advance width="600.0"/>
  <unicode hex="0033"/>
  <outline>
    <contour>
      <point x="380.6666666666667" y="719.6666666666666" type="curve" smooth="yes"/>
      <point x="305.0" y="719.6666666666666"/>
      <point x="236.66666666666666" y="701.3333333333334"/>
      <point x="200.33333333333334" y="672.0" type="curve" smooth="yes"/>
      <point x="172.66666666666666" y="649.6666666666666"/>
      <point x="159.66666666666666" y="625.3333333333334"/>
      <point x="151.0" y="589.0" type="curve" smooth="yes"/>
      <point x="146.33333333333334" y="568.6666666666666"/>
      <point x="145.0" y="548.3333333333334"/>
      <point x="147.66666666666666" y="528.3333333333334" type="curve"/>
      <point x="153.66666666666666" y="528.3333333333334" type="line"/>
      <point x="217.33333333333334" y="587.3333333333334"/>
      <point x="278.0" y="606.3333333333334"/>
      <point x="363.6666666666667" y="606.3333333333334" type="curve" smooth="yes"/>
      <point x="429.6666666666667" y="606.3333333333334"/>
      <point x="473.0" y="580.3333333333334"/>
      <point x="488.0" y="542.6666666666666" type="curve" smooth="yes"/>
      <point x="487.0" y="539.3333333333334" type="line" smooth="yes"/>
      <point x="441.0" y="425.0"/>
      <point x="348.6666666666667" y="379.6666666666667"/>
      <point x="204.66666666666666" y="379.3333333333333" type="curve"/>
      <point x="195.33333333333334" y="367.0"/>
      <point x="189.66666666666666" y="354.6666666666667"/>
      <point x="185.66666666666666" y="338.6666666666667" type="curve" smooth="yes"/>
      <point x="177.66666666666666" y="306.0"/>
      <point x="182.66666666666666" y="282.6666666666667"/>
      <point x="211.33333333333334" y="280.6666666666667" type="curve" smooth="yes"/>
      <point x="332.33333333333337" y="275.33333333333337"/>
      <point x="413.0" y="233.66666666666669"/>
      <point x="410.6666666666667" y="161.33333333333334" type="curve" smooth="yes"/>
      <point x="409.6666666666667" y="157.0" type="line" smooth="yes"/>
      <point x="388.0" y="109.66666666666666"/>
      <point x="332.6666666666667" y="93.33333333333333"/>
      <point x="244.66666666666666" y="93.33333333333333" type="curve" smooth="yes"/>
      <point x="149.0" y="93.33333333333333"/>
      <point x="93.0" y="118.0"/>
      <point x="55.0" y="182.0" type="curve"/>
      <point x="49.0" y="182.0" type="line"/>
      <point x="37.0" y="164.66666666666666"/>
      <point x="30.666666666666664" y="150.66666666666669"/>
      <point x="25.666666666666668" y="130.66666666666666" type="curve" smooth="yes"/>
      <point x="16.666666666666668" y="93.33333333333333"/>
      <point x="27.0" y="57.666666666666664"/>
      <point x="49.0" y="35.0" type="curve" smooth="yes"/>
      <point x="81.0" y="2.0"/>
      <point x="142.66666666666666" y="-20.0"/>
      <point x="234.66666666666666" y="-20.0" type="curve" smooth="yes"/>
      <point x="382.0" y="-20.0"/>
      <point x="482.3333333333333" y="28.666666666666668"/>
      <point x="508.0" y="132.33333333333331" type="curve" smooth="yes"/>
      <point x="511.3333333333333" y="145.66666666666666" type="line" smooth="yes"/>
      <point x="533.3333333333334" y="234.0"/>
      <point x="482.3333333333333" y="306.6666666666667"/>
      <point x="350.0" y="338.6666666666667" type="curve"/>
      <point x="369.3333333333333" y="304.6666666666667" type="line"/>
      <point x="384.0" y="364.3333333333333" type="line"/>
      <point x="350.6666666666667" y="330.0" type="line"/>
      <point x="498.6666666666667" y="367.6666666666667"/>
      <point x="572.0" y="433.0"/>
      <point x="591.3333333333334" y="509.3333333333333" type="curve" smooth="yes"/>
      <point x="594.6666666666666" y="522.6666666666666" type="line" smooth="yes"/>
      <point x="620.3333333333334" y="624.3333333333334"/>
      <point x="545.6666666666666" y="719.6666666666666"/>
    </contour>
  </outline>
</glyph>
<glyph name="four" format="2">
  <advance width="600.0"/>
  <unicode hex="0034"/>
  <outline>
    <contour>
      <point x="516.3333333333334" y="712.0" type="curve" smooth="yes"/>
      <point x="476.3333333333333" y="712.0"/>
      <point x="443.0" y="701.0"/>
      <point x="379.3333333333333" y="653.0" type="curve" smooth="yes"/>
      <point x="212.66666666666666" y="526.0"/>
      <point x="63.33333333333333" y="336.66666666666663"/>
      <point x="40.666666666666664" y="255.0" type="curve" smooth="yes"/>
      <point x="37.0" y="241.66666666666666" type="line"/>
      <point x="22.0" y="185.0"/>
      <point x="40.0" y="153.33333333333334"/>
      <point x="77.0" y="153.33333333333334" type="curve" smooth="yes"/>
      <point x="535.3333333333334" y="153.33333333333334" type="line"/>
      <point x="541.6666666666666" y="165.0"/>
      <point x="546.6666666666666" y="178.33333333333334"/>
      <point x="550.0" y="191.33333333333331" type="curve" smooth="yes"/>
      <point x="558.0" y="226.33333333333334"/>
      <point x="555.0" y="266.6666666666667"/>
      <point x="518.0" y="266.6666666666667" type="curve" smooth="yes"/>
      <point x="315.0" y="266.6666666666667" type="line" smooth="yes"/>
      <point x="224.33333333333331" y="266.6666666666667"/>
      <point x="179.66666666666666" y="263.3333333333333"/>
      <point x="134.66666666666666" y="250.0" type="curve"/>
      <point x="153.66666666666666" y="236.0" type="line"/>
      <point x="165.33333333333331" y="284.3333333333333" type="line"/>
      <point x="139.66666666666666" y="234.33333333333334" type="line"/>
      <point x="264.6666666666667" y="409.0"/>
      <point x="453.0" y="585.6666666666666"/>
      <point x="621.0" y="672.6666666666666" type="curve"/>
      <point x="622.0" y="678.6666666666666" type="line"/>
      <point x="606.3333333333334" y="699.0"/>
      <point x="571.0" y="712.0"/>
    </contour>
    <contour>
      <point x="438.0" y="403.6666666666667" type="curve"/>
      <point x="404.6666666666667" y="355.0"/>
      <point x="361.0" y="262.6666666666667"/>
      <point x="345.3333333333333" y="200.33333333333334" type="curve" smooth="yes"/>
      <point x="331.3333333333333" y="145.33333333333334"/>
      <point x="320.0" y="96.0"/>
      <point x="310.3333333333333" y="50.0" type="curve" smooth="yes"/>
      <point x="303.33333333333337" y="12.0"/>
      <point x="327.0" y="-8.666666666666666"/>
      <point x="377.6666666666667" y="-8.666666666666666" type="curve" smooth="yes"/>
      <point x="403.0" y="-8.666666666666666"/>
      <point x="418.6666666666667" y="-5.333333333333334"/>
      <point x="432.0" y="-1.666666666666667" type="curve"/>
      <point x="431.3333333333333" y="36.0"/>
      <point x="434.6666666666667" y="65.0"/>
      <point x="451.3333333333333" y="131.33333333333334" type="curve" smooth="yes"/>
      <point x="505.6666666666667" y="344.0" type="line"/>
      <point x="512.0" y="370.0"/>
      <point x="500.3333333333333" y="404.3333333333333"/>
      <point x="448.3333333333333" y="404.3333333333333" type="curve" smooth="yes"/>
      <point x="444.3333333333333" y="404.3333333333333"/>
      <point x="441.0" y="404.0"/>
    </contour>
  </outline>
</glyph>
<glyph name="five" format="2">
  <advance width="600.0"/>
  <unicode hex="0035"/>
  <outline>
    <contour>
      <point x="200.0" y="700.0" type="curve"/>
      <point x="193.20000000000002" y="688.6"/>
      <point x="186.79999999999998" y="673.9999999999999"/>
      <point x="183.0" y="656.8" type="curve" smooth="yes"/>
      <point x="173.79999999999998" y="614.0"/>
      <point x="182.99999999999997" y="593.0"/>
      <point x="233.4" y="593.0" type="curve" smooth="yes"/>
      <point x="286.20000000000005" y="593.0"/>
      <point x="577.8" y="593.0"/>
      <point x="592.8" y="593.0" type="curve"/>
      <point x="600.2" y="604.8000000000001"/>
      <point x="608.4" y="623.0000000000001"/>
      <point x="612.8" y="640.8" type="curve" smooth="yes"/>
      <point x="622.4" y="677.8"/>
      <point x="605.4" y="700.0"/>
      <point x="558.1999999999999" y="700.0" type="curve" smooth="yes"/>
      <point x="513.0" y="700.0"/>
      <point x="219.6" y="700.0"/>
    </contour>
    <contour>
      <point x="248.8" y="624.0" type="line"/>
      <point x="196.8" y="539.9999999999999"/>
      <point x="150.2" y="439.4"/>
      <point x="109.2" y="328.4" type="curve" smooth="yes"/>
      <point x="100.4" y="304.6"/>
      <point x="108.4" y="292.0"/>
      <point x="167.4" y="292.0" type="curve" smooth="yes"/>
      <point x="211.79999999999998" y="292.0" type="line"/>
      <point x="235.99999999999997" y="292.0"/>
      <point x="256.6" y="292.0"/>
      <point x="278.3999999999999" y="292.0" type="curve" smooth="yes"/>
      <point x="387.4" y="292.00000000000006"/>
      <point x="434.2" y="257.0"/>
      <point x="433.6" y="187.00000000000003" type="curve" smooth="yes"/>
      <point x="432.20000000000005" y="181.39999999999998" type="line" smooth="yes"/>
      <point x="418.2" y="123.0"/>
      <point x="350.4" y="87.0"/>
      <point x="253.8" y="87.0" type="curve" smooth="yes"/>
      <point x="153.20000000000002" y="87.0"/>
      <point x="96.99999999999999" y="113.2"/>
      <point x="48.60000000000001" y="172.0" type="curve"/>
      <point x="42.599999999999994" y="172.0" type="line"/>
      <point x="36.0" y="161.79999999999998"/>
      <point x="30.2" y="147.2"/>
      <point x="25.799999999999997" y="130.0" type="curve" smooth="yes"/>
      <point x="17.799999999999994" y="97.39999999999998"/>
      <point x="19.400000000000006" y="61.8"/>
      <point x="42.2" y="38.2" type="curve" smooth="yes"/>
      <point x="71.6" y="7.6000000000000005"/>
      <point x="129.8" y="-20.0"/>
      <point x="235.2" y="-20.0" type="curve" smooth="yes"/>
      <point x="385.6" y="-20.0"/>
      <point x="483.0" y="41.4"/>
      <point x="510.20000000000005" y="152.6" type="curve" smooth="yes"/>
      <point x="514.0" y="168.4" type="line" smooth="yes"/>
      <point x="539.1999999999999" y="270.20000000000005"/>
      <point x="490.0" y="374.0"/>
      <point x="338.6" y="374.0" type="curve" smooth="yes"/>
      <point x="286.0" y="374.0"/>
      <point x="243.4" y="365.0"/>
      <point x="205.60000000000002" y="347.4" type="curve"/>
      <point x="262.0" y="359.6" type="line"/>
      <point x="208.4" y="359.6" type="line"/>
      <point x="220.6" y="333.2" type="line"/>
      <point x="241.8" y="399.79999999999995"/>
      <point x="271.59999999999997" y="457.6"/>
      <point x="295.59999999999997" y="505.60000000000014" type="curve" smooth="yes"/>
      <point x="312.0" y="539.4000000000001"/>
      <point x="313.8" y="566.4"/>
      <point x="301.20000000000005" y="587.0" type="curve"/>
      <point x="314.3999999999999" y="624.0" type="line"/>
    </contour>
  </outline>
</glyph>
<glyph name="six" format="2">
  <advance width="600.0"/>
  <unicode hex="0036"/>
  <outline>
    <contour>
      <point x="450.20000000000005" y="720.0" type="curve" smooth="yes"/>
      <point x="287.2" y="720.0"/>
      <point x="147.79999999999998" y="627.4"/>
      <point x="79.2" y="345.6" type="curve" smooth="yes"/>
      <point x="76.80000000000001" y="335.6" type="line" smooth="yes"/>
      <point x="23.0" y="113.19999999999999"/>
      <point x="105.8" y="-20.0"/>
      <point x="260.2" y="-20.0" type="curve" smooth="yes"/>
      <point x="394.6" y="-20.0"/>
      <point x="484.6" y="44.8"/>
      <point x="515.4" y="175.6" type="curve" smooth="yes"/>
      <point x="518.4000000000001" y="188.39999999999998" type="line" smooth="yes"/>
      <point x="550.0" y="323.20000000000005"/>
      <point x="476.2" y="403.00000000000006"/>
      <point x="364.40000000000003" y="403.00000000000006" type="curve" smooth="yes"/>
      <point x="276.6" y="403.00000000000006"/>
      <point x="221.40000000000003" y="375.4"/>
      <point x="177.4" y="315.19999999999993" type="curve"/>
      <point x="224.20000000000002" y="339.00000000000006" type="line"/>
      <point x="152.60000000000002" y="339.00000000000006" type="line"/>
      <point x="130.00000000000003" y="256.8" type="line"/>
      <point x="193.6" y="290.79999999999995"/>
      <point x="258.4" y="309.8"/>
      <point x="320.2" y="309.8" type="curve" smooth="yes"/>
      <point x="365.6" y="309.8"/>
      <point x="398.8" y="298.19999999999993"/>
      <point x="417.8" y="281.0" type="curve" smooth="yes"/>
      <point x="419.6" y="257.59999999999997"/>
      <point x="418.2" y="225.2"/>
      <point x="410.2" y="193.4" type="curve" smooth="yes"/>
      <point x="408.59999999999997" y="187.0" type="line" smooth="yes"/>
      <point x="394.79999999999995" y="126.39999999999999"/>
      <point x="344.0" y="82.0"/>
      <point x="263.2" y="82.0" type="curve" smooth="yes"/>
      <point x="237.20000000000002" y="82.0"/>
      <point x="215.20000000000002" y="87.0"/>
      <point x="195.4" y="99.0" type="curve" smooth="yes"/>
      <point x="174.8" y="128.00000000000003"/>
      <point x="157.8" y="210.8"/>
      <point x="188.4" y="331.8" type="curve" smooth="yes"/>
      <point x="190.8" y="341.4" type="line" smooth="yes"/>
      <point x="222.4" y="468.2"/>
      <point x="265.6" y="546.8000000000001"/>
      <point x="298.59999999999997" y="580.5999999999999" type="curve" smooth="yes"/>
      <point x="330.59999999999997" y="600.6"/>
      <point x="384.4" y="615.6"/>
      <point x="435.40000000000003" y="615.6" type="curve" smooth="yes"/>
      <point x="497.19999999999993" y="615.6"/>
      <point x="542.4" y="600.4"/>
      <point x="576.8" y="572.8" type="curve"/>
      <point x="582.8" y="572.8" type="line"/>
      <point x="589.4" y="582.8"/>
      <point x="594.9999999999999" y="596.2"/>
      <point x="599.0" y="614.4" type="curve" smooth="yes"/>
      <point x="607.8" y="651.4"/>
      <point x="603.1999999999999" y="669.0"/>
      <point x="592.8000000000001" y="681.8000000000001" type="curve" smooth="yes"/>
      <point x="581.4" y="695.4000000000001"/>
      <point x="532.0" y="720.0"/>
    </contour>
  </outline>
</glyph>
<glyph name="seven" format="2">
  <advance width="600.0"/>
  <unicode hex="0037"/>
  <outline>
    <contour>
      <point x="205.60000000000002" y="720.0" type="curve"/>
      <point x="177.0" y="667.2"/>
      <point x="140.8" y="575.8"/>
      <point x="127.0" y="509.20000000000005" type="curve" smooth="yes"/>
      <point x="117.0" y="467.20000000000005"/>
      <point x="138.6" y="458.4"/>
      <point x="178.99999999999997" y="458.4" type="curve" smooth="yes"/>
      <point x="196.39999999999998" y="458.4"/>
      <point x="211.8" y="460.0"/>
      <point x="223.79999999999998" y="463.2" type="curve"/>
      <point x="234.99999999999997" y="524.1999999999999"/>
      <point x="287.59999999999997" y="644.0"/>
      <point x="296.2" y="678.4" type="curve" smooth="yes"/>
      <point x="303.6" y="706.0000000000001"/>
      <point x="256.99999999999994" y="720.0"/>
    </contour>
    <contour>
      <point x="267.79999999999995" y="-2.4000000000000004" type="curve"/>
      <point x="291.0" y="90.8"/>
      <point x="337.0" y="185.60000000000002"/>
      <point x="457.20000000000005" y="341.20000000000005" type="curve" smooth="yes"/>
      <point x="550.4" y="462.59999999999997"/>
      <point x="615.4" y="547.8"/>
      <point x="627.0" y="600.8" type="curve" smooth="yes"/>
      <point x="629.6" y="612.0000000000001" type="line" smooth="yes"/>
      <point x="637.4" y="645.8000000000001"/>
      <point x="630.0" y="700.0"/>
      <point x="601.9999999999999" y="700.0" type="curve" smooth="yes"/>
      <point x="207.8" y="700.0" type="line"/>
      <point x="197.0" y="653.0"/>
      <point x="195.20000000000002" y="596.4"/>
      <point x="224.8" y="596.4" type="curve" smooth="yes"/>
      <point x="363.5999999999999" y="596.4" type="line" smooth="yes"/>
      <point x="436.79999999999995" y="596.4"/>
      <point x="486.99999999999994" y="601.4000000000001"/>
      <point x="547.8000000000001" y="621.6" type="curve"/>
      <point x="514.2" y="628.0000000000001" type="line"/>
      <point x="504.0" y="573.0" type="line"/>
      <point x="530.4" y="644.8000000000001" type="line"/>
      <point x="504.59999999999997" y="575.4"/>
      <point x="456.59999999999997" y="498.80000000000007"/>
      <point x="359.2" y="383.6" type="curve" smooth="yes"/>
      <point x="245.79999999999998" y="249.2"/>
      <point x="178.4" y="128.79999999999998"/>
      <point x="163.20000000000002" y="55.8" type="curve" smooth="yes"/>
      <point x="154.4" y="13.600000000000001"/>
      <point x="175.6" y="-10.0"/>
      <point x="225.0" y="-10.0" type="curve"/>
      <point x="241.20000000000002" y="-10.0"/>
      <point x="258.2" y="-6.2"/>
    </contour>
  </outline>
</glyph>
<glyph name="eight" format="2">
  <advance width="600.0"/>
  <unicode hex="0038"/>
  <outline>
    <contour>
      <point x="404.0" y="720.0" type="curve" smooth="yes"/>
      <point x="257.20000000000005" y="720.0"/>
      <point x="160.2" y="638.2"/>
      <point x="135.39999999999998" y="529.5999999999999" type="curve" smooth="yes"/>
      <point x="133.79999999999998" y="522.8000000000001" type="line" smooth="yes"/>
      <point x="116.8" y="448.79999999999995"/>
      <point x="136.20000000000002" y="355.79999999999995"/>
      <point x="266.2" y="302.6" type="curve" smooth="yes"/>
      <point x="352.79999999999995" y="267.0" type="line" smooth="yes"/>
      <point x="416.0" y="241.20000000000002"/>
      <point x="421.20000000000005" y="192.6"/>
      <point x="414.19999999999993" y="149.79999999999998" type="curve"/>
      <point x="387.4" y="108.60000000000001"/>
      <point x="334.4" y="81.60000000000001"/>
      <point x="251.99999999999997" y="81.60000000000001" type="curve" smooth="yes"/>
      <point x="172.4" y="81.60000000000001"/>
      <point x="135.0" y="113.8"/>
      <point x="129.2" y="153.8" type="curve"/>
      <point x="140.6" y="204.20000000000002"/>
      <point x="192.2" y="269.2"/>
      <point x="331.79999999999995" y="302.0" type="curve"/>
      <point x="220.59999999999997" y="346.4" type="line"/>
      <point x="209.99999999999997" y="306.2" type="line"/>
      <point x="243.79999999999998" y="328.0" type="line"/>
      <point x="125.80000000000001" y="310.59999999999997"/>
      <point x="55.6" y="250.99999999999997"/>
      <point x="37.2" y="177.6" type="curve" smooth="yes"/>
      <point x="35.199999999999996" y="169.6" type="line" smooth="yes"/>
      <point x="10.2" y="70.6"/>
      <point x="82.4" y="-20.0"/>
      <point x="238.39999999999998" y="-20.0" type="curve" smooth="yes"/>
      <point x="397.8" y="-20.0"/>
      <point x="481.8" y="37.00000000000001"/>
      <point x="509.00000000000006" y="138.8" type="curve" smooth="yes"/>
      <point x="511.6" y="148.60000000000002" type="line" smooth="yes"/>
      <point x="525.8000000000001" y="202.60000000000002"/>
      <point x="514.8000000000001" y="290.2"/>
      <point x="408.20000000000005" y="332.2" type="curve" smooth="yes"/>
      <point x="315.8" y="369.0" type="line" smooth="yes"/>
      <point x="231.6" y="402.6000000000001"/>
      <point x="218.19999999999996" y="459.20000000000005"/>
      <point x="232.2" y="514.2000000000002" type="curve" smooth="yes"/>
      <point x="251.79999999999995" y="590.0"/>
      <point x="320.20000000000005" y="617.6"/>
      <point x="392.8" y="617.5999999999999" type="curve" smooth="yes"/>
      <point x="432.2" y="617.5999999999999"/>
      <point x="461.0" y="608.4000000000001"/>
      <point x="485.2" y="593.1999999999999" type="curve" smooth="yes"/>
      <point x="494.4" y="569.8000000000001"/>
      <point x="497.59999999999997" y="540.6"/>
      <point x="491.20000000000005" y="514.9999999999999" type="curve" smooth="yes"/>
      <point x="489.2" y="507.6" type="line" smooth="yes"/>
      <point x="470.8" y="438.40000000000003"/>
      <point x="413.8" y="389.6"/>
      <point x="298.4" y="349.79999999999995" type="curve"/>
      <point x="406.59999999999997" y="312.8" type="line"/>
      <point x="419.2" y="361.6" type="line"/>
      <point x="384.20000000000005" y="330.6" type="line"/>
      <point x="489.6" y="350.2"/>
      <point x="568.4" y="407.0"/>
      <point x="593.1999999999999" y="506.40000000000003" type="curve" smooth="yes"/>
      <point x="595.2" y="514.4" type="line" smooth="yes"/>
      <point x="624.8000000000001" y="630.4000000000001"/>
      <point x="545.4" y="720.0"/>
    </contour>
  </outline>
</glyph>
<glyph name="nine" format="2">
  <advance width="600.0"/>
  <unicode hex="0039"/>
  <outline>
    <contour>
      <point x="394.3333333333333" y="720.0" type="curve" smooth="yes"/>
      <point x="260.0" y="720.0"/>
      <point x="151.33333333333334" y="642.0"/>
      <point x="110.66666666666667" y="480.3333333333333" type="curve" smooth="yes"/>
      <point x="108.0" y="469.6666666666667" type="line" smooth="yes"/>
      <point x="73.0" y="331.0"/>
      <point x="134.0" y="238.33333333333334"/>
      <point x="265.6666666666667" y="238.33333333333334" type="curve" smooth="yes"/>
      <point x="338.0" y="238.33333333333334"/>
      <point x="399.6666666666667" y="263.6666666666667"/>
      <point x="442.6666666666667" y="335.6666666666667" type="curve"/>
      <point x="395.33333333333337" y="310.6666666666667" type="line"/>
      <point x="451.3333333333333" y="310.6666666666667" type="line"/>
      <point x="478.0" y="393.3333333333333" type="line"/>
      <point x="419.0" y="359.3333333333333"/>
      <point x="365.6666666666667" y="343.6666666666667"/>
      <point x="306.3333333333333" y="343.6666666666667" type="curve" smooth="yes"/>
      <point x="269.0" y="343.6666666666667"/>
      <point x="236.33333333333331" y="353.3333333333333"/>
      <point x="215.33333333333331" y="370.3333333333333" type="curve" smooth="yes"/>
      <point x="208.0" y="397.3333333333333"/>
      <point x="211.0" y="430.3333333333333"/>
      <point x="219.66666666666666" y="466.3333333333333" type="curve" smooth="yes"/>
      <point x="221.0" y="471.6666666666667" type="line" smooth="yes"/>
      <point x="242.66666666666666" y="558.3333333333334"/>
      <point x="310.3333333333333" y="614.3333333333334"/>
      <point x="385.3333333333333" y="614.3333333333334" type="curve" smooth="yes"/>
      <point x="416.0" y="614.3333333333334"/>
      <point x="444.0" y="607.0"/>
      <point x="461.3333333333333" y="595.3333333333334" type="curve" smooth="yes"/>
      <point x="472.0" y="564.3333333333334"/>
      <point x="475.0" y="489.33333333333337"/>
      <point x="448.6666666666667" y="377.6666666666667" type="curve" smooth="yes"/>
      <point x="446.3333333333333" y="367.66666666666663" type="line" smooth="yes"/>
      <point x="418.6666666666667" y="247.66666666666666"/>
      <point x="384.3333333333333" y="172.66666666666666"/>
      <point x="338.6666666666667" y="127.33333333333333" type="curve" smooth="yes"/>
      <point x="299.3333333333333" y="106.0"/>
      <point x="251.66666666666669" y="96.0"/>
      <point x="204.33333333333334" y="96.0" type="curve" smooth="yes"/>
      <point x="140.33333333333334" y="96.0"/>
      <point x="101.66666666666667" y="110.33333333333333"/>
      <point x="63.33333333333333" y="139.0" type="curve"/>
      <point x="57.333333333333336" y="139.0" type="line"/>
      <point x="50.0" y="125.0"/>
      <point x="44.33333333333333" y="110.33333333333333"/>
      <point x="40.66666666666667" y="93.0" type="curve" smooth="yes"/>
      <point x="32.666666666666664" y="54.0"/>
      <point x="38.66666666666667" y="32.0"/>
      <point x="50.333333333333336" y="17.333333333333336" type="curve" smooth="yes"/>
      <point x="63.0" y="2.3333333333333335"/>
      <point x="106.33333333333333" y="-20.0"/>
      <point x="196.0" y="-20.0" type="curve" smooth="yes"/>
      <point x="362.3333333333333" y="-20.0"/>
      <point x="484.6666666666667" y="45.66666666666667"/>
      <point x="564.3333333333334" y="363.33333333333337" type="curve" smooth="yes"/>
      <point x="566.6666666666666" y="372.66666666666663" type="line" smooth="yes"/>
      <point x="623.0" y="599.0"/>
      <point x="549.0" y="720.0"/>
    </contour>
  </outline>
</glyph>
<glyph name="less" format="2">
  <advance width="600.0"/>
  <unicode hex="003C"/>
  <outline>
    <contour>
      <point x="79.60000000000001" y="331.00000000000006" type="curve"/>
      <point x="74.20000000000002" y="319.0"/>
      <point x="71.2" y="307.8"/>
      <point x="68.39999999999999" y="296.4" type="curve" smooth="yes"/>
      <point x="63.8" y="273.0"/>
      <point x="69.6" y="253.99999999999997"/>
      <point x="91.0" y="227.4" type="curve" smooth="yes"/>
      <point x="165.0" y="139.39999999999998"/>
      <point x="262.6" y="71.4"/>
      <point x="442.99999999999994" y="16.0" type="curve"/>
      <point x="452.4" y="25.199999999999996"/>
      <point x="460.6" y="37.800000000000004"/>
      <point x="465.40000000000003" y="55.4" type="curve" smooth="yes"/>
      <point x="477.6" y="101.8"/>
      <point x="471.0" y="122.8"/>
      <point x="442.8" y="132.8" type="curve"/>
      <point x="313.40000000000003" y="175.79999999999998"/>
      <point x="240.19999999999996" y="224.39999999999998"/>
      <point x="169.0" y="308.4" type="curve"/>
      <point x="180.6" y="258.4" type="line"/>
      <point x="197.6" y="323.6" type="line"/>
      <point x="161.6" y="272.40000000000003" type="line"/>
      <point x="286.99999999999994" y="366.0"/>
      <point x="391.20000000000005" y="420.4"/>
      <point x="572.8000000000001" y="472.0" type="curve"/>
      <point x="577.0" y="480.79999999999995"/>
      <point x="580.0" y="491.20000000000005"/>
      <point x="581.6" y="506.59999999999997" type="curve"/>
      <point x="586.0000000000001" y="552.2"/>
      <point x="574.8" y="578.4"/>
      <point x="543.0" y="578.4" type="curve" smooth="yes"/>
      <point x="523.0" y="578.4"/>
      <point x="498.40000000000003" y="572.6"/>
      <point x="453.19999999999993" y="554.4000000000001" type="curve" smooth="yes"/>
      <point x="308.2" y="495.4"/>
      <point x="174.39999999999998" y="414.40000000000003"/>
    </contour>
  </outline>
</glyph>
<glyph name="equal" format="2">
  <advance width="600.0"/>
  <unicode hex="003D"/>
  <outline>
    <contour>
      <point x="108.19999999999999" y="480.0" type="line"/>
      <point x="103.8" y="470.8"/>
      <point x="98.39999999999999" y="460.0"/>
      <point x="94.0" y="441.2" type="curve" smooth="yes"/>
      <point x="83.0" y="392.8"/>
      <point x="99.0" y="370.0"/>
      <point x="152.60000000000002" y="370.0" type="curve" smooth="yes"/>
      <point x="567.4" y="370.0" type="line"/>
      <point x="575.2" y="382.4"/>
      <point x="581.2" y="395.79999999999995"/>
      <point x="586.2" y="415.40000000000003" type="curve" smooth="yes"/>
      <point x="596.6" y="457.4"/>
      <point x="581.0000000000001" y="480.0"/>
      <point x="538.2" y="480.0" type="curve" smooth="yes"/>
    </contour>
    <contour>
      <point x="49.400000000000006" y="230.0" type="line"/>
      <point x="40.2" y="213.99999999999997"/>
      <point x="33.00000000000001" y="197.2"/>
      <point x="28.000000000000004" y="177.20000000000002" type="curve" smooth="yes"/>
      <point x="19.000000000000004" y="140.8"/>
      <point x="30.40000000000001" y="120.0"/>
      <point x="66.4" y="120.0" type="curve" smooth="yes"/>
      <point x="505.4000000000001" y="120.0" type="line"/>
      <point x="510.8" y="126.4"/>
      <point x="518.0" y="138.6"/>
      <point x="522.4" y="160.0" type="curve" smooth="yes"/>
      <point x="532.0" y="207.4"/>
      <point x="518.2" y="230.0"/>
      <point x="466.20000000000005" y="230.0" type="curve" smooth="yes"/>
    </contour>
  </outline>
</glyph>
<glyph name="question" format="2">
  <advance width="600.0"/>
  <unicode hex="003F"/>
  <outline>
    <contour>
      <point x="282.6" y="-2.2" type="curve"/>
      <point x="293.2" y="23.20000000000001" type="line" smooth="yes"/>
      <point x="325.4" y="99.4"/>
      <point x="289.4" y="159.2"/>
      <point x="209.99999999999997" y="159.2" type="curve" smooth="yes"/>
      <point x="184.60000000000002" y="159.2"/>
      <point x="166.79999999999998" y="157.2"/>
      <point x="146.79999999999998" y="153.2" type="curve"/>
      <point x="138.4" y="126.19999999999999" type="line" smooth="yes"/>
      <point x="112.00000000000001" y="38.2"/>
      <point x="142.20000000000002" y="-8.6"/>
      <point x="207.8" y="-8.6" type="curve" smooth="yes"/>
      <point x="233.8" y="-8.6"/>
      <point x="261.80000000000007" y="-6.6000000000000005"/>
    </contour>
    <contour>
      <point x="394.40000000000003" y="720.0" type="curve" smooth="yes"/>
      <point x="303.6" y="720.0"/>
      <point x="238.60000000000002" y="699.5999999999999"/>
      <point x="197.60000000000002" y="664.4" type="curve" smooth="yes"/>
      <point x="162.4" y="634.4"/>
      <point x="147.20000000000002" y="603.6"/>
      <point x="140.8" y="574.0" type="curve" smooth="yes"/>
      <point x="135.0" y="547.8000000000001"/>
      <point x="137.60000000000002" y="528.4"/>
      <point x="152.79999999999998" y="513.5999999999999" type="curve"/>
      <point x="158.79999999999998" y="513.5999999999999" type="line"/>
      <point x="206.99999999999997" y="577.4"/>
      <point x="276.59999999999997" y="613.1999999999999"/>
      <point x="364.6" y="613.1999999999999" type="curve" smooth="yes"/>
      <point x="411.2" y="613.1999999999999"/>
      <point x="445.0" y="608.6"/>
      <point x="463.79999999999995" y="598.4000000000001" type="curve"/>
      <point x="470.8" y="584.4"/>
      <point x="470.59999999999997" y="567.4"/>
      <point x="466.19999999999993" y="550.2" type="curve" smooth="yes"/>
      <point x="454.0" y="504.79999999999995"/>
      <point x="427.19999999999993" y="472.2"/>
      <point x="364.80000000000007" y="434.6" type="curve" smooth="yes"/>
      <point x="338.2" y="418.59999999999997" type="line" smooth="yes"/>
      <point x="259.0" y="371.00000000000006"/>
      <point x="230.8" y="344.0"/>
      <point x="217.6" y="302.4" type="curve" smooth="yes"/>
      <point x="216.2" y="298.0" type="line" smooth="yes"/>
      <point x="207.0" y="265.4"/>
      <point x="229.60000000000002" y="246.0"/>
      <point x="296.6" y="246.0" type="curve" smooth="yes"/>
      <point x="303.8" y="246.0" type="line"/>
      <point x="305.2" y="253.0" type="line" smooth="yes"/>
      <point x="312.59999999999997" y="284.8"/>
      <point x="331.0" y="307.79999999999995"/>
      <point x="389.8" y="342.2" type="curve" smooth="yes"/>
      <point x="420.20000000000005" y="359.4" type="line" smooth="yes"/>
      <point x="510.6" y="410.59999999999997"/>
      <point x="550.4" y="451.0"/>
      <point x="571.5999999999999" y="528.0" type="curve" smooth="yes"/>
      <point x="574.1999999999999" y="537.4000000000001" type="line" smooth="yes"/>
      <point x="598.1999999999999" y="623.8"/>
      <point x="548.8" y="720.0"/>
    </contour>
  </outline>
</glyph>
<glyph name="at" format="2">
  <advance width="600.0"/>
  <unicode hex="0040"/>
  <outline>
    <contour>
      <point x="425.0" y="715.0" type="curve" smooth="yes"/>
      <point x="580.4" y="715.0"/>
      <point x="641.6" y="585.8000000000001"/>
      <point x="583.4000000000001" y="352.6" type="curve" smooth="yes"/>
      <point x="580.4" y="339.4" type="line" smooth="yes"/>
      <point x="531.0" y="144.0"/>
      <point x="435.79999999999995" y="28.8"/>
      <point x="346.8" y="28.8" type="curve" smooth="yes"/>
      <point x="344.4" y="28.8" type="line" smooth="yes"/>
      <point x="278.8" y="28.8"/>
      <point x="258.0" y="110.2"/>
      <point x="285.6" y="221.8" type="curve" smooth="yes"/>
      <point x="310.79999999999995" y="321.8"/>
      <point x="332.79999999999995" y="377.79999999999995"/>
      <point x="360.0" y="427.0" type="curve" smooth="yes"/>
      <point x="374.6" y="453.40000000000003"/>
      <point x="391.40000000000003" y="478.20000000000005"/>
      <point x="413.0" y="506.0" type="curve"/>
      <point x="418.2" y="506.0" type="line" smooth="yes"/>
      <point x="450.2" y="506.0"/>
      <point x="455.59999999999997" y="487.2"/>
      <point x="442.59999999999997" y="434.4" type="curve" smooth="yes"/>
      <point x="423.8" y="360.59999999999997"/>
      <point x="398.79999999999995" y="259.0"/>
      <point x="376.99999999999994" y="173.6" type="curve" smooth="yes"/>
      <point x="367.99999999999994" y="137.2"/>
      <point x="364.6" y="113.2"/>
      <point x="367.2" y="87.0" type="curve"/>
      <point x="372.2" y="87.0" type="line"/>
      <point x="433.59999999999997" y="119.4"/>
      <point x="477.19999999999993" y="202.6"/>
      <point x="513.6" y="346.59999999999997" type="curve" smooth="yes"/>
      <point x="517.0000000000001" y="360.8" type="line" smooth="yes"/>
      <point x="540.2000000000002" y="454.2"/>
      <point x="545.6000000000001" y="526.8000000000001"/>
      <point x="532.1999999999999" y="591.8000000000001" type="curve" smooth="yes"/>
      <point x="502.2" y="621.1999999999999"/>
      <point x="461.0" y="634.4000000000001"/>
      <point x="411.8" y="634.4000000000001" type="curve"/>
      <point x="280.8" y="634.4000000000001"/>
      <point x="159.0" y="478.4"/>
      <point x="93.4" y="217.6" type="curve" smooth="yes"/>
      <point x="90.80000000000001" y="208.0" type="line" smooth="yes"/>
      <point x="67.80000000000003" y="112.99999999999999"/>
      <point x="62.59999999999999" y="32.99999999999999"/>
      <point x="81.19999999999999" y="-32.4" type="curve" smooth="yes"/>
      <point x="115.39999999999999" y="-63.199999999999996"/>
      <point x="156.2" y="-78.60000000000001"/>
      <point x="216.79999999999998" y="-80.4" type="curve"/>
      <point x="280.3999999999999" y="-81.60000000000001"/>
      <point x="346.8" y="-69.19999999999999"/>
      <point x="394.2" y="-40.00000000000001" type="curve"/>
      <point x="398.4" y="-41.2" type="line"/>
      <point x="397.40000000000003" y="-45.60000000000001" type="line" smooth="yes"/>
      <point x="390.8" y="-72.2"/>
      <point x="375.00000000000006" y="-97.80000000000001"/>
      <point x="348.4" y="-119.0" type="curve" smooth="yes"/>
      <point x="316.40000000000003" y="-144.6"/>
      <point x="264.3999999999999" y="-158.6"/>
      <point x="202.20000000000002" y="-158.6" type="curve"/>
      <point x="14.600000000000003" y="-158.6"/>
      <point x="-34.800000000000004" y="-19.599999999999998"/>
      <point x="23.4" y="214.2" type="curve" smooth="yes"/>
      <point x="26.4" y="226.4" type="line" smooth="yes"/>
      <point x="103.0" y="531.2"/>
      <point x="259.6" y="715.0"/>
    </contour>
    <contour>
      <point x="206.2" y="29.4" type="curve" smooth="yes"/>
      <point x="169.0" y="29.4"/>
      <point x="160.00000000000003" y="93.6"/>
      <point x="189.40000000000003" y="211.0" type="curve" smooth="yes"/>
      <point x="192.4" y="221.40000000000003" type="line" smooth="yes"/>
      <point x="237.4" y="401.8"/>
      <point x="306.59999999999997" y="513.4"/>
      <point x="346.79999999999995" y="513.4" type="curve" smooth="yes"/>
      <point x="369.4" y="513.4"/>
      <point x="376.79999999999995" y="495.8"/>
      <point x="371.2" y="453.8" type="curve"/>
      <point x="396.79999999999995" y="453.8" type="line"/>
      <point x="384.6" y="388.20000000000005" type="line"/>
      <point x="378.8" y="398.80000000000007"/>
      <point x="373.20000000000005" y="403.40000000000003"/>
      <point x="365.40000000000003" y="403.40000000000003" type="curve" smooth="yes"/>
      <point x="353.20000000000005" y="403.40000000000003"/>
      <point x="324.00000000000006" y="334.0"/>
      <point x="296.20000000000005" y="224.8" type="curve" smooth="yes"/>
      <point x="294.8" y="219.4" type="line" smooth="yes"/>
      <point x="285.4" y="182.60000000000002"/>
      <point x="282.40000000000003" y="155.60000000000002"/>
      <point x="282.6" y="134.8" type="curve"/>
      <point x="290.8" y="135.60000000000002"/>
      <point x="305.0" y="141.4"/>
      <point x="322.20000000000005" y="157.4" type="curve"/>
      <point x="304.79999999999995" y="88.0" type="line"/>
      <point x="271.2" y="88.0" type="line"/>
      <point x="247.2" y="45.8"/>
      <point x="227.39999999999998" y="29.4"/>
    </contour>
  </outline>
</glyph>
<glyph name="A" format="2">
  <advance width="600.0"/>
  <unicode hex="0041"/>
  <anchor x="416.619784217" y="710.6" name="top"/>
  <anchor x="414.81950556604" y="706.0" name="ring"/>
  <anchor x="499.8" y="0.0" name="ogonek"/>
  <anchor x="235.0" y="-1.0" name="bottom"/>
  <outline>
    <contour>
      <point x="35.400000000000006" y="281.2" type="line"/>
      <point x="29.999999999999993" y="261.40000000000003" type="line" smooth="yes"/>
      <point x="19.19999999999999" y="219.2"/>
      <point x="22.999999999999986" y="181.0"/>
      <point x="53.19999999999999" y="181.0" type="curve"/>
      <point x="419.6" y="181.0" type="line"/>
      <point x="419.59999999999997" y="253.60000000000002" type="line"/>
      <point x="405.40000000000003" y="251.2" type="line"/>
      <point x="391.2" y="270.0"/>
      <point x="368.59999999999997" y="281.2"/>
      <point x="333.6" y="281.2" type="curve"/>
    </contour>
    <contour>
      <point x="133.0" y="0.0" type="curve"/>
      <point x="145.8" y="204.79999999999998"/>
      <point x="237.80000000000004" y="443.6"/>
      <point x="408.00000000000006" y="635.6000000000001" type="curve"/>
      <point x="371.6" y="619.5999999999999" type="line"/>
      <point x="419.40000000000003" y="612.4" type="line"/>
      <point x="395.4" y="638.8" type="line"/>
      <point x="437.0" y="495.80000000000007"/>
      <point x="434.4" y="335.80000000000007"/>
      <point x="387.6000000000001" y="125.79999999999998" type="curve"/>
      <point x="365.2" y="21.799999999999997"/>
      <point x="393.2" y="-7.6"/>
      <point x="449.40000000000003" y="-7.6" type="curve"/>
      <point x="469.6" y="-7.6"/>
      <point x="482.59999999999997" y="-4.8"/>
      <point x="496.8" y="0.0" type="curve"/>
      <point x="493.00000000000006" y="39.19999999999999"/>
      <point x="496.00000000000006" y="74.80000000000001"/>
      <point x="505.2" y="122.4" type="curve" smooth="yes"/>
      <point x="542.2" y="312.4"/>
      <point x="548.6" y="486.2000000000001"/>
      <point x="514.0000000000001" y="607.8" type="curve"/>
      <point x="496.6" y="678.6"/>
      <point x="475.2" y="710.0"/>
      <point x="394.8" y="710.0" type="curve"/>
      <point x="376.2" y="710.0"/>
      <point x="359.2" y="706.8000000000001"/>
      <point x="343.0" y="703.0" type="curve"/>
      <point x="190.39999999999998" y="566.5999999999999"/>
      <point x="74.8" y="364.59999999999997"/>
      <point x="32.6" y="104.60000000000001" type="curve" smooth="yes"/>
      <point x="19.81914186312" y="28.51365481232"/>
      <point x="34.955" y="-7.2"/>
      <point x="88.80000000000001" y="-7.2" type="curve"/>
      <point x="103.2" y="-7.199999999999999"/>
      <point x="119.8" y="-4.4"/>
    </contour>
  </outline>
</glyph>
<glyph name="B" format="2">
  <advance width="600.0"/>
  <unicode hex="0042"/>
  <outline>
    <contour>
      <point x="208.20000000000005" y="-10.0" type="curve" smooth="yes"/>
      <point x="353.4" y="-10.0"/>
      <point x="470.8" y="49.6"/>
      <point x="501.2" y="171.39999999999998" type="curve" smooth="yes"/>
      <point x="503.40000000000003" y="180.2" type="line" smooth="yes"/>
      <point x="516.2" y="230.6"/>
      <point x="491.79999999999995" y="284.0"/>
      <point x="439.20000000000005" y="307.79999999999995" type="curve"/>
      <point x="439.20000000000005" y="327.8" type="line"/>
      <point x="221.99999999999997" y="329.0" type="line"/>
      <point x="222.0" y="315.40000000000003" type="line"/>
      <point x="291.5999999999999" y="315.40000000000003" type="line"/>
      <point x="372.0" y="296.2"/>
      <point x="411.8" y="257.8"/>
      <point x="396.20000000000005" y="196.2" type="curve" smooth="yes"/>
      <point x="393.8" y="186.60000000000002" type="line" smooth="yes"/>
      <point x="375.80000000000007" y="114.0"/>
      <point x="300.0" y="90.8"/>
      <point x="218.00000000000003" y="90.8" type="curve"/>
      <point x="182.39999999999995" y="90.8"/>
      <point x="165.2" y="95.2"/>
      <point x="144.20000000000002" y="107.4" type="curve"/>
      <point x="155.79999999999998" y="242.6"/>
      <point x="235.4" y="376.6000000000001"/>
      <point x="261.8" y="514.2" type="curve" smooth="yes"/>
      <point x="270.2" y="562.8000000000001"/>
      <point x="262.79999999999995" y="587.8000000000001"/>
      <point x="243.79999999999998" y="602.0" type="curve"/>
      <point x="253.00000000000006" y="619.8" type="line"/>
      <point x="180.79999999999998" y="617.8" type="line"/>
      <point x="152.6" y="433.6000000000001"/>
      <point x="59.2" y="285.8"/>
      <point x="39.4" y="126.0" type="curve"/>
      <point x="33.8" y="79.0"/>
      <point x="43.2" y="56.0"/>
      <point x="58.8" y="40.400000000000006" type="curve" smooth="yes"/>
      <point x="91.6" y="7.6"/>
      <point x="133.60000000000002" y="-10.0"/>
    </contour>
    <contour>
      <point x="135.4" y="700.0" type="curve"/>
      <point x="128.8" y="687.8"/>
      <point x="123.2" y="676.6"/>
      <point x="118.19999999999999" y="655.0" type="curve" smooth="yes"/>
      <point x="108.8" y="615.9999999999999"/>
      <point x="113.60000000000001" y="593.8"/>
      <point x="141.79999999999998" y="593.8" type="curve"/>
      <point x="162.17641446593998" y="593.8"/>
      <point x="246.53720961224" y="613.8"/>
      <point x="363.59999999999997" y="613.8" type="curve" smooth="yes"/>
      <point x="420.40000000000003" y="613.8"/>
      <point x="457.4" y="608.8"/>
      <point x="486.59999999999997" y="592.0" type="curve" smooth="yes"/>
      <point x="493.2" y="570.1999999999999"/>
      <point x="492.40000000000003" y="539.2"/>
      <point x="484.0" y="506.99999999999994" type="curve" smooth="yes"/>
      <point x="480.59999999999997" y="493.8" type="line" smooth="yes"/>
      <point x="458.15662152946" y="406.4264861179"/>
      <point x="376.38013245032" y="358.2"/>
      <point x="264.0" y="358.2" type="curve" smooth="yes"/>
      <point x="227.59999999999997" y="358.2"/>
      <point x="217.4" y="362.59999999999997"/>
      <point x="199.6" y="370.3999999999999" type="curve"/>
      <point x="170.4" y="296.8" type="line"/>
      <point x="199.2" y="302.40000000000003" type="line"/>
      <point x="211.8" y="284.40000000000003"/>
      <point x="227.8" y="274.40000000000003"/>
      <point x="262.00000000000006" y="274.40000000000003" type="curve"/>
      <point x="421.62352941174" y="274.40000000000003"/>
      <point x="555.4234560415599" y="357.78209614533995"/>
      <point x="591.6" y="491.8" type="curve" smooth="yes"/>
      <point x="594.4" y="502.4000000000001" type="line" smooth="yes"/>
      <point x="618.8" y="593.8"/>
      <point x="577.1999999999999" y="720.0"/>
      <point x="377.6" y="720.0" type="curve" smooth="yes"/>
      <point x="303.6" y="720.0"/>
      <point x="228.8" y="714.6"/>
    </contour>
  </outline>
</glyph>
<glyph name="C" format="2">
  <advance width="600.0"/>
  <unicode hex="0043"/>
  <anchor x="260.09969348396" y="-4.4" name="bottom"/>
  <anchor x="434.7995302052" y="711.0" name="top"/>
  <outline>
    <contour>
      <point x="291.4" y="-20.0" type="curve"/>
      <point x="362.4" y="-20.0"/>
      <point x="422.79999999999995" y="1.6"/>
      <point x="454.19999999999993" y="33.00000000000001" type="curve" smooth="yes"/>
      <point x="481.8" y="60.599999999999994"/>
      <point x="495.0" y="82.80000000000001"/>
      <point x="505.59999999999997" y="128.40000000000003" type="curve"/>
      <point x="509.40000000000003" y="145.8"/>
      <point x="511.20000000000005" y="163.99999999999997"/>
      <point x="510.8" y="179.2" type="curve"/>
      <point x="504.79999999999995" y="179.2" type="line"/>
      <point x="446.8" y="114.0"/>
      <point x="372.8" y="86.2"/>
      <point x="300.59999999999997" y="86.2" type="curve"/>
      <point x="236.39999999999995" y="86.2"/>
      <point x="196.79999999999998" y="106.8"/>
      <point x="172.4" y="131.00000000000003" type="curve"/>
      <point x="164.2" y="187.20000000000002"/>
      <point x="172.20000000000002" y="234.8"/>
      <point x="184.00000000000003" y="281.0" type="curve"/>
      <point x="189.40000000000003" y="302.4" type="line"/>
      <point x="240.00000000000006" y="503.6"/>
      <point x="340.8" y="619.1999999999999"/>
      <point x="450.00000000000006" y="619.1999999999999" type="curve"/>
      <point x="484.99999999999994" y="619.1999999999999"/>
      <point x="508.40000000000003" y="609.8"/>
      <point x="523.6" y="589.0" type="curve"/>
      <point x="523.6" y="631.8" type="line"/>
      <point x="498.79999999999995" y="570.1999999999999"/>
      <point x="475.2" y="534.8000000000001"/>
      <point x="462.40000000000003" y="486.8" type="curve"/>
      <point x="451.0" y="442.0"/>
      <point x="469.4" y="413.2"/>
      <point x="515.1999999999999" y="413.2" type="curve"/>
      <point x="533.4" y="413.2"/>
      <point x="549.4" y="416.0"/>
      <point x="564.1999999999999" y="422.20000000000005" type="curve"/>
      <point x="568.6" y="465.0"/>
      <point x="579.4" y="490.20000000000005"/>
      <point x="593.8" y="540.6" type="curve"/>
      <point x="606.8" y="583.8000000000001"/>
      <point x="603.4" y="642.8"/>
      <point x="566.0000000000001" y="680.2" type="curve" smooth="yes"/>
      <point x="541.6000000000001" y="704.5999999999999"/>
      <point x="504.2000000000001" y="720.0"/>
      <point x="453.0" y="720.0" type="curve"/>
      <point x="274.59999999999997" y="720.0"/>
      <point x="146.2" y="573.4"/>
      <point x="79.19999999999999" y="318.20000000000005" type="curve"/>
      <point x="72.2" y="291.4" type="line"/>
      <point x="27.800000000000004" y="122.19999999999999"/>
      <point x="95.39999999999999" y="-20.0"/>
    </contour>
  </outline>
</glyph>
<glyph name="D" format="2">
  <advance width="600.0"/>
  <unicode hex="0044"/>
  <anchor x="398.7995302052" y="711.0" name="top"/>
  <outline>
    <contour>
      <point x="568.1999999999999" y="347.2" type="curve" smooth="yes"/>
      <point x="576.0" y="378.79999999999995" type="line" smooth="yes"/>
      <point x="626.0" y="584.8000000000001"/>
      <point x="558.6" y="720.0"/>
      <point x="358.2" y="720.0" type="curve" smooth="yes"/>
      <point x="286.8" y="720.0"/>
      <point x="217.71530256676002" y="713.04561631742"/>
      <point x="138.8" y="700.0" type="curve"/>
      <point x="131.79999999999998" y="687.8000000000001"/>
      <point x="126.20000000000002" y="676.0"/>
      <point x="121.8" y="658.5999999999999" type="curve" smooth="yes"/>
      <point x="111.2" y="616.0"/>
      <point x="117.2" y="593.8"/>
      <point x="141.79999999999998" y="593.8" type="curve" smooth="yes"/>
      <point x="162.00000000000003" y="593.8"/>
      <point x="246.8" y="613.8"/>
      <point x="353.6" y="613.8" type="curve"/>
      <point x="406.20000000000005" y="613.8"/>
      <point x="443.4" y="604.4"/>
      <point x="476.40000000000003" y="582.0" type="curve" smooth="yes"/>
      <point x="485.0" y="526.6"/>
      <point x="483.0" y="476.2"/>
      <point x="460.4" y="385.79999999999995" type="curve" smooth="yes"/>
      <point x="456.2" y="369.00000000000006" type="line" smooth="yes"/>
      <point x="408.83203159362" y="179.5281263746"/>
      <point x="312.0" y="93.2"/>
      <point x="207.4" y="93.2" type="curve"/>
      <point x="181.76363636361998" y="93.2"/>
      <point x="163.47892366457998" y="96.38671188472"/>
      <point x="145.2" y="103.4" type="curve"/>
      <point x="157.0" y="241.8"/>
      <point x="241.4" y="373.2"/>
      <point x="260.8" y="510.8" type="curve" smooth="yes"/>
      <point x="267.58696728114" y="557.91854550738"/>
      <point x="262.83514552950004" y="586.18242723522"/>
      <point x="242.39999999999998" y="602.1999999999999" type="curve" smooth="yes"/>
      <point x="251.99999999999997" y="619.4" type="line"/>
      <point x="173.6" y="617.4" type="line"/>
      <point x="157.5727445332" y="432.78195626547995"/>
      <point x="60.02582311428" y="286.41473958204"/>
      <point x="38.199999999999996" y="125.4" type="curve" smooth="yes"/>
      <point x="32.199999999999996" y="80.80000000000001"/>
      <point x="40.97220894544" y="54.22779105456"/>
      <point x="61.0" y="34.2" type="curve" smooth="yes"/>
      <point x="87.70923391968002" y="7.49076608032"/>
      <point x="133.8" y="-10.0"/>
      <point x="195.60000000000002" y="-10.0" type="curve" smooth="yes"/>
      <point x="374.4" y="-10.0"/>
      <point x="509.8" y="115.40000000000003"/>
    </contour>
  </outline>
</glyph>
<glyph name="E" format="2">
  <advance width="600.0"/>
  <unicode hex="0045"/>
  <anchor x="410.74957200288003" y="711.6" name="top"/>
  <anchor x="468.00000000000006" y="0.0" name="ogonek"/>
  <anchor x="259.3499303373" y="-1.0" name="bottom"/>
  <outline>
    <contour>
      <point x="142.20000000000002" y="700.0" type="line"/>
      <point x="137.39999999999998" y="690.6000000000001"/>
      <point x="133.20000000000002" y="681.1999999999999"/>
      <point x="128.79999999999998" y="665.2" type="curve" smooth="yes"/>
      <point x="119.0" y="628.6"/>
      <point x="125.2" y="593.8000000000001"/>
      <point x="151.4" y="593.8000000000001" type="curve" smooth="yes"/>
      <point x="609.6" y="593.8000000000001" type="line"/>
      <point x="616.4" y="604.1999999999999"/>
      <point x="623.0" y="617.6000000000001"/>
      <point x="626.8" y="633.0" type="curve" smooth="yes"/>
      <point x="636.1999999999999" y="670.4"/>
      <point x="623.1999999999999" y="700.0"/>
      <point x="583.0" y="700.0" type="curve" smooth="yes"/>
    </contour>
    <contour>
      <point x="190.4" y="380.0" type="line"/>
      <point x="167.0" y="285.8" type="line"/>
      <point x="475.6" y="285.8" type="line"/>
      <point x="478.59999999999997" y="290.99999999999994"/>
      <point x="481.2" y="296.59999999999997"/>
      <point x="483.40000000000003" y="306.2" type="curve" smooth="yes"/>
      <point x="491.40000000000003" y="340.4"/>
      <point x="478.4" y="380.0"/>
      <point x="439.40000000000003" y="380.0" type="curve" smooth="yes"/>
    </contour>
    <contour>
      <point x="147.8" y="0.0" type="curve" smooth="yes"/>
      <point x="465.0" y="0.0" type="line"/>
      <point x="471.0" y="11.0"/>
      <point x="476.00000000000006" y="24.999999999999993"/>
      <point x="480.0" y="41.199999999999996" type="curve" smooth="yes"/>
      <point x="490.20000000000005" y="86.39999999999999"/>
      <point x="473.59999999999997" y="106.2"/>
      <point x="434.8" y="106.2" type="curve" smooth="yes"/>
      <point x="150.2" y="106.2" type="line"/>
      <point x="158.4" y="237.2"/>
      <point x="240.79999999999998" y="373.2"/>
      <point x="266.8" y="508.4" type="curve" smooth="yes"/>
      <point x="274.40000000000003" y="548.9999999999999"/>
      <point x="270.0" y="573.8"/>
      <point x="249.60000000000005" y="588.8" type="curve"/>
      <point x="267.2" y="620.6000000000001" type="line"/>
      <point x="186.4" y="617.4000000000001" type="line"/>
      <point x="161.60000000000002" y="435.2"/>
      <point x="58.99999999999999" y="276.20000000000005"/>
      <point x="43.4" y="109.60000000000001" type="curve" smooth="yes"/>
      <point x="35.4" y="30.6"/>
      <point x="94.0" y="0.0"/>
    </contour>
  </outline>
</glyph>
<glyph name="F" format="2">
  <advance width="600.0"/>
  <unicode hex="0046"/>
  <outline>
    <contour>
      <point x="180.33333333333331" y="0.0" type="curve"/>
      <point x="175.33333333333331" y="28.333333333333336"/>
      <point x="175.66666666666666" y="62.666666666666664"/>
      <point x="180.0" y="95.33333333333333" type="curve"/>
      <point x="200.0" y="231.33333333333334"/>
      <point x="273.0" y="361.33333333333337"/>
      <point x="294.6666666666667" y="493.6666666666667" type="curve"/>
      <point x="301.6666666666667" y="536.0"/>
      <point x="295.3333333333333" y="564.6666666666666"/>
      <point x="280.3333333333333" y="582.6666666666666" type="curve"/>
      <point x="298.0" y="615.6666666666666" type="line"/>
      <point x="201.66666666666666" y="612.3333333333334" type="line"/>
      <point x="174.33333333333334" y="411.0"/>
      <point x="80.33333333333334" y="271.6666666666667"/>
      <point x="59.333333333333336" y="104.0" type="curve" smooth="yes"/>
      <point x="51.0" y="38.0"/>
      <point x="69.0" y="-7.333333333333333"/>
      <point x="134.66666666666666" y="-7.333333333333333" type="curve" smooth="yes"/>
      <point x="150.33333333333331" y="-7.333333333333333"/>
      <point x="166.66666666666666" y="-5.333333333333333"/>
    </contour>
    <contour>
      <point x="150.66666666666666" y="700.0" type="line"/>
      <point x="143.66666666666666" y="690.0"/>
      <point x="138.0" y="680.0"/>
      <point x="133.33333333333334" y="663.0" type="curve"/>
      <point x="121.66666666666666" y="620.3333333333334"/>
      <point x="137.33333333333334" y="587.3333333333334"/>
      <point x="176.33333333333334" y="587.3333333333334" type="curve"/>
      <point x="613.6666666666666" y="587.3333333333334" type="line"/>
      <point x="620.6666666666666" y="598.3333333333334"/>
      <point x="627.6666666666666" y="612.6666666666666"/>
      <point x="631.6666666666666" y="629.0" type="curve" smooth="yes"/>
      <point x="641.6666666666666" y="668.6666666666666"/>
      <point x="627.6666666666666" y="700.0"/>
      <point x="586.0" y="700.0" type="curve"/>
    </contour>
    <contour>
      <point x="200.33333333333334" y="333.3333333333333" type="line"/>
      <point x="166.33333333333331" y="227.33333333333334" type="line"/>
      <point x="479.0" y="227.33333333333334" type="line"/>
      <point x="484.0" y="235.33333333333334"/>
      <point x="488.0" y="245.0"/>
      <point x="491.0" y="259.0" type="curve"/>
      <point x="499.6666666666667" y="298.0"/>
      <point x="489.6666666666667" y="333.3333333333333"/>
      <point x="437.6666666666667" y="333.3333333333333" type="curve"/>
    </contour>
  </outline>
</glyph>
<glyph name="G" format="2">
  <advance width="600.0"/>
  <unicode hex="0047"/>
  <anchor x="424.59953020520004" y="711.0" name="top"/>
  <anchor x="246.5499303373" y="-1.0" name="bottom"/>
  <outline>
    <contour>
      <point x="323.2" y="332.2" type="line"/>
      <point x="319.0" y="325.2"/>
      <point x="316.4265041382" y="319.35902482919994"/>
      <point x="314.20000000000005" y="309.0" type="curve" smooth="yes"/>
      <point x="305.23546564132" y="268.02461572847994"/>
      <point x="322.36470588236006" y="235.6"/>
      <point x="408.6" y="235.6" type="curve" smooth="yes"/>
      <point x="560.6" y="235.6" type="line"/>
      <point x="565.4000000000001" y="254.8" type="line" smooth="yes"/>
      <point x="579.5939071494402" y="311.57562859779995"/>
      <point x="570.8000000000001" y="332.2"/>
      <point x="531.6000000000001" y="332.2" type="curve"/>
    </contour>
    <contour>
      <point x="444.0" y="720.0" type="curve"/>
      <point x="284.0" y="720.0"/>
      <point x="141.98969306901998" y="589.55877227614"/>
      <point x="76.8" y="334.4" type="curve" smooth="yes"/>
      <point x="71.8" y="314.8" type="line" smooth="yes"/>
      <point x="23.6" y="122.00000000000001"/>
      <point x="95.2" y="-20.0"/>
      <point x="280.3999999999999" y="-20.0" type="curve"/>
      <point x="342.8" y="-20.0"/>
      <point x="400.0" y="-0.39999999999999825"/>
      <point x="441.99999999999994" y="37.400000000000006" type="curve" smooth="yes"/>
      <point x="478.00000000000006" y="69.2"/>
      <point x="498.20000000000005" y="107.19999999999999"/>
      <point x="508.80000000000007" y="151.79999999999998" type="curve"/>
      <point x="515.8000000000001" y="182.2"/>
      <point x="512.8" y="214.8"/>
      <point x="501.6000000000001" y="230.6" type="curve"/>
      <point x="517.4" y="262.0" type="line"/>
      <point x="444.0" y="262.0" type="line"/>
      <point x="445.59999999999997" y="242.4"/>
      <point x="442.2" y="221.4"/>
      <point x="436.59999999999997" y="200.20000000000002" type="curve"/>
      <point x="415.99999999999994" y="129.79999999999998"/>
      <point x="358.0" y="86.2"/>
      <point x="284.0" y="86.2" type="curve"/>
      <point x="220.2" y="86.2"/>
      <point x="178.60000000000002" y="109.20000000000002"/>
      <point x="163.20000000000002" y="160.20000000000002" type="curve" smooth="yes"/>
      <point x="159.99999999999997" y="192.79999999999998"/>
      <point x="163.6" y="239.8"/>
      <point x="173.20000000000002" y="279.2" type="curve" smooth="yes"/>
      <point x="177.8" y="298.2" type="line" smooth="yes"/>
      <point x="229.03033493868" y="508.48740674248006"/>
      <point x="332.0" y="619.1999999999999"/>
      <point x="444.20000000000005" y="619.1999999999999" type="curve"/>
      <point x="483.6" y="619.1999999999999"/>
      <point x="505.4" y="608.4000000000001"/>
      <point x="521.4" y="583.2" type="curve"/>
      <point x="529.5999999999999" y="635.8000000000001" type="line"/>
      <point x="509.6000000000001" y="591.2000000000002"/>
      <point x="484.8" y="558.8000000000001"/>
      <point x="472.0" y="512.0" type="curve"/>
      <point x="461.8" y="472.0"/>
      <point x="478.4" y="446.8"/>
      <point x="526.0" y="446.8" type="curve"/>
      <point x="541.2" y="446.8"/>
      <point x="554.8" y="449.6"/>
      <point x="567.8" y="455.2" type="curve"/>
      <point x="572.1999999999999" y="498.4"/>
      <point x="581.8" y="520.4"/>
      <point x="592.0" y="565.2" type="curve"/>
      <point x="602.0" y="605.5999999999999"/>
      <point x="593.8" y="648.1999999999999"/>
      <point x="565.4" y="676.5999999999999" type="curve" smooth="yes"/>
      <point x="539.8000000000001" y="702.1999999999999"/>
      <point x="503.2" y="720.0"/>
    </contour>
  </outline>
</glyph>
<glyph name="H" format="2">
  <advance width="600.0"/>
  <unicode hex="0048"/>
  <anchor x="397.39953020520005" y="711.0" name="top"/>
  <outline>
    <contour>
      <point x="187.00000000000003" y="700.4" type="curve"/>
      <point x="189.8" y="666.0"/>
      <point x="186.79999999999998" y="629.5999999999999"/>
      <point x="179.0" y="590.6" type="curve" smooth="yes"/>
      <point x="145.0" y="415.79999999999995"/>
      <point x="66.0" y="278.6"/>
      <point x="44.4" y="125.6" type="curve" smooth="yes"/>
      <point x="30.4" y="29.2"/>
      <point x="55.199999999999996" y="-6.8"/>
      <point x="105.6" y="-6.8" type="curve"/>
      <point x="119.8" y="-6.8"/>
      <point x="133.6" y="-4.2"/>
      <point x="145.00000000000003" y="0.0" type="curve"/>
      <point x="143.40000000000003" y="226.6"/>
      <point x="250.00000000000003" y="378.6"/>
      <point x="286.6" y="580.2" type="curve" smooth="yes"/>
      <point x="303.0" y="669.8"/>
      <point x="288.6" y="707.5999999999999"/>
      <point x="233.20000000000002" y="707.5999999999999" type="curve"/>
      <point x="217.4" y="707.5999999999999"/>
      <point x="204.20000000000002" y="705.6"/>
    </contour>
    <contour>
      <point x="55.000000000000014" y="357.0" type="line"/>
      <point x="49.600000000000016" y="337.2" type="line" smooth="yes"/>
      <point x="38.000000000000014" y="290.4"/>
      <point x="44.80000000000002" y="250.8"/>
      <point x="80.80000000000001" y="250.8" type="curve"/>
      <point x="427.0" y="250.8" type="line"/>
      <point x="443.8" y="332.4" type="line"/>
      <point x="418.8" y="327.0" type="line"/>
      <point x="404.59999999999997" y="345.79999999999995"/>
      <point x="383.2" y="357.0"/>
      <point x="348.2" y="357.0" type="curve"/>
    </contour>
    <contour>
      <point x="478.40000000000003" y="0.0" type="curve"/>
      <point x="471.40000000000003" y="35.0"/>
      <point x="472.4" y="69.6"/>
      <point x="479.6" y="111.0" type="curve"/>
      <point x="508.8016366014" y="281.8108670332"/>
      <point x="581.79346255496" y="415.57229368523997"/>
      <point x="611.1999999999999" y="569.0" type="curve"/>
      <point x="626.0" y="645.0"/>
      <point x="625.2" y="706.8"/>
      <point x="555.2" y="706.8" type="curve"/>
      <point x="538.8" y="706.8"/>
      <point x="527.6" y="704.8"/>
      <point x="509.6" y="700.6" type="curve"/>
      <point x="516.2" y="506.2"/>
      <point x="388.2" y="299.6"/>
      <point x="365.8" y="104.39999999999999" type="curve" smooth="yes"/>
      <point x="356.59999999999997" y="24.2"/>
      <point x="387.40000000000003" y="-7.2"/>
      <point x="429.0" y="-7.2" type="curve"/>
      <point x="447.79999999999995" y="-7.2"/>
      <point x="465.8" y="-4.6"/>
    </contour>
  </outline>
</glyph>
<glyph name="I" format="2">
  <advance width="600.0"/>
  <unicode hex="0049"/>
  <anchor x="412.51981208208" y="711.6" name="top"/>
  <anchor x="476.4" y="2.0" name="ogonek"/>
  <anchor x="234.49997213492" y="-1.0" name="bottom"/>
  <outline>
    <contour>
      <point x="309.2" y="84.0" type="line"/>
      <point x="320.59999999999997" y="246.2"/>
      <point x="390.6" y="351.20000000000005"/>
      <point x="422.6" y="496.0" type="curve"/>
      <point x="433.4" y="543.8"/>
      <point x="424.8" y="571.6000000000001"/>
      <point x="404.2" y="588.8" type="curve"/>
      <point x="421.6" y="620.0" type="line"/>
      <point x="337.4" y="616.0" type="line"/>
      <point x="319.8" y="460.8"/>
      <point x="246.4" y="346.40000000000003"/>
      <point x="220.4" y="202.8" type="curve"/>
      <point x="211.20000000000002" y="154.79999999999998"/>
      <point x="221.2" y="128.8"/>
      <point x="241.59999999999997" y="111.60000000000001" type="curve"/>
      <point x="225.4" y="80.4" type="line"/>
    </contour>
    <contour>
      <point x="472.6" y="0.0" type="line"/>
      <point x="478.59999999999997" y="8.8"/>
      <point x="483.4" y="18.4"/>
      <point x="487.2" y="33.199999999999996" type="curve" smooth="yes"/>
      <point x="498.2" y="73.6"/>
      <point x="481.0" y="106.2"/>
      <point x="415.59999999999997" y="106.2" type="curve"/>
      <point x="20.999999999999996" y="106.2" type="line"/>
      <point x="14.8" y="95.0"/>
      <point x="8.2" y="79.79999999999998"/>
      <point x="4.199999999999999" y="63.400000000000006" type="curve" smooth="yes"/>
      <point x="-5.000000000000001" y="26.2"/>
      <point x="6.6000000000000005" y="0.0"/>
      <point x="43.6" y="0.0" type="curve"/>
    </contour>
    <contour>
      <point x="168.0" y="700.0" type="line"/>
      <point x="162.0" y="691.1999999999999"/>
      <point x="157.20000000000002" y="681.6"/>
      <point x="153.4" y="666.8000000000001" type="curve"/>
      <point x="142.4" y="626.4000000000001"/>
      <point x="159.60000000000002" y="593.8000000000001"/>
      <point x="225.00000000000003" y="593.8000000000001" type="curve"/>
      <point x="619.6" y="593.8000000000001" type="line"/>
      <point x="625.8" y="605.0"/>
      <point x="632.4" y="620.1999999999999"/>
      <point x="636.4" y="636.6" type="curve" smooth="yes"/>
      <point x="645.5999999999999" y="673.8000000000001"/>
      <point x="634.0" y="700.0"/>
      <point x="597.0" y="700.0" type="curve"/>
    </contour>
  </outline>
</glyph>
<glyph name="J" format="2">
  <advance width="600.0"/>
  <unicode hex="004A"/>
  <anchor x="410.7995302052" y="711.0" name="top"/>
  <outline>
    <contour>
      <point x="234.33333333333334" y="92.0" type="curve" smooth="yes"/>
      <point x="166.0" y="92.0"/>
      <point x="122.0" y="107.33333333333333"/>
      <point x="77.66666666666667" y="146.0" type="curve"/>
      <point x="72.33333333333333" y="146.0" type="line"/>
      <point x="64.33333333333333" y="133.66666666666666"/>
      <point x="57.333333333333336" y="122.0"/>
      <point x="51.33333333333333" y="98.33333333333333" type="curve"/>
      <point x="42.0" y="62.666666666666664"/>
      <point x="49.666666666666664" y="37.33333333333333"/>
      <point x="66.33333333333333" y="20.666666666666664" type="curve"/>
      <point x="93.0" y="-6.0"/>
      <point x="134.33333333333334" y="-20.0"/>
      <point x="216.33333333333334" y="-20.0" type="curve"/>
      <point x="358.3333333333333" y="-20.0"/>
      <point x="441.3333333333333" y="67.33333333333333"/>
      <point x="486.3333333333333" y="185.33333333333334" type="curve"/>
      <point x="541.0" y="329.6666666666667"/>
      <point x="535.0" y="470.6666666666667"/>
      <point x="600.3333333333334" y="635.6666666666666" type="curve" smooth="yes"/>
      <point x="619.6666666666666" y="684.0"/>
      <point x="585.6666666666666" y="710.0"/>
      <point x="507.6666666666667" y="710.0" type="curve" smooth="yes"/>
      <point x="418.6666666666667" y="710.0"/>
      <point x="341.0" y="706.6666666666666"/>
      <point x="243.33333333333334" y="700.0" type="curve"/>
      <point x="236.9673076038" y="688.4956194958"/>
      <point x="230.33333333333334" y="670.3333333333334"/>
      <point x="226.66666666666666" y="650.0" type="curve" smooth="yes"/>
      <point x="218.66666666666669" y="603.6666666666666"/>
      <point x="232.0" y="576.3333333333334"/>
      <point x="274.6666666666667" y="576.3333333333334" type="curve"/>
      <point x="331.3333333333333" y="576.3333333333334"/>
      <point x="392.0" y="590.6666666666666"/>
      <point x="498.0" y="614.0" type="curve"/>
      <point x="448.33333333333337" y="617.3333333333334" type="line"/>
      <point x="488.6666666666667" y="588.6666666666666" type="line"/>
      <point x="482.0" y="628.6666666666666" type="line"/>
      <point x="418.33333333333337" y="456.6666666666667"/>
      <point x="417.0" y="334.6666666666667"/>
      <point x="375.6666666666667" y="212.0" type="curve"/>
      <point x="360.0" y="164.66666666666666"/>
      <point x="349.0" y="141.0"/>
      <point x="326.0" y="110.66666666666666" type="curve" smooth="yes"/>
      <point x="298.6666666666667" y="98.0"/>
      <point x="269.3333333333333" y="92.0"/>
    </contour>
  </outline>
</glyph>
<glyph name="K" format="2">
  <advance width="600.0"/>
  <unicode hex="004B"/>
  <anchor x="256.5499303373" y="-1.0" name="bottom"/>
  <outline>
    <contour>
      <point x="369.8" y="369.2" type="curve"/>
      <point x="265.0" y="286.4" type="line"/>
      <point x="286.6" y="274.4" type="line"/>
      <point x="291.40000000000003" y="195.0"/>
      <point x="307.19999999999993" y="119.60000000000002"/>
      <point x="340.4" y="54.99999999999999" type="curve" smooth="yes"/>
      <point x="361.2" y="5.399999999999999"/>
      <point x="389.79999999999995" y="-20.0"/>
      <point x="434.20000000000005" y="-20.0" type="curve" smooth="yes"/>
      <point x="458.79999999999995" y="-20.0"/>
      <point x="475.00000000000006" y="-13.399999999999999"/>
      <point x="488.2" y="-0.20000000000000107" type="curve" smooth="yes"/>
      <point x="501.00000000000006" y="12.6"/>
      <point x="509.8" y="31.400000000000002"/>
      <point x="515.8" y="54.4" type="curve" smooth="yes"/>
      <point x="522.4" y="78.59999999999998"/>
      <point x="523.0" y="95.8"/>
      <point x="521.9999999999999" y="112.00000000000001" type="curve"/>
      <point x="516.8" y="112.00000000000001" type="line"/>
      <point x="505.20000000000005" y="101.8"/>
      <point x="496.2" y="98.60000000000001"/>
      <point x="477.6" y="98.60000000000001" type="curve"/>
      <point x="452.2" y="98.60000000000001"/>
      <point x="436.20000000000005" y="113.99999999999999"/>
      <point x="423.59999999999997" y="145.6" type="curve" smooth="yes"/>
      <point x="394.59999999999997" y="207.99999999999997"/>
      <point x="379.99999999999994" y="268.59999999999997"/>
    </contour>
    <contour>
      <point x="565.2" y="710.0" type="curve"/>
      <point x="545.2" y="710.0" type="line"/>
      <point x="510.2" y="619.4"/>
      <point x="454.6" y="539.2"/>
      <point x="397.2" y="479.2" type="curve" smooth="yes"/>
      <point x="338.40000000000003" y="417.99999999999994"/>
      <point x="282.6" y="374.4"/>
      <point x="218.20000000000005" y="336.0" type="curve"/>
      <point x="190.4" y="359.2" type="line"/>
      <point x="151.0" y="226.79999999999998" type="line"/>
      <point x="298.8" y="263.8"/>
      <point x="490.40000000000003" y="392.8"/>
      <point x="581.9999999999999" y="528.0" type="curve" smooth="yes"/>
      <point x="627.3999999999999" y="593.8000000000001"/>
      <point x="640.4" y="626.0"/>
      <point x="648.5999999999999" y="655.8" type="curve" smooth="yes"/>
      <point x="657.4" y="689.1999999999999"/>
      <point x="628.8000000000001" y="710.0"/>
    </contour>
    <contour>
      <point x="185.00000000000003" y="700.4" type="curve"/>
      <point x="187.79999999999998" y="666.0"/>
      <point x="184.79999999999998" y="629.5999999999999"/>
      <point x="177.0" y="590.6" type="curve" smooth="yes"/>
      <point x="143.0" y="415.79999999999995"/>
      <point x="64.0" y="278.6"/>
      <point x="42.4" y="125.6" type="curve" smooth="yes"/>
      <point x="28.400000000000002" y="29.2"/>
      <point x="53.199999999999996" y="-6.800000000000001"/>
      <point x="103.6" y="-6.800000000000001" type="curve"/>
      <point x="117.80000000000001" y="-6.800000000000001"/>
      <point x="131.60000000000002" y="-4.199999999999999"/>
      <point x="143.0" y="0.0" type="curve"/>
      <point x="141.4" y="226.6"/>
      <point x="248.0" y="378.6"/>
      <point x="284.6" y="580.2" type="curve" smooth="yes"/>
      <point x="301.0" y="669.8000000000001"/>
      <point x="286.59999999999997" y="707.5999999999999"/>
      <point x="231.20000000000002" y="707.5999999999999" type="curve"/>
      <point x="215.4" y="707.5999999999999"/>
      <point x="202.20000000000002" y="705.6"/>
    </contour>
  </outline>
</glyph>
<glyph name="L" format="2">
  <advance width="600.0"/>
  <unicode hex="004C"/>
  <anchor x="249.7995302052" y="711.0" name="top"/>
  <anchor x="240.08326367063333" y="-1.0" name="bottom"/>
  <anchor x="448.3426216981333" y="450.0" name="dot"/>
  <anchor x="488.8716478380333" y="550.0" name="caronslovak"/>
  <outline>
    <contour>
      <point x="169.33333333333331" y="0.0" type="curve" smooth="yes"/>
      <point x="442.0" y="0.0" type="line"/>
      <point x="466.32476375913336" y="55.20793959856666"/>
      <point x="464.6666666666667" y="112.66666666666666"/>
      <point x="410.6666666666667" y="112.66666666666666" type="curve" smooth="yes"/>
      <point x="162.33333333333331" y="112.66666666666666" type="line"/>
      <point x="175.33333333333331" y="262.0"/>
      <point x="265.4622925333333" y="412.46026174366665"/>
      <point x="295.0" y="580.0" type="curve" smooth="yes"/>
      <point x="309.5123750083333" y="658.7271442800667"/>
      <point x="299.7592592592666" y="707.6666666666666"/>
      <point x="235.33333333333331" y="707.6666666666666" type="curve" smooth="yes"/>
      <point x="218.5" y="707.6666666666666"/>
      <point x="202.33234692753334" y="706.1997369584667"/>
      <point x="183.0" y="700.3333333333334" type="curve"/>
      <point x="187.0" y="667.3333333333334"/>
      <point x="186.66666666666666" y="628.6666666666666"/>
      <point x="178.66666666666666" y="588.6666666666666" type="curve" smooth="yes"/>
      <point x="148.80757369533333" y="438.45217051726667"/>
      <point x="83.0" y="314.0"/>
      <point x="52.33333333333333" y="162.33333333333331" type="curve" smooth="yes"/>
      <point x="35.0" y="78.33333333333333"/>
      <point x="88.0" y="0.0"/>
    </contour>
    <contour>
      <point x="426.3333333333333" y="213.0" type="curve"/>
      <point x="415.0" y="103.33333333333334"/>
      <point x="369.33333333333337" y="45.66666666666667"/>
      <point x="357.0" y="-2.6666666666666714" type="curve" smooth="yes"/>
      <point x="351.0" y="-25.33333333333333"/>
      <point x="361.6666666666667" y="-37.666666666666664"/>
      <point x="433.6666666666667" y="-37.666666666666664" type="curve"/>
      <point x="477.0" y="17.666666666666668"/>
      <point x="505.6666666666667" y="75.0"/>
      <point x="524.0" y="146.33333333333331" type="curve" smooth="yes"/>
      <point x="533.0" y="183.0"/>
      <point x="521.0" y="217.0"/>
      <point x="469.0" y="217.0" type="curve" smooth="yes"/>
      <point x="452.6666666666667" y="217.0"/>
      <point x="438.0" y="215.66666666666666"/>
    </contour>
  </outline>
</glyph>
<glyph name="M" format="2">
  <advance width="600.0"/>
  <unicode hex="004D"/>
  <outline>
    <contour>
      <point x="126.99999999999999" y="0.0" type="curve"/>
      <point x="124.20000000000002" y="69.6"/>
      <point x="133.0" y="130.2"/>
      <point x="149.0" y="198.39999999999998" type="curve"/>
      <point x="175.6" y="312.0"/>
      <point x="216.6" y="421.20000000000005"/>
      <point x="229.8" y="562.0" type="curve"/>
      <point x="203.20000000000002" y="522.6" type="line"/>
      <point x="252.2" y="530.4" type="line"/>
      <point x="233.4" y="563.0000000000001" type="line"/>
      <point x="225.4" y="384.0"/>
      <point x="244.0" y="271.0"/>
      <point x="276.0" y="229.99999999999997" type="curve" smooth="yes"/>
      <point x="279.4" y="225.6"/>
      <point x="283.79999999999995" y="222.99999999999997"/>
      <point x="290.2" y="222.99999999999997" type="curve" smooth="yes"/>
      <point x="293.2" y="222.99999999999997"/>
      <point x="296.2" y="223.59999999999997"/>
      <point x="298.6" y="224.2" type="curve"/>
      <point x="365.8" y="274.8"/>
      <point x="454.79999999999995" y="401.0"/>
      <point x="527.4" y="559.1999999999999" type="curve"/>
      <point x="487.20000000000005" y="532.2" type="line"/>
      <point x="540.0" y="522.0" type="line"/>
      <point x="525.2" y="552.6" type="line"/>
      <point x="493.02124074486" y="414.72468725827997"/>
      <point x="444.51362299072" y="318.70299464182"/>
      <point x="419.0" y="242.79999999999998" type="curve"/>
      <point x="398.59999999999997" y="182.4"/>
      <point x="387.0" y="136.39999999999998"/>
      <point x="382.6" y="90.99999999999999" type="curve" smooth="yes"/>
      <point x="376.270221564" y="19.44265876824"/>
      <point x="402.03999999998" y="-6.800000000000001"/>
      <point x="448.5999999999999" y="-6.800000000000001" type="curve"/>
      <point x="463.59999999999997" y="-6.800000000000001"/>
      <point x="478.8" y="-3.7999999999999994"/>
      <point x="489.4" y="0.0" type="curve"/>
      <point x="483.6" y="32.0"/>
      <point x="484.0" y="73.4"/>
      <point x="490.59999999999997" y="110.2" type="curve" smooth="yes"/>
      <point x="520.0" y="276.79999999999995"/>
      <point x="589.4" y="408.0"/>
      <point x="622.0" y="567.4" type="curve" smooth="yes"/>
      <point x="638.1999999999999" y="646.6"/>
      <point x="638.0" y="707.5999999999999"/>
      <point x="560.0" y="707.5999999999999" type="curve"/>
      <point x="545.8" y="707.5999999999999"/>
      <point x="527.8" y="704.8000000000001"/>
      <point x="504.8" y="700.0" type="curve"/>
      <point x="478.99469411366" y="558.96538540816"/>
      <point x="382.55269538664004" y="411.58746817124"/>
      <point x="296.4" y="320.4" type="curve"/>
      <point x="341.79999999999995" y="341.6" type="line"/>
      <point x="287.8" y="349.00000000000006" type="line"/>
      <point x="321.4" y="315.4" type="line"/>
      <point x="292.80000000000007" y="414.6"/>
      <point x="294.41926451416003" y="508.95796901586"/>
      <point x="310.0" y="622.8" type="curve" smooth="yes"/>
      <point x="316.40000000000003" y="671.1999999999999"/>
      <point x="302.4" y="707.5999999999999"/>
      <point x="226.0" y="707.5999999999999" type="curve" smooth="yes"/>
      <point x="207.99999999999997" y="707.5999999999999"/>
      <point x="189.79999999999998" y="705.1999999999999"/>
      <point x="166.4" y="700.0" type="curve"/>
      <point x="169.6" y="667.4"/>
      <point x="167.4" y="629.0"/>
      <point x="159.6" y="589.6" type="curve" smooth="yes"/>
      <point x="125.60000000000001" y="415.8"/>
      <point x="49.599999999999994" y="284.0"/>
      <point x="26.2" y="126.80000000000001" type="curve"/>
      <point x="11.0" y="28.0"/>
      <point x="44.0" y="-6.800000000000001"/>
      <point x="85.99999999999999" y="-6.800000000000001" type="curve"/>
      <point x="101.8" y="-6.800000000000001"/>
      <point x="115.00000000000001" y="-4.199999999999999"/>
    </contour>
  </outline>
</glyph>
<glyph name="N" format="2">
  <advance width="600.0"/>
  <unicode hex="004E"/>
  <anchor x="410.74957200288" y="711.6" name="top"/>
  <anchor x="229.7499303373" y="-1.0" name="bottom"/>
  <outline>
    <contour>
      <point x="135.60000000000002" y="0.0" type="curve"/>
      <point x="131.8" y="37.20000000000001"/>
      <point x="133.20000000000002" y="77.0"/>
      <point x="142.79999999999998" y="130.20000000000002" type="curve"/>
      <point x="167.20000000000002" y="266.6"/>
      <point x="219.20000000000002" y="367.59999999999997"/>
      <point x="243.4" y="547.6" type="curve"/>
      <point x="217.0" y="521.5999999999999" type="line"/>
      <point x="273.0" y="521.5999999999999" type="line"/>
      <point x="247.0" y="547.6" type="line"/>
      <point x="245.20000000000002" y="270.40000000000003"/>
      <point x="297.0" y="102.79999999999998"/>
      <point x="349.40000000000003" y="31.8" type="curve"/>
      <point x="369.4" y="4.8"/>
      <point x="400.00000000000006" y="-8.0"/>
      <point x="440.99999999999994" y="-8.4" type="curve"/>
      <point x="453.6" y="-8.4"/>
      <point x="466.2" y="-5.2"/>
      <point x="477.6000000000001" y="0.0" type="curve"/>
      <point x="474.00000000000006" y="33.199999999999996"/>
      <point x="478.6" y="71.60000000000001"/>
      <point x="486.2000000000001" y="115.0" type="curve" smooth="yes"/>
      <point x="516.4000000000001" y="286.0"/>
      <point x="586.8000000000001" y="414.99999999999994"/>
      <point x="617.1999999999999" y="576.2" type="curve" smooth="yes"/>
      <point x="634.0" y="661.8"/>
      <point x="613.8" y="706.8"/>
      <point x="557.6" y="706.8" type="curve"/>
      <point x="546.6" y="706.8"/>
      <point x="531.6000000000001" y="703.6"/>
      <point x="520.2" y="700.0" type="curve"/>
      <point x="519.8" y="638.8"/>
      <point x="511.4" y="583.4"/>
      <point x="493.2" y="517.0" type="curve"/>
      <point x="453.40000000000003" y="372.6"/>
      <point x="409.6000000000001" y="253.8"/>
      <point x="404.8" y="114.79999999999998" type="curve"/>
      <point x="425.8" y="139.8" type="line"/>
      <point x="379.8" y="135.60000000000002" type="line"/>
      <point x="407.6000000000001" y="118.19999999999999" type="line"/>
      <point x="344.0" y="269.6"/>
      <point x="328.0" y="444.80000000000007"/>
      <point x="325.8" y="613.1999999999999" type="curve"/>
      <point x="325.79999999999995" y="688.8000000000001"/>
      <point x="297.59999999999997" y="706.8"/>
      <point x="236.80000000000004" y="706.8" type="curve"/>
      <point x="217.11162790696002" y="706.8"/>
      <point x="201.8" y="705.8"/>
      <point x="174.60000000000002" y="700.0" type="curve"/>
      <point x="175.4" y="666.1999999999999"/>
      <point x="172.6" y="629.2"/>
      <point x="165.0" y="587.2" type="curve" smooth="yes"/>
      <point x="133.2" y="414.59999999999997"/>
      <point x="53.8" y="282.6"/>
      <point x="30.999999999999996" y="125.0" type="curve"/>
      <point x="16.799999999999997" y="30.0"/>
      <point x="47.4" y="-6.199999999999999"/>
      <point x="91.8" y="-6.199999999999999" type="curve"/>
      <point x="109.6" y="-6.199999999999999"/>
      <point x="122.6" y="-4.2"/>
    </contour>
  </outline>
</glyph>
<glyph name="O" format="2">
  <advance width="600.0"/>
  <unicode hex="004F"/>
  <anchor x="410.8" y="711.6" name="top"/>
  <anchor x="232.54993033729997" y="-1.0" name="bottom"/>
  <anchor x="324.84995820238004" y="-0.5999999999999996" name="ogonek"/>
  <outline>
    <contour>
      <point x="404.0" y="720.0" type="curve"/>
      <point x="254.4" y="720.0"/>
      <point x="139.0" y="597.0"/>
      <point x="78.39999999999999" y="354.6" type="curve" smooth="yes"/>
      <point x="72.8" y="331.79999999999995" type="line" smooth="yes"/>
      <point x="17.599999999999998" y="111.8"/>
      <point x="84.39999999999999" y="-20.0"/>
      <point x="247.6" y="-20.0" type="curve"/>
      <point x="398.4" y="-20.0"/>
      <point x="501.40000000000003" y="91.0"/>
      <point x="559.4" y="321.79999999999995" type="curve" smooth="yes"/>
      <point x="565.0" y="344.2" type="line" smooth="yes"/>
      <point x="622.2" y="570.2"/>
      <point x="566.4" y="720.0"/>
    </contour>
    <contour>
      <point x="184.79999999999998" y="310.59999999999997" type="curve" smooth="yes"/>
      <point x="189.0" y="328.0" type="line" smooth="yes"/>
      <point x="233.79999999999998" y="514.8000000000001"/>
      <point x="301.6" y="609.0"/>
      <point x="397.2" y="609.0" type="curve" smooth="yes"/>
      <point x="421.0" y="609.0"/>
      <point x="438.40000000000003" y="606.0000000000001"/>
      <point x="455.59999999999997" y="598.4000000000001" type="curve" smooth="yes"/>
      <point x="491.2" y="552.5999999999999"/>
      <point x="492.0" y="472.79999999999995"/>
      <point x="464.20000000000005" y="356.4" type="curve" smooth="yes"/>
      <point x="460.0" y="338.99999999999994" type="line" smooth="yes"/>
      <point x="418.0" y="163.79999999999998"/>
      <point x="350.59999999999997" y="79.0"/>
      <point x="251.39999999999998" y="79.0" type="curve" smooth="yes"/>
      <point x="230.00000000000003" y="79.0"/>
      <point x="214.0" y="82.8"/>
      <point x="193.60000000000002" y="91.4" type="curve" smooth="yes"/>
      <point x="162.8" y="132.8"/>
      <point x="159.4" y="206.4"/>
    </contour>
  </outline>
</glyph>
<glyph name="P" format="2">
  <advance width="600.0"/>
  <unicode hex="0050"/>
  <outline>
    <contour>
      <point x="156.4" y="0.0" type="curve"/>
      <point x="151.39999999999998" y="27.8"/>
      <point x="151.60000000000002" y="62.2"/>
      <point x="155.8" y="95.19999999999999" type="curve"/>
      <point x="176.2" y="237.60000000000002"/>
      <point x="249.8" y="373.6"/>
      <point x="273.59999999999997" y="512.1999999999999" type="curve" smooth="yes"/>
      <point x="281.0" y="554.9999999999999"/>
      <point x="276.20000000000005" y="586.0"/>
      <point x="260.6" y="603.8000000000001" type="curve"/>
      <point x="278.2" y="637.2" type="line"/>
      <point x="186.6" y="622.4000000000001" type="line"/>
      <point x="158.60000000000002" y="419.6"/>
      <point x="62.39999999999999" y="270.8"/>
      <point x="42.199999999999996" y="101.8" type="curve"/>
      <point x="34.4" y="36.6"/>
      <point x="51.0" y="-7.199999999999999"/>
      <point x="113.4" y="-7.199999999999999" type="curve" smooth="yes"/>
      <point x="128.2" y="-7.199999999999999"/>
      <point x="143.60000000000002" y="-5.2"/>
    </contour>
    <contour>
      <point x="136.6" y="700.0" type="curve"/>
      <point x="130.6" y="687.8"/>
      <point x="126.20000000000002" y="676.0"/>
      <point x="121.8" y="658.5999999999999" type="curve" smooth="yes"/>
      <point x="111.19999999999999" y="615.9999999999999"/>
      <point x="117.19999999999999" y="593.8"/>
      <point x="141.79999999999998" y="593.8" type="curve"/>
      <point x="164.97641446594" y="593.8"/>
      <point x="242.13720961223996" y="614.2"/>
      <point x="363.2" y="614.2" type="curve" smooth="yes"/>
      <point x="424.2" y="614.2"/>
      <point x="456.8" y="606.6"/>
      <point x="484.59999999999997" y="586.4000000000001" type="curve" smooth="yes"/>
      <point x="492.99999999999994" y="556.6"/>
      <point x="488.4" y="519.4000000000001"/>
      <point x="481.79999999999995" y="493.4" type="curve" smooth="yes"/>
      <point x="477.40000000000003" y="476.8" type="line" smooth="yes"/>
      <point x="441.2" y="337.20000000000005"/>
      <point x="364.8" y="277.59999999999997"/>
      <point x="262.6000000000001" y="277.59999999999997" type="curve" smooth="yes"/>
      <point x="224.20000000000002" y="277.59999999999997"/>
      <point x="208.6" y="281.79999999999995"/>
      <point x="187.8" y="289.59999999999997" type="curve"/>
      <point x="161.60000000000002" y="209.4" type="line" smooth="yes"/>
      <point x="189.8" y="217.99999999999997" type="line"/>
      <point x="206.8" y="195.2"/>
      <point x="236.15056179774" y="176.99999999999997"/>
      <point x="275.0" y="176.99999999999997" type="curve" smooth="yes"/>
      <point x="415.0" y="176.99999999999997"/>
      <point x="538.0" y="261.8"/>
      <point x="588.0" y="464.4" type="curve" smooth="yes"/>
      <point x="591.8" y="479.2" type="line" smooth="yes"/>
      <point x="619.8" y="590.9999999999999"/>
      <point x="572.4" y="720.0"/>
      <point x="381.2" y="720.0" type="curve" smooth="yes"/>
      <point x="303.6" y="720.0"/>
      <point x="233.60000000000002" y="715.1999999999999"/>
    </contour>
  </outline>
</glyph>
<glyph name="Q" format="2">
  <advance width="600.0"/>
  <unicode hex="0051"/>
  <outline>
    <contour>
      <point x="369.0" y="91.0" type="curve"/>
      <point x="280.0" y="40.666666666666664" type="line"/>
      <point x="279.0" y="-11.666666666666664"/>
      <point x="282.3333333333333" y="-53.0"/>
      <point x="298.0" y="-98.66666666666667" type="curve" smooth="yes"/>
      <point x="317.33333333333337" y="-151.66666666666666"/>
      <point x="350.6666666666667" y="-176.0"/>
      <point x="401.0" y="-176.0" type="curve" smooth="yes"/>
      <point x="423.0" y="-176.0"/>
      <point x="442.3333333333333" y="-169.0"/>
      <point x="456.3333333333333" y="-155.0" type="curve" smooth="yes"/>
      <point x="470.6666666666667" y="-140.66666666666666"/>
      <point x="481.6666666666667" y="-119.66666666666666"/>
      <point x="488.6666666666667" y="-91.33333333333333" type="curve" smooth="yes"/>
      <point x="493.6666666666667" y="-73.0"/>
      <point x="496.0" y="-57.00000000000001"/>
      <point x="496.0" y="-40.0" type="curve"/>
      <point x="490.6666666666667" y="-40.0" type="line"/>
      <point x="478.6666666666667" y="-48.333333333333336"/>
      <point x="464.3333333333333" y="-52.66666666666667"/>
      <point x="445.6666666666667" y="-52.66666666666667" type="curve" smooth="yes"/>
      <point x="418.6666666666667" y="-52.66666666666667"/>
      <point x="401.6666666666667" y="-40.0"/>
      <point x="389.0" y="-6.0" type="curve"/>
      <point x="377.3333333333333" y="25.0"/>
      <point x="372.0" y="57.0"/>
    </contour>
    <component base="O"/>
  </outline>
</glyph>
<glyph name="R" format="2">
  <advance width="600.0"/>
  <unicode hex="0052"/>
  <anchor x="409.31981208208003" y="711.0" name="top"/>
  <anchor x="231.29997213492" y="-1.0" name="bottom"/>
  <outline>
    <contour>
      <point x="378.2" y="270.20000000000005" type="curve"/>
      <point x="292.40000000000003" y="227.0" type="line"/>
      <point x="295.6" y="161.19999999999996"/>
      <point x="303.0" y="110.60000000000002"/>
      <point x="325.6" y="56.800000000000004" type="curve"/>
      <point x="346.0" y="7.6"/>
      <point x="378.6" y="-16.0"/>
      <point x="427.20000000000005" y="-16.0" type="curve" smooth="yes"/>
      <point x="449.6" y="-16.0"/>
      <point x="467.00000000000006" y="-9.2"/>
      <point x="480.2" y="3.999999999999999" type="curve" smooth="yes"/>
      <point x="493.2" y="17.0"/>
      <point x="503.2" y="35.8"/>
      <point x="509.79999999999995" y="62.8" type="curve" smooth="yes"/>
      <point x="514.2" y="79.60000000000002"/>
      <point x="516.4" y="95.0"/>
      <point x="516.0" y="111.2" type="curve"/>
      <point x="510.79999999999995" y="111.2" type="line"/>
      <point x="498.4" y="102.2"/>
      <point x="483.59999999999997" y="97.2"/>
      <point x="467.00000000000006" y="97.2" type="curve"/>
      <point x="440.4" y="97.2"/>
      <point x="422.4" y="111.19999999999997"/>
      <point x="409.40000000000003" y="144.79999999999998" type="curve" smooth="yes"/>
      <point x="391.4" y="185.6"/>
      <point x="383.99999999999994" y="222.99999999999997"/>
    </contour>
    <contour>
      <point x="136.6" y="700.0" type="curve"/>
      <point x="130.6" y="687.2"/>
      <point x="125.6" y="675.3999999999999"/>
      <point x="121.8" y="658.6000000000001" type="curve" smooth="yes"/>
      <point x="111.2" y="616.6"/>
      <point x="117.2" y="593.8000000000001"/>
      <point x="141.8" y="593.8000000000001" type="curve" smooth="yes"/>
      <point x="164.01194453160002" y="593.8000000000001"/>
      <point x="257.59999999999997" y="613.8000000000001"/>
      <point x="355.79999999999995" y="613.8000000000001" type="curve" smooth="yes"/>
      <point x="413.59999999999997" y="613.8000000000001"/>
      <point x="449.0" y="605.4"/>
      <point x="480.20000000000005" y="587.6" type="curve" smooth="yes"/>
      <point x="486.40000000000003" y="563.4"/>
      <point x="485.2" y="535.4"/>
      <point x="476.40000000000003" y="499.0" type="curve" smooth="yes"/>
      <point x="472.4" y="483.2" type="line" smooth="yes"/>
      <point x="439.8" y="349.0"/>
      <point x="341.6" y="293.2"/>
      <point x="247.6" y="293.2" type="curve" smooth="yes"/>
      <point x="206.40000000000003" y="293.2"/>
      <point x="193.0" y="296.59999999999997"/>
      <point x="171.60000000000002" y="308.0" type="curve"/>
      <point x="143.8" y="210.2" type="line"/>
      <point x="188.20000000000002" y="222.20000000000002" type="line"/>
      <point x="205.8" y="204.2"/>
      <point x="234.60000000000002" y="196.6"/>
      <point x="263.20000000000005" y="196.6" type="curve" smooth="yes"/>
      <point x="406.59999999999997" y="196.6"/>
      <point x="540.6" y="298.0"/>
      <point x="586.0" y="479.8" type="curve" smooth="yes"/>
      <point x="590.6" y="498.2" type="line" smooth="yes"/>
      <point x="615.0" y="595.4000000000001"/>
      <point x="576.6" y="720.0"/>
      <point x="373.40000000000003" y="720.0" type="curve" smooth="yes"/>
      <point x="299.4" y="720.0"/>
      <point x="230.0" y="714.6"/>
    </contour>
    <contour>
      <point x="152.20000000000002" y="0.0" type="curve"/>
      <point x="147.2" y="27.8"/>
      <point x="147.39999999999998" y="62.2"/>
      <point x="151.6" y="95.19999999999999" type="curve"/>
      <point x="172.0" y="237.60000000000002"/>
      <point x="245.6" y="373.6"/>
      <point x="269.40000000000003" y="512.1999999999999" type="curve" smooth="yes"/>
      <point x="276.7685787035" y="554.7486296278199"/>
      <point x="272.0" y="585.4"/>
      <point x="256.40000000000003" y="603.2" type="curve"/>
      <point x="274.00000000000006" y="637.2" type="line"/>
      <point x="186.6" y="622.4000000000001" type="line"/>
      <point x="158.6" y="419.59999999999997"/>
      <point x="62.400000000000006" y="270.8"/>
      <point x="42.2" y="101.8" type="curve"/>
      <point x="34.400000000000006" y="36.6"/>
      <point x="46.8" y="-7.2"/>
      <point x="109.20000000000002" y="-7.2" type="curve" smooth="yes"/>
      <point x="124.0" y="-7.2"/>
      <point x="139.4" y="-5.199999999999999"/>
    </contour>
  </outline>
</glyph>
<glyph name="S" format="2">
  <advance width="600.0"/>
  <unicode hex="0053"/>
  <anchor x="436.59953020520004" y="711.0" name="top"/>
  <anchor x="232.5499303373" y="-1.0" name="bottom"/>
  <outline>
    <contour>
      <point x="459.20000000000005" y="720.0" type="curve" smooth="yes"/>
      <point x="322.6" y="720.0"/>
      <point x="163.20000000000002" y="606.0000000000001"/>
      <point x="130.2" y="473.40000000000003" type="curve" smooth="yes"/>
      <point x="126.19999999999999" y="457.40000000000003" type="line" smooth="yes"/>
      <point x="110.00000000000001" y="392.40000000000003"/>
      <point x="126.80000000000003" y="323.20000000000005"/>
      <point x="259.19999999999993" y="269.3999999999999" type="curve" smooth="yes"/>
      <point x="340.2" y="236.19999999999996" type="line" smooth="yes"/>
      <point x="391.8" y="214.4"/>
      <point x="416.4" y="187.8"/>
      <point x="409.0" y="148.8" type="curve" smooth="yes"/>
      <point x="407.4" y="141.2" type="line" smooth="yes"/>
      <point x="379.2" y="108.60000000000001"/>
      <point x="325.6" y="89.0"/>
      <point x="265.4" y="89.0" type="curve" smooth="yes"/>
      <point x="151.4" y="89.0"/>
      <point x="91.99999999999999" y="117.99999999999997"/>
      <point x="52.0" y="175.8" type="curve"/>
      <point x="46.8" y="175.8" type="line"/>
      <point x="37.599999999999994" y="163.20000000000002"/>
      <point x="30.0" y="147.4"/>
      <point x="25.799999999999997" y="127.19999999999999" type="curve"/>
      <point x="17.399999999999995" y="90.60000000000001"/>
      <point x="24.000000000000004" y="61.599999999999994"/>
      <point x="41.99999999999999" y="43.20000000000001" type="curve"/>
      <point x="72.39999999999999" y="12.000000000000002"/>
      <point x="133.20000000000002" y="-16.799999999999997"/>
      <point x="250.8" y="-16.799999999999997" type="curve" smooth="yes"/>
      <point x="385.59999999999997" y="-16.799999999999997"/>
      <point x="475.6" y="23.4"/>
      <point x="501.20000000000005" y="126.00000000000003" type="curve" smooth="yes"/>
      <point x="504.40000000000003" y="138.4" type="line" smooth="yes"/>
      <point x="518.0" y="192.2"/>
      <point x="503.2" y="265.8"/>
      <point x="393.0" y="309.8" type="curve" smooth="yes"/>
      <point x="310.6" y="342.6" type="line" smooth="yes"/>
      <point x="234.79999999999998" y="373.4"/>
      <point x="221.8" y="407.59999999999997"/>
      <point x="230.19999999999996" y="442.6" type="curve" smooth="yes"/>
      <point x="232.60000000000002" y="452.6" type="line" smooth="yes"/>
      <point x="252.60000000000002" y="535.8"/>
      <point x="367.6" y="616.2"/>
      <point x="449.59999999999997" y="616.2" type="curve"/>
      <point x="480.99999999999994" y="616.2"/>
      <point x="496.0" y="611.2"/>
      <point x="517.0" y="593.6000000000001" type="curve"/>
      <point x="527.2" y="635.8" type="line"/>
      <point x="506.4" y="592.8"/>
      <point x="471.8" y="550.1999999999999"/>
      <point x="457.59999999999997" y="498.19999999999993" type="curve"/>
      <point x="446.2" y="457.3999999999999"/>
      <point x="464.2" y="428.80000000000007"/>
      <point x="516.8" y="428.80000000000007" type="curve"/>
      <point x="531.2" y="428.80000000000007"/>
      <point x="545.4" y="431.6"/>
      <point x="558.4" y="437.20000000000005" type="curve"/>
      <point x="561.2" y="482.2"/>
      <point x="570.6" y="510.00000000000006"/>
      <point x="587.4" y="568.4" type="curve"/>
      <point x="598.4" y="608.0000000000001"/>
      <point x="593.4" y="650.4"/>
      <point x="563.5999999999999" y="680.2" type="curve" smooth="yes"/>
      <point x="539.0" y="704.8"/>
      <point x="509.60000000000014" y="720.0"/>
    </contour>
  </outline>
</glyph>
<glyph name="T" format="2">
  <advance width="600.0"/>
  <unicode hex="0054"/>
  <anchor x="407.7995302052" y="711.0" name="top"/>
  <anchor x="234.83328689153333" y="-0.9999999999999999" name="bottom"/>
  <outline>
    <contour>
      <point x="148.66666666666666" y="700.0" type="line"/>
      <point x="143.66666666666666" y="693.3333333333334"/>
      <point x="139.66666666666666" y="684.0"/>
      <point x="136.33333333333334" y="672.0" type="curve"/>
      <point x="120.12434052213334" y="607.67813747"/>
      <point x="170.66666666666666" y="587.3333333333334"/>
      <point x="234.0" y="587.3333333333334" type="curve" smooth="yes"/>
      <point x="631.0" y="587.3333333333334" type="line"/>
      <point x="639.0" y="598.6666666666666"/>
      <point x="646.3333333333334" y="613.6666666666666"/>
      <point x="650.3333333333334" y="630.6666666666666" type="curve" smooth="yes"/>
      <point x="660.0" y="670.3333333333334"/>
      <point x="646.3333333333334" y="700.0"/>
      <point x="604.6666666666666" y="700.0" type="curve" smooth="yes"/>
    </contour>
    <contour>
      <point x="311.6666666666667" y="0.0" type="curve"/>
      <point x="306.6666666666667" y="28.333333333333336"/>
      <point x="307.3333333333333" y="62.666666666666664"/>
      <point x="312.3333333333333" y="95.33333333333333" type="curve"/>
      <point x="334.0" y="231.33333333333334"/>
      <point x="405.0" y="361.33333333333337"/>
      <point x="426.6666666666667" y="493.6666666666667" type="curve"/>
      <point x="433.6666666666667" y="536.0"/>
      <point x="427.3333333333333" y="564.6666666666666"/>
      <point x="412.3333333333333" y="582.6666666666666" type="curve" smooth="yes"/>
      <point x="430.0" y="615.6666666666666" type="line"/>
      <point x="333.6666666666667" y="612.3333333333334" type="line"/>
      <point x="306.3333333333333" y="411.0"/>
      <point x="214.33333333333334" y="271.6666666666667"/>
      <point x="191.33333333333334" y="104.0" type="curve"/>
      <point x="182.33333333333334" y="38.0"/>
      <point x="200.0" y="-7.333333333333333"/>
      <point x="265.6666666666667" y="-7.333333333333333" type="curve" smooth="yes"/>
      <point x="281.3333333333333" y="-7.333333333333333"/>
      <point x="298.0" y="-5.333333333333333"/>
    </contour>
  </outline>
</glyph>
<glyph name="U" format="2">
  <advance width="600.0"/>
  <unicode hex="0055"/>
  <anchor x="410.74957200288" y="711.6" name="top"/>
  <anchor x="480.80000000000007" y="0.0" name="ogonek"/>
  <anchor x="229.5499303373" y="-1.0" name="bottom"/>
  <anchor x="407.59886144295996" y="701.4" name="ring"/>
  <outline>
    <contour>
      <point x="477.80000000000007" y="0.0" type="curve"/>
      <point x="471.40000000000003" y="32.0"/>
      <point x="470.0" y="67.8"/>
      <point x="476.6" y="105.6" type="curve"/>
      <point x="503.40000000000003" y="268.0"/>
      <point x="581.2" y="411.40000000000003"/>
      <point x="611.1999999999999" y="576.1999999999999" type="curve"/>
      <point x="629.0" y="676.2"/>
      <point x="610.2" y="706.8"/>
      <point x="551.0" y="706.8" type="curve"/>
      <point x="535.1999999999999" y="706.8"/>
      <point x="524.5999999999999" y="704.1999999999999"/>
      <point x="506.59999999999997" y="700.6" type="curve"/>
      <point x="510.3757514435" y="514.06887287992"/>
      <point x="405.0" y="324.20000000000005"/>
      <point x="382.0" y="149.39999999999998" type="curve" smooth="yes"/>
      <point x="363.8" y="19.4"/>
      <point x="391.6" y="-8.4"/>
      <point x="438.0" y="-8.4" type="curve" smooth="yes"/>
      <point x="451.99999999999994" y="-8.4"/>
      <point x="463.40000000000003" y="-6.3999999999999995"/>
    </contour>
    <contour>
      <point x="155.0" y="-14.0" type="curve" smooth="yes"/>
      <point x="229.6" y="-14.0"/>
      <point x="302.59999999999997" y="26.8"/>
      <point x="374.59999999999997" y="124.59999999999998" type="curve"/>
      <point x="403.4" y="121.79999999999998" type="line"/>
      <point x="434.6" y="269.0" type="line"/>
      <point x="339.40000000000003" y="133.0"/>
      <point x="269.59999999999997" y="106.0"/>
      <point x="193.4" y="106.0" type="curve" smooth="yes"/>
      <point x="158.40000000000003" y="106.0"/>
      <point x="136.60000000000002" y="123.80000000000001"/>
      <point x="132.40000000000003" y="158.6" type="curve" smooth="yes"/>
      <point x="197.4" y="318.40000000000003"/>
      <point x="248.2" y="415.99999999999994"/>
      <point x="279.0" y="552.8" type="curve" smooth="yes"/>
      <point x="301.0" y="650.8"/>
      <point x="283.8" y="706.4"/>
      <point x="222.0" y="706.4" type="curve" smooth="yes"/>
      <point x="205.37297297296" y="706.4"/>
      <point x="190.15596029488" y="704.6928180021999"/>
      <point x="170.40000000000003" y="699.4" type="curve"/>
      <point x="174.4968522087" y="666.8567973615401"/>
      <point x="174.14216796332002" y="630.8080273068"/>
      <point x="164.0" y="573.0" type="curve" smooth="yes"/>
      <point x="141.49634769464" y="445.50736138398"/>
      <point x="67.0" y="306.0"/>
      <point x="41.6" y="169.2" type="curve" smooth="yes"/>
      <point x="26.0" y="86.2"/>
      <point x="69.85660377356001" y="-14.0"/>
    </contour>
  </outline>
</glyph>
<glyph name="V" format="2">
  <advance width="600.0"/>
  <unicode hex="0056"/>
  <outline>
    <contour>
      <point x="201.2" y="706.4" type="curve"/>
      <point x="188.8" y="706.4"/>
      <point x="174.60000000000002" y="704.8000000000001"/>
      <point x="157.0" y="700.0" type="curve"/>
      <point x="159.4" y="668.6"/>
      <point x="155.79999999999998" y="640.8000000000001"/>
      <point x="143.6" y="579.4000000000001" type="curve" smooth="yes"/>
      <point x="98.19999999999999" y="357.0"/>
      <point x="95.79999999999998" y="151.0"/>
      <point x="160.20000000000002" y="41.400000000000006" type="curve"/>
      <point x="187.79999999999998" y="-4.200000000000001"/>
      <point x="212.20000000000002" y="-8.8"/>
      <point x="245.0" y="-8.8" type="curve"/>
      <point x="258.8" y="-8.8"/>
      <point x="274.0" y="-6.8"/>
      <point x="287.79999999999995" y="-2.4" type="curve"/>
      <point x="447.0" y="119.60000000000002"/>
      <point x="557.2" y="323.40000000000003"/>
      <point x="615.6" y="591.2" type="curve" smooth="yes"/>
      <point x="635.0" y="673.4000000000001"/>
      <point x="611.4000000000001" y="706.0"/>
      <point x="553.4" y="706.0" type="curve"/>
      <point x="542.6" y="706.0"/>
      <point x="526.0" y="704.4"/>
      <point x="506.20000000000005" y="700.0" type="curve"/>
      <point x="481.4" y="399.2"/>
      <point x="378.59999999999997" y="217.4"/>
      <point x="236.00000000000003" y="67.4" type="curve"/>
      <point x="271.8" y="81.6" type="line"/>
      <point x="224.00000000000003" y="93.0" type="line"/>
      <point x="251.0" y="68.4" type="line"/>
      <point x="210.00000000000003" y="206.00000000000003"/>
      <point x="217.4" y="373.8"/>
      <point x="263.4" y="582.8000000000001" type="curve"/>
      <point x="281.80000000000007" y="669.8"/>
      <point x="256.18666666664" y="706.4"/>
    </contour>
  </outline>
</glyph>
<glyph name="W" format="2">
  <advance width="600.0"/>
  <unicode hex="0057"/>
  <anchor x="410.13286353853334" y="711.0" name="top"/>
  <outline>
    <contour>
      <point x="128.0" y="700.0" type="curve"/>
      <point x="130.33333333333334" y="667.3333333333334"/>
      <point x="124.33333333333333" y="625.6666666666666"/>
      <point x="114.0" y="584.6666666666666" type="curve" smooth="yes"/>
      <point x="23.333333333333343" y="225.0"/>
      <point x="30.0" y="87.33333333333334"/>
      <point x="77.0" y="14.333333333333332" type="curve"/>
      <point x="88.33333333333333" y="-2.333333333333333"/>
      <point x="103.0" y="-7.666666666666667"/>
      <point x="119.66666666666667" y="-8.333333333333332" type="curve"/>
      <point x="129.33333333333331" y="-8.333333333333332"/>
      <point x="137.66666666666666" y="-7.333333333333333"/>
      <point x="148.33333333333331" y="-4.000000000000001" type="curve"/>
      <point x="201.0" y="57.66666666666667"/>
      <point x="249.0" y="128.33333333333334"/>
      <point x="297.6666666666667" y="249.33333333333337" type="curve"/>
      <point x="257.6666666666667" y="223.33333333333331" type="line"/>
      <point x="312.0" y="216.33333333333331" type="line"/>
      <point x="294.0" y="252.66666666666669" type="line"/>
      <point x="280.90178075076665" y="121.44685590209997"/>
      <point x="288.0" y="57.33333333333334"/>
      <point x="314.3333333333333" y="15.0" type="curve"/>
      <point x="325.3333333333333" y="-1.6666666666666679"/>
      <point x="337.6666666666667" y="-8.333333333333332"/>
      <point x="356.0" y="-8.333333333333332" type="curve"/>
      <point x="364.6666666666667" y="-8.333333333333332"/>
      <point x="372.3333333333333" y="-6.333333333333333"/>
      <point x="381.3333333333333" y="-4.000000000000001" type="curve"/>
      <point x="497.6666666666667" y="116.0"/>
      <point x="571.6666666666666" y="276.0"/>
      <point x="644.0" y="569.3333333333334" type="curve"/>
      <point x="670.7095230685334" y="673.1179704717"/>
      <point x="650.5965858041667" y="707.3333333333334"/>
      <point x="592.6666666666666" y="707.3333333333334" type="curve"/>
      <point x="573.9743589743333" y="707.3333333333334"/>
      <point x="561.1138044447666" y="705.2078882541666"/>
      <point x="541.6666666666666" y="700.0" type="curve"/>
      <point x="503.0" y="407.3333333333333"/>
      <point x="432.5413340572" y="221.42419191106666"/>
      <point x="352.3333333333333" y="100.33333333333333" type="curve"/>
      <point x="392.0" y="121.0" type="line"/>
      <point x="334.6666666666667" y="129.66666666666666" type="line"/>
      <point x="364.6666666666667" y="97.33333333333333" type="line"/>
      <point x="339.3333333333333" y="197.0"/>
      <point x="355.0" y="328.66666666666663"/>
      <point x="394.3333333333333" y="486.0" type="curve"/>
      <point x="405.6666666666667" y="532.3333333333334"/>
      <point x="383.3333333333333" y="550.0"/>
      <point x="348.3333333333333" y="550.0" type="curve"/>
      <point x="332.3333333333333" y="550.0" type="line"/>
      <point x="281.3333333333333" y="342.33333333333337"/>
      <point x="238.0" y="227.0"/>
      <point x="145.0" y="98.33333333333333" type="curve"/>
      <point x="190.66666666666666" y="120.66666666666666" type="line"/>
      <point x="129.66666666666666" y="129.33333333333331" type="line"/>
      <point x="158.66666666666666" y="97.33333333333333" type="line"/>
      <point x="140.66666666666666" y="200.0"/>
      <point x="161.66666666666666" y="337.33333333333337"/>
      <point x="232.0" y="586.0" type="curve"/>
      <point x="252.67527014883336" y="659.2079923578334"/>
      <point x="240.36559139786667" y="707.0"/>
      <point x="176.0" y="707.0" type="curve"/>
      <point x="158.96803652966665" y="707.0"/>
      <point x="146.40887049166668" y="704.2366597677"/>
    </contour>
  </outline>
</glyph>
<glyph name="X" format="2">
  <advance width="600.0"/>
  <unicode hex="0058"/>
  <outline>
    <contour>
      <point x="446.3333333333333" y="-8.666666666666666" type="curve" smooth="yes"/>
      <point x="466.0" y="-8.666666666666666"/>
      <point x="488.3333333333333" y="-5.333333333333333"/>
      <point x="505.6666666666667" y="0.0" type="curve"/>
      <point x="449.0" y="79.0"/>
      <point x="397.0" y="194.0"/>
      <point x="356.6666666666667" y="317.3333333333333" type="curve"/>
      <point x="340.0" y="375.6666666666667" type="line"/>
      <point x="307.9908704992" y="477.91696579126665"/>
      <point x="294.3976397928" y="558.2717824903333"/>
      <point x="284.66666666666663" y="631.0" type="curve" smooth="yes"/>
      <point x="279.61135631726665" y="674.5755218814"/>
      <point x="258.3333333333333" y="706.3333333333334"/>
      <point x="200.0" y="706.3333333333334" type="curve" smooth="yes"/>
      <point x="180.33333333333334" y="706.3333333333334"/>
      <point x="162.66666666666666" y="704.6666666666666"/>
      <point x="142.0" y="700.0" type="curve"/>
      <point x="160.0" y="583.3333333333334"/>
      <point x="194.33333333333331" y="430.6666666666667"/>
      <point x="241.33333333333334" y="293.0" type="curve"/>
      <point x="258.0" y="240.66666666666666" type="line"/>
      <point x="290.3333333333333" y="156.66666666666669"/>
      <point x="328.6666666666667" y="84.0"/>
      <point x="359.0" y="33.66666666666667" type="curve"/>
      <point x="373.33333333333337" y="7.0"/>
      <point x="397.02564102566663" y="-8.666666666666666"/>
    </contour>
    <contour>
      <point x="590.6666666666666" y="706.6666666666666" type="curve"/>
      <point x="571.3333333333334" y="706.6666666666666"/>
      <point x="558.3333333333334" y="705.0"/>
      <point x="539.3333333333334" y="700.0" type="curve"/>
      <point x="479.33333333333337" y="572.6666666666666"/>
      <point x="415.0" y="478.3333333333333"/>
      <point x="340.6666666666667" y="394.6666666666667" type="curve"/>
      <point x="297.0" y="396.3333333333333" type="line"/>
      <point x="342.0" y="285.0" type="line"/>
      <point x="478.32583100339997" y="400.16672739626665"/>
      <point x="573.4840841374" y="499.5326577576667"/>
      <point x="639.3333333333334" y="611.0" type="curve"/>
      <point x="672.8885688770666" y="669.8512651634667"/>
      <point x="654.0" y="706.6666666666666"/>
    </contour>
    <contour>
      <point x="51.33333333333333" y="-6.666666666666666" type="curve" smooth="yes"/>
      <point x="70.0" y="-6.666666666666666"/>
      <point x="90.66666666666666" y="-4.0"/>
      <point x="106.0" y="0.0" type="curve"/>
      <point x="147.33333333333331" y="83.33333333333334"/>
      <point x="201.33333333333334" y="161.66666666666669"/>
      <point x="259.0" y="222.0" type="curve"/>
      <point x="295.3333333333333" y="220.0" type="line"/>
      <point x="255.66666666666666" y="332.0" type="line"/>
      <point x="135.0" y="241.0"/>
      <point x="47.66666666666667" y="154.66666666666666"/>
      <point x="-4.333333333333332" y="75.33333333333333" type="curve"/>
      <point x="-34.333333333333336" y="28.999999999999993"/>
      <point x="-8.333333333333336" y="-6.666666666666666"/>
    </contour>
  </outline>
</glyph>
<glyph name="Y" format="2">
  <advance width="600.0"/>
  <unicode hex="0059"/>
  <anchor x="410.74957200288003" y="711.6" name="top"/>
  <outline>
    <contour>
      <point x="303.4" y="0.0" type="curve"/>
      <point x="296.40000000000003" y="33.0"/>
      <point x="299.4" y="69.4"/>
      <point x="308.0" y="108.0" type="curve"/>
      <point x="319.0" y="158.6"/>
      <point x="331.2" y="201.79999999999998"/>
      <point x="352.6" y="250.60000000000005" type="curve"/>
      <point x="246.8" y="252.20000000000002" type="line"/>
      <point x="216.8" y="192.6"/>
      <point x="196.2" y="139.2"/>
      <point x="187.0" y="78.2" type="curve"/>
      <point x="179.20000000000002" y="27.8"/>
      <point x="186.4" y="-6.800000000000001"/>
      <point x="259.0" y="-6.800000000000001" type="curve"/>
      <point x="276.20000000000005" y="-6.800000000000001"/>
      <point x="289.80000000000007" y="-4.199999999999999"/>
    </contour>
    <contour>
      <point x="154.80000000000004" y="700.0" type="curve"/>
      <point x="125.79999999999998" y="459.0"/>
      <point x="146.4" y="338.59999999999997"/>
      <point x="222.6" y="237.4" type="curve"/>
      <point x="244.4" y="208.0"/>
      <point x="267.4" y="205.20000000000002"/>
      <point x="319.19999999999993" y="203.20000000000002" type="curve"/>
      <point x="459.00000000000006" y="306.6"/>
      <point x="572.8000000000001" y="448.4"/>
      <point x="640.1999999999999" y="633.0000000000001" type="curve"/>
      <point x="658.8000000000001" y="686.1999999999999"/>
      <point x="636.80506329114" y="706.8"/>
      <point x="584.8000000000001" y="706.8" type="curve"/>
      <point x="563.1999999999999" y="706.8"/>
      <point x="549.6" y="704.2"/>
      <point x="533.6000000000001" y="699.4" type="curve"/>
      <point x="483.4" y="520.8000000000001"/>
      <point x="417.00000000000006" y="418.2"/>
      <point x="280.59999999999997" y="282.4" type="curve"/>
      <point x="328.3999999999999" y="299.8" type="line"/>
      <point x="268.0" y="309.8" type="line"/>
      <point x="302.6" y="281.00000000000006" type="line"/>
      <point x="244.4" y="411.2"/>
      <point x="239.79999999999998" y="485.6"/>
      <point x="257.6" y="645.2" type="curve"/>
      <point x="264.6" y="692.4"/>
      <point x="239.85714285711998" y="706.8"/>
      <point x="204.79999999999998" y="706.8" type="curve"/>
      <point x="186.8" y="706.8"/>
      <point x="170.79999999999998" y="704.8000000000001"/>
    </contour>
  </outline>
</glyph>
<glyph name="Z" format="2">
  <advance width="600.0"/>
  <unicode hex="005A"/>
  <anchor x="410.59953020520004" y="711.0" name="top"/>
  <outline>
    <contour>
      <point x="479.40000000000003" y="0.0" type="line"/>
      <point x="482.20000000000005" y="5.999999999999999"/>
      <point x="485.0" y="13.599999999999998"/>
      <point x="487.20000000000005" y="22.6" type="curve"/>
      <point x="498.8" y="71.0"/>
      <point x="491.20000000000005" y="109.2"/>
      <point x="438.2" y="109.2" type="curve" smooth="yes"/>
      <point x="283.2" y="109.2" type="line" smooth="yes"/>
      <point x="240.39999999999995" y="109.2"/>
      <point x="189.2" y="102.60000000000001"/>
      <point x="109.4" y="87.0" type="curve"/>
      <point x="139.6" y="68.79999999999998" type="line"/>
      <point x="122.0" y="126.19999999999999" type="line"/>
      <point x="107.80000000000001" y="84.60000000000001" type="line"/>
      <point x="218.2" y="150.00000000000003"/>
      <point x="313.0" y="224.79999999999998"/>
      <point x="388.8" y="295.40000000000003" type="curve" smooth="yes"/>
      <point x="519.5999999999999" y="407.40000000000003"/>
      <point x="612.4" y="520.1999999999999"/>
      <point x="626.6" y="581.8" type="curve"/>
      <point x="628.8" y="591.2" type="line" smooth="yes"/>
      <point x="641.6" y="645.0"/>
      <point x="639.9999999999999" y="700.0"/>
      <point x="577.8" y="700.0" type="curve"/>
      <point x="218.0" y="700.0" type="line"/>
      <point x="196.4" y="662.4"/>
      <point x="193.8" y="596.8"/>
      <point x="239.79999999999998" y="596.8" type="curve" smooth="yes"/>
      <point x="418.59999999999997" y="596.8" type="line" smooth="yes"/>
      <point x="473.00000000000006" y="596.8"/>
      <point x="503.6" y="599.9999999999999"/>
      <point x="542.6" y="613.1999999999999" type="curve"/>
      <point x="491.79999999999995" y="625.1999999999999" type="line"/>
      <point x="529.1999999999999" y="584.0" type="line"/>
      <point x="529.6" y="630.0" type="line"/>
      <point x="496.4" y="559.6"/>
      <point x="450.6" y="492.20000000000005"/>
      <point x="393.4" y="427.8" type="curve" smooth="yes"/>
      <point x="295.0" y="316.0"/>
      <point x="163.39999999999998" y="213.0"/>
      <point x="19.799999999999997" y="123.0" type="curve"/>
      <point x="16.6" y="110.0" type="line" smooth="yes"/>
      <point x="-4.200000000000001" y="37.0"/>
      <point x="18.199999999999996" y="0.0"/>
      <point x="61.8" y="0.0" type="curve" smooth="yes"/>
    </contour>
    <contour>
      <point x="233.0" y="520.0" type="curve"/>
      <point x="258.0" y="619.2"/>
      <point x="303.00000000000006" y="674.8"/>
      <point x="315.0" y="718.0" type="curve" smooth="yes"/>
      <point x="321.59999999999997" y="742.5999999999999"/>
      <point x="296.59999999999997" y="756.0"/>
      <point x="228.0" y="756.0" type="curve"/>
      <point x="188.0" y="703.4"/>
      <point x="156.8" y="647.1999999999999"/>
      <point x="139.8" y="579.5999999999999" type="curve" smooth="yes"/>
      <point x="131.20000000000002" y="544.8"/>
      <point x="144.60000000000002" y="516.4"/>
      <point x="193.6" y="516.4" type="curve"/>
      <point x="208.60000000000002" y="516.4"/>
      <point x="222.2" y="517.6"/>
    </contour>
  </outline>
</glyph>
<glyph name="bracketleft" format="2">
  <advance width="600.0"/>
  <unicode hex="005B"/>
  <outline>
    <contour>
      <point x="348.0" y="-161.0" type="line"/>
      <point x="354.79999999999995" y="-149.20000000000002"/>
      <point x="360.40000000000003" y="-137.20000000000002"/>
      <point x="364.8" y="-120.19999999999999" type="curve" smooth="yes"/>
      <point x="377.40000000000003" y="-71.8"/>
      <point x="367.6" y="-55.400000000000006"/>
      <point x="335.2" y="-55.400000000000006" type="curve" smooth="yes"/>
      <point x="186.0" y="-55.400000000000006" type="line"/>
      <point x="205.39999999999998" y="182.00000000000003"/>
      <point x="329.8" y="404.0"/>
      <point x="359.6" y="654.4" type="curve"/>
      <point x="551.0" y="654.4" type="line"/>
      <point x="558.2" y="664.8000000000001"/>
      <point x="564.2" y="678.5999999999999"/>
      <point x="568.6" y="694.0" type="curve" smooth="yes"/>
      <point x="578.8000000000001" y="735.6"/>
      <point x="570.6" y="760.0"/>
      <point x="542.2" y="760.0" type="curve" smooth="yes"/>
      <point x="312.2" y="760.0" type="line" smooth="yes"/>
      <point x="286.6" y="760.0"/>
      <point x="269.20000000000005" y="758.4"/>
      <point x="253.2" y="754.2" type="curve"/>
      <point x="253.20000000000002" y="719.4"/>
      <point x="251.0" y="686.4"/>
      <point x="244.79999999999998" y="644.0" type="curve" smooth="yes"/>
      <point x="208.8" y="397.20000000000005"/>
      <point x="93.39999999999999" y="187.2"/>
      <point x="67.0" y="-66.60000000000001" type="curve" smooth="yes"/>
      <point x="62.599999999999994" y="-110.20000000000002"/>
      <point x="85.2" y="-161.0"/>
      <point x="120.4" y="-161.0" type="curve" smooth="yes"/>
    </contour>
  </outline>
</glyph>
<glyph name="backslash" format="2">
  <advance width="600.0"/>
  <unicode hex="005C"/>
  <outline>
    <contour>
      <point x="177.71896016043334" y="750.6666666666666" type="curve"/>
      <point x="171.53060516193335" y="439.3333333333333"/>
      <point x="209.5114711305" y="164.66666666666666"/>
      <point x="291.82817829090004" y="-74.0" type="curve" smooth="yes"/>
      <point x="306.991826239" y="-117.33333333333334"/>
      <point x="333.90716931369997" y="-136.33333333333334"/>
      <point x="376.24050264703334" y="-136.33333333333334" type="curve" smooth="yes"/>
      <point x="402.24050264703334" y="-136.33333333333334"/>
      <point x="422.40749440646664" y="-131.66666666666666"/>
      <point x="447.0749970259" y="-119.66666666666667" type="curve"/>
      <point x="431.57652960613336" y="-97.66666666666667"/>
      <point x="421.2448681784667" y="-73.66666666666667"/>
      <point x="410.9972134906" y="-40.0" type="curve"/>
      <point x="338.1799025864667" y="190.0"/>
      <point x="303.9474808168333" y="442.3333333333333"/>
      <point x="307.54983207706664" y="715.3333333333334" type="curve"/>
      <point x="308.13546428070003" y="748.3333333333334"/>
      <point x="281.0532223302333" y="764.0"/>
      <point x="236.05322233023333" y="764.0" type="curve" smooth="yes"/>
      <point x="215.71988899689998" y="764.0"/>
      <point x="199.71961034596666" y="760.0"/>
    </contour>
  </outline>
</glyph>
<glyph name="asciicircum" format="2">
  <advance width="600.0"/>
  <unicode hex="005E"/>
  <outline>
    <contour>
      <point x="392.0" y="760.0" type="curve"/>
      <point x="304.0" y="699.6666666666666"/>
      <point x="199.0" y="596.0"/>
      <point x="123.66666666666667" y="480.0" type="curve" smooth="yes"/>
      <point x="100.66666666666667" y="444.0"/>
      <point x="89.0" y="421.0"/>
      <point x="85.66666666666667" y="405.0" type="curve" smooth="yes"/>
      <point x="80.33333333333334" y="377.6666666666667"/>
      <point x="97.33333333333333" y="362.0"/>
      <point x="145.0" y="362.0" type="curve" smooth="yes"/>
      <point x="186.33333333333331" y="362.0" type="line"/>
      <point x="242.33333333333334" y="477.6666666666667"/>
      <point x="300.0" y="552.6666666666666"/>
      <point x="413.0" y="658.0" type="curve"/>
      <point x="360.0" y="640.3333333333334" type="line"/>
      <point x="426.6666666666667" y="640.3333333333334" type="line" smooth="yes"/>
      <point x="382.0" y="657.6666666666666" type="line"/>
      <point x="432.0" y="576.6666666666666"/>
      <point x="450.6666666666667" y="515.0"/>
      <point x="457.3333333333333" y="414.3333333333333" type="curve" smooth="yes"/>
      <point x="462.0" y="377.0"/>
      <point x="479.3333333333333" y="364.0"/>
      <point x="525.0" y="364.0" type="curve" smooth="yes"/>
      <point x="547.0" y="364.0"/>
      <point x="560.6666666666666" y="367.6666666666667"/>
      <point x="575.6666666666666" y="375.3333333333333" type="curve"/>
      <point x="568.6666666666666" y="528.3333333333334"/>
      <point x="532.3333333333334" y="634.6666666666666"/>
      <point x="478.6666666666667" y="723.3333333333334" type="curve" smooth="yes"/>
      <point x="461.3333333333333" y="752.6666666666666"/>
      <point x="445.6666666666667" y="760.0"/>
      <point x="424.6666666666667" y="760.0" type="curve" smooth="yes"/>
      <point x="414.0" y="760.0"/>
      <point x="402.6666666666667" y="760.0"/>
    </contour>
  </outline>
</glyph>
<glyph name="underscore" format="2">
  <advance width="600.0"/>
  <unicode hex="005F"/>
  <outline>
    <contour>
      <point x="-32.800000000000004" y="-70.0" type="line"/>
      <point x="-35.2" y="-77.6"/>
      <point x="-37.199999999999996" y="-83.8"/>
      <point x="-39.2" y="-90.99999999999999" type="curve" smooth="yes"/>
      <point x="-56.6" y="-156.0"/>
      <point x="-44.2" y="-180.0"/>
      <point x="11.8" y="-180.0" type="curve" smooth="yes"/>
      <point x="431.2" y="-180.0" type="line"/>
      <point x="438.20000000000005" y="-168.00000000000003"/>
      <point x="443.40000000000003" y="-155.0"/>
      <point x="448.00000000000006" y="-138.2" type="curve" smooth="yes"/>
      <point x="460.80000000000007" y="-93.39999999999999"/>
      <point x="445.6" y="-70.0"/>
      <point x="404.40000000000003" y="-70.0" type="curve" smooth="yes"/>
    </contour>
  </outline>
</glyph>
<glyph name="grave" format="2">
  <advance width="600.0"/>
  <unicode hex="0060"/>
  <outline>
    <contour>
      <point x="392.0" y="750.6" type="curve"/>
      <point x="359.6" y="753.6"/>
      <point x="337.4" y="752.6"/>
      <point x="315.8" y="749.6" type="curve" smooth="yes"/>
      <point x="285.4" y="746.0"/>
      <point x="267.0" y="733.8000000000001"/>
      <point x="261.8" y="705.0" type="curve" smooth="yes"/>
      <point x="251.0" y="635.1999999999999"/>
      <point x="281.0" y="519.0"/>
      <point x="319.40000000000003" y="468.6" type="curve" smooth="yes"/>
      <point x="335.00000000000006" y="449.20000000000005"/>
      <point x="348.8" y="440.59999999999997"/>
      <point x="376.0" y="440.59999999999997" type="curve" smooth="yes"/>
      <point x="398.6" y="440.59999999999997"/>
      <point x="414.79999999999995" y="447.2"/>
      <point x="432.79999999999995" y="460.0" type="curve"/>
      <point x="399.2" y="548.8000000000001"/>
      <point x="382.59999999999997" y="637.6"/>
    </contour>
  </outline>
</glyph>
<glyph name="a" format="2">
  <advance width="600.0"/>
  <unicode hex="0061"/>
  <anchor x="357.3333333333333" y="546.3333333333334" name="top"/>
  <anchor x="241.66666666666666" y="-1.0" name="bottom"/>
  <anchor x="474.3333333333333" y="7.666666666666667" name="ogonek"/>
  <outline>
    <contour>
      <point x="532.6666666666666" y="353.3333333333333" type="curve" smooth="yes"/>
      <point x="555.3333333333334" y="449.3333333333333"/>
      <point x="475.3333333333333" y="545.3333333333334"/>
      <point x="343.0" y="545.3333333333334" type="curve" smooth="yes"/>
      <point x="256.6666666666667" y="545.3333333333334"/>
      <point x="204.33333333333334" y="535.6666666666666"/>
      <point x="176.66666666666666" y="514.0" type="curve"/>
      <point x="156.0" y="498.3333333333333"/>
      <point x="143.66666666666666" y="473.3333333333333"/>
      <point x="137.33333333333334" y="449.6666666666667" type="curve" smooth="yes"/>
      <point x="133.33333333333334" y="434.3333333333333"/>
      <point x="131.66666666666666" y="423.3333333333333"/>
      <point x="131.66666666666666" y="410.6666666666667" type="curve"/>
      <point x="137.66666666666669" y="410.6666666666667" type="line"/>
      <point x="191.0" y="426.3333333333333"/>
      <point x="235.0" y="436.0"/>
      <point x="314.0" y="436.0" type="curve" smooth="yes"/>
      <point x="365.0" y="436.0"/>
      <point x="402.6666666666667" y="429.3333333333333"/>
      <point x="431.3333333333333" y="413.6666666666667" type="curve" smooth="yes"/>
      <point x="410.33333333333337" y="355.6666666666667"/>
      <point x="393.3333333333333" y="314.0"/>
      <point x="374.3333333333333" y="249.66666666666666" type="curve" smooth="yes"/>
      <point x="364.0" y="212.66666666666666"/>
      <point x="350.0" y="171.33333333333334"/>
      <point x="340.6666666666667" y="135.33333333333334" type="curve" smooth="yes"/>
      <point x="324.3333333333333" y="68.66666666666666"/>
      <point x="365.33333333333337" y="-7.333333333333334"/>
      <point x="434.0" y="-7.333333333333334" type="curve"/>
      <point x="465.0" y="-7.333333333333334"/>
      <point x="483.6666666666667" y="1.0"/>
      <point x="498.0" y="15.333333333333332" type="curve" smooth="yes"/>
      <point x="512.3333333333334" y="29.666666666666664"/>
      <point x="524.6666666666666" y="55.33333333333333"/>
      <point x="532.3333333333334" y="87.33333333333333" type="curve"/>
      <point x="536.0" y="101.66666666666666"/>
      <point x="537.3333333333334" y="112.33333333333333"/>
      <point x="537.3333333333334" y="120.0" type="curve"/>
      <point x="531.3333333333334" y="120.0" type="line"/>
      <point x="516.0" y="113.0"/>
      <point x="499.3333333333333" y="107.33333333333333"/>
      <point x="481.6666666666667" y="107.33333333333333" type="curve"/>
      <point x="474.3333333333333" y="107.33333333333333"/>
      <point x="466.0" y="108.33333333333333"/>
      <point x="459.3333333333333" y="110.66666666666666" type="curve" smooth="yes"/>
      <point x="461.3333333333333" y="127.66666666666666"/>
      <point x="464.3333333333333" y="141.66666666666666"/>
      <point x="468.6666666666667" y="157.33333333333331" type="curve" smooth="yes"/>
      <point x="489.3333333333333" y="232.0"/>
      <point x="515.3333333333334" y="275.3333333333333"/>
    </contour>
    <contour>
      <point x="145.66666666666669" y="150.33333333333334" type="curve" smooth="yes"/>
      <point x="147.0" y="156.0" type="line" smooth="yes"/>
      <point x="153.0" y="180.66666666666666"/>
      <point x="160.66666666666666" y="198.33333333333334"/>
      <point x="174.0" y="213.0" type="curve" smooth="yes"/>
      <point x="197.66666666666666" y="224.33333333333334"/>
      <point x="226.33333333333334" y="231.33333333333334"/>
      <point x="263.3333333333333" y="231.33333333333334" type="curve" smooth="yes"/>
      <point x="316.0" y="231.33333333333334"/>
      <point x="368.3333333333333" y="225.0"/>
      <point x="419.6666666666667" y="212.0" type="curve"/>
      <point x="429.6666666666667" y="244.66666666666666"/>
      <point x="426.6666666666667" y="257.6666666666667"/>
      <point x="417.6666666666667" y="268.0" type="curve" smooth="yes"/>
      <point x="402.3333333333333" y="286.6666666666667"/>
      <point x="332.0" y="304.0"/>
      <point x="237.33333333333334" y="304.0" type="curve" smooth="yes"/>
      <point x="141.0" y="304.0"/>
      <point x="52.66666666666667" y="236.0"/>
      <point x="33.0" y="161.0" type="curve" smooth="yes"/>
      <point x="28.000000000000004" y="142.33333333333334" type="line" smooth="yes"/>
      <point x="4.666666666666668" y="54.0"/>
      <point x="52.66666666666667" y="-10.0"/>
      <point x="144.0" y="-10.0" type="curve" smooth="yes"/>
      <point x="226.33333333333334" y="-10.0"/>
      <point x="296.6666666666667" y="37.0"/>
      <point x="335.3333333333333" y="88.0" type="curve"/>
      <point x="355.3333333333333" y="85.66666666666667" type="line"/>
      <point x="362.33333333333337" y="171.66666666666666" type="line"/>
      <point x="309.0" y="114.66666666666666"/>
      <point x="253.33333333333334" y="93.0"/>
      <point x="203.66666666666666" y="93.0" type="curve" smooth="yes"/>
      <point x="149.0" y="93.0"/>
      <point x="137.0" y="112.33333333333333"/>
    </contour>
  </outline>
</glyph>
<glyph name="b" format="2">
  <advance width="600.0"/>
  <unicode hex="0062"/>
  <outline>
    <contour>
      <point x="129.39999999999998" y="-0.7999999999999998" type="curve" smooth="yes"/>
      <point x="131.79999999999998" y="44.0"/>
      <point x="137.6" y="86.6"/>
      <point x="146.0" y="128.0" type="curve"/>
      <point x="180.0" y="294.0"/>
      <point x="254.0" y="435.0"/>
      <point x="291.4" y="614.6" type="curve"/>
      <point x="315.4" y="721.1999999999999"/>
      <point x="279.4" y="757.1999999999999"/>
      <point x="228.0" y="757.1999999999999" type="curve"/>
      <point x="211.4" y="757.1999999999999"/>
      <point x="197.79999999999998" y="755.6"/>
      <point x="183.0" y="750.0" type="curve"/>
      <point x="193.79999999999998" y="724.5999999999999"/>
      <point x="191.2" y="691.4"/>
      <point x="184.6" y="654.1999999999999" type="curve"/>
      <point x="149.4" y="455.0"/>
      <point x="69.8" y="312.0"/>
      <point x="31.4" y="110.99999999999999" type="curve"/>
      <point x="18.4" y="47.800000000000004"/>
      <point x="48.6" y="-3.8"/>
      <point x="107.19999999999999" y="-3.8" type="curve"/>
      <point x="114.6" y="-3.8"/>
      <point x="122.60000000000002" y="-2.8"/>
    </contour>
    <contour>
      <point x="119.99999999999999" y="73.4" type="line"/>
      <point x="143.4" y="78.20000000000002" type="line"/>
      <point x="165.60000000000002" y="38.4"/>
      <point x="211.60000000000002" y="-11.2"/>
      <point x="275.8" y="-11.2" type="curve" smooth="yes"/>
      <point x="399.40000000000003" y="-11.2"/>
      <point x="493.0" y="76.39999999999999"/>
      <point x="550.0" y="299.6" type="curve" smooth="yes"/>
      <point x="556.1999999999999" y="323.8" type="line" smooth="yes"/>
      <point x="587.0" y="443.59999999999997"/>
      <point x="540.2" y="545.6"/>
      <point x="449.79999999999995" y="545.6" type="curve" smooth="yes"/>
      <point x="378.00000000000006" y="545.6"/>
      <point x="297.40000000000003" y="486.40000000000003"/>
      <point x="237.4" y="404.8" type="curve"/>
      <point x="214.4" y="414.8" type="line"/>
      <point x="156.00000000000003" y="219.80000000000004" type="line"/>
      <point x="252.0" y="372.79999999999995"/>
      <point x="334.19999999999993" y="432.8"/>
      <point x="412.6" y="432.8" type="curve" smooth="yes"/>
      <point x="431.0" y="432.8"/>
      <point x="445.79999999999995" y="426.20000000000005"/>
      <point x="454.4" y="411.2" type="curve" smooth="yes"/>
      <point x="455.4" y="378.59999999999997"/>
      <point x="449.8" y="347.0"/>
      <point x="438.59999999999997" y="308.0" type="curve" smooth="yes"/>
      <point x="434.59999999999997" y="292.6" type="line" smooth="yes"/>
      <point x="398.6" y="163.0"/>
      <point x="345.4" y="91.4"/>
      <point x="256.99999999999994" y="91.4" type="curve" smooth="yes"/>
      <point x="200.00000000000003" y="91.4"/>
      <point x="167.20000000000002" y="112.19999999999999"/>
      <point x="142.2" y="161.0" type="curve"/>
    </contour>
  </outline>
</glyph>
<glyph name="c" format="2">
  <advance width="600.0"/>
  <unicode hex="0063"/>
  <outline>
    <contour>
      <point x="376.2" y="545.0" type="curve" smooth="yes"/>
      <point x="231.00000000000003" y="545.0"/>
      <point x="110.79999999999998" y="450.0"/>
      <point x="69.8" y="280.4" type="curve" smooth="yes"/>
      <point x="66.99999999999999" y="269.0" type="line" smooth="yes"/>
      <point x="32.6" y="127.39999999999999"/>
      <point x="121.79999999999998" y="-11.2"/>
      <point x="295.6" y="-11.2" type="curve" smooth="yes"/>
      <point x="371.6" y="-11.2"/>
      <point x="429.99999999999994" y="10.4"/>
      <point x="466.4" y="44.400000000000006" type="curve" smooth="yes"/>
      <point x="494.59999999999997" y="69.0"/>
      <point x="509.2" y="95.6"/>
      <point x="518.6" y="135.8" type="curve" smooth="yes"/>
      <point x="523.0" y="154.39999999999998"/>
      <point x="523.6" y="175.6"/>
      <point x="521.0" y="194.0" type="curve"/>
      <point x="515.0" y="194.0" type="line"/>
      <point x="449.2" y="123.99999999999999"/>
      <point x="380.79999999999995" y="87.8"/>
      <point x="289.4" y="87.8" type="curve" smooth="yes"/>
      <point x="252.20000000000002" y="87.8"/>
      <point x="222.0" y="93.4"/>
      <point x="193.60000000000002" y="106.4" type="curve" smooth="yes"/>
      <point x="167.79999999999998" y="144.6"/>
      <point x="166.2" y="195.79999999999998"/>
      <point x="178.4" y="249.0" type="curve" smooth="yes"/>
      <point x="181.2" y="261.6" type="line" smooth="yes"/>
      <point x="204.4" y="366.8"/>
      <point x="278.2" y="437.0"/>
      <point x="371.8" y="437.0" type="curve" smooth="yes"/>
      <point x="403.8" y="437.0"/>
      <point x="424.99999999999994" y="429.6000000000001"/>
      <point x="440.99999999999994" y="415.20000000000005" type="curve"/>
      <point x="439.4" y="377.80000000000007"/>
      <point x="427.0" y="343.8"/>
      <point x="401.0" y="300.79999999999995" type="curve"/>
      <point x="400.99999999999994" y="294.80000000000007" type="line"/>
      <point x="408.4" y="291.8"/>
      <point x="417.8" y="289.8"/>
      <point x="426.6" y="289.8" type="curve" smooth="yes"/>
      <point x="477.00000000000006" y="289.8"/>
      <point x="522.2" y="329.40000000000003"/>
      <point x="536.4" y="383.4" type="curve" smooth="yes"/>
      <point x="539.8" y="396.4" type="line" smooth="yes"/>
      <point x="547.0" y="425.19999999999993"/>
      <point x="533.6" y="465.0"/>
      <point x="503.2" y="495.79999999999995" type="curve" smooth="yes"/>
      <point x="474.3999999999999" y="524.2"/>
      <point x="431.00000000000006" y="545.0"/>
    </contour>
  </outline>
</glyph>
<glyph name="d" format="2">
  <advance width="600.0"/>
  <unicode hex="0064"/>
  <anchor x="698.0" y="711.0" name="caronslovak"/>
  <outline>
    <contour>
      <point x="321.3333333333333" y="546.6666666666666" type="curve" smooth="yes"/>
      <point x="194.33333333333334" y="546.6666666666666"/>
      <point x="101.0" y="460.3333333333333"/>
      <point x="44.00000000000001" y="238.66666666666666" type="curve" smooth="yes"/>
      <point x="38.0" y="215.33333333333334" type="line" smooth="yes"/>
      <point x="9.333333333333336" y="100.33333333333333"/>
      <point x="56.66666666666667" y="-11.333333333333334"/>
      <point x="145.66666666666669" y="-11.333333333333334" type="curve" smooth="yes"/>
      <point x="220.0" y="-11.333333333333334"/>
      <point x="302.0" y="53.66666666666667"/>
      <point x="357.6666666666667" y="139.0" type="curve"/>
      <point x="383.6666666666667" y="132.0" type="line"/>
      <point x="424.6666666666667" y="304.3333333333333" type="line"/>
      <point x="336.6666666666667" y="162.0"/>
      <point x="262.6666666666667" y="108.66666666666667"/>
      <point x="187.0" y="108.66666666666667" type="curve" smooth="yes"/>
      <point x="169.0" y="108.66666666666667"/>
      <point x="156.0" y="116.33333333333333"/>
      <point x="145.66666666666666" y="128.66666666666669" type="curve" smooth="yes"/>
      <point x="144.0" y="157.66666666666666"/>
      <point x="150.66666666666666" y="191.33333333333331"/>
      <point x="161.66666666666666" y="230.33333333333334" type="curve" smooth="yes"/>
      <point x="166.33333333333334" y="246.66666666666666" type="line" smooth="yes"/>
      <point x="202.0" y="374.0"/>
      <point x="253.66666666666666" y="438.0"/>
      <point x="337.0" y="438.0" type="curve" smooth="yes"/>
      <point x="390.3333333333333" y="438.0"/>
      <point x="431.3333333333333" y="418.3333333333333"/>
      <point x="453.0" y="379.6666666666667" type="curve"/>
      <point x="480.6666666666667" y="465.6666666666667" type="line"/>
      <point x="453.3333333333333" y="462.0" type="line"/>
      <point x="430.0" y="501.0"/>
      <point x="383.6666666666667" y="546.6666666666666"/>
    </contour>
    <contour>
      <point x="557.3333333333334" y="757.3333333333334" type="curve" smooth="yes"/>
      <point x="540.0" y="757.3333333333334"/>
      <point x="525.6666666666666" y="755.6666666666666"/>
      <point x="510.3333333333333" y="750.0" type="curve"/>
      <point x="521.3333333333334" y="724.3333333333334"/>
      <point x="519.6666666666666" y="691.0"/>
      <point x="512.0" y="653.6666666666666" type="curve" smooth="yes"/>
      <point x="470.3333333333333" y="460.0"/>
      <point x="401.6666666666667" y="318.66666666666663"/>
      <point x="359.3333333333333" y="118.33333333333333" type="curve" smooth="yes"/>
      <point x="344.6666666666667" y="52.0"/>
      <point x="377.6666666666667" y="-5.666666666666667"/>
      <point x="440.3333333333333" y="-5.666666666666667" type="curve" smooth="yes"/>
      <point x="456.3333333333333" y="-5.666666666666667"/>
      <point x="465.3333333333333" y="-3.6666666666666665"/>
      <point x="480.3333333333333" y="0.0" type="curve"/>
      <point x="470.6666666666667" y="32.0"/>
      <point x="470.0" y="62.0"/>
      <point x="476.0" y="95.66666666666666" type="curve" smooth="yes"/>
      <point x="508.3333333333333" y="273.6666666666667"/>
      <point x="583.6666666666666" y="424.66666666666663"/>
      <point x="623.6666666666666" y="612.0" type="curve"/>
      <point x="649.3333333333334" y="721.6666666666666"/>
      <point x="611.6666666666666" y="757.3333333333334"/>
    </contour>
  </outline>
</glyph>
<glyph name="e" format="2">
  <advance width="600.0"/>
  <unicode hex="0065"/>
  <anchor x="390.525589445" y="546.3333333333334" name="top"/>
  <anchor x="436.6666666666667" y="30.333333333333336" name="ogonek"/>
  <anchor x="232.4999535582" y="-1.0" name="bottom"/>
  <outline>
    <contour>
      <point x="374.0" y="546.6666666666666" type="curve" smooth="yes"/>
      <point x="235.66666666666669" y="546.6666666666666"/>
      <point x="110.33333333333334" y="460.6666666666667"/>
      <point x="66.0" y="285.3333333333333" type="curve" smooth="yes"/>
      <point x="63.66666666666667" y="276.3333333333333" type="line" smooth="yes"/>
      <point x="23.333333333333336" y="119.0"/>
      <point x="111.0" y="-11.333333333333334"/>
      <point x="283.6666666666667" y="-11.333333333333334" type="curve" smooth="yes"/>
      <point x="347.0" y="-11.333333333333334"/>
      <point x="413.3333333333333" y="2.333333333333334"/>
      <point x="445.6666666666667" y="34.66666666666667" type="curve"/>
      <point x="462.6666666666667" y="51.666666666666664"/>
      <point x="476.3333333333333" y="72.0"/>
      <point x="486.0" y="110.33333333333333" type="curve" smooth="yes"/>
      <point x="489.0" y="122.0"/>
      <point x="490.3333333333333" y="132.66666666666666"/>
      <point x="490.3333333333333" y="142.66666666666666" type="curve"/>
      <point x="484.3333333333333" y="142.66666666666666" type="line"/>
      <point x="421.6666666666667" y="107.0"/>
      <point x="361.3333333333333" y="93.66666666666666"/>
      <point x="295.3333333333333" y="93.66666666666666" type="curve" smooth="yes"/>
      <point x="238.66666666666666" y="93.66666666666666"/>
      <point x="199.0" y="103.0"/>
      <point x="174.0" y="119.33333333333333" type="curve" smooth="yes"/>
      <point x="159.33333333333334" y="149.0"/>
      <point x="160.33333333333331" y="196.0"/>
      <point x="170.33333333333334" y="235.66666666666666" type="curve" smooth="yes"/>
      <point x="172.66666666666666" y="244.0" type="line" smooth="yes"/>
      <point x="209.66666666666666" y="387.3333333333333"/>
      <point x="286.3333333333333" y="451.0"/>
      <point x="376.0" y="451.0" type="curve" smooth="yes"/>
      <point x="404.3333333333333" y="451.0"/>
      <point x="422.3333333333333" y="448.0"/>
      <point x="440.3333333333333" y="440.0" type="curve" smooth="yes"/>
      <point x="453.0" y="415.3333333333333"/>
      <point x="453.3333333333333" y="381.3333333333333"/>
      <point x="444.6666666666667" y="345.6666666666667" type="curve" smooth="yes"/>
      <point x="441.6666666666667" y="334.0"/>
      <point x="436.3333333333333" y="319.6666666666667"/>
      <point x="428.0" y="307.6666666666667" type="curve"/>
      <point x="177.33333333333331" y="307.6666666666667" type="line"/>
      <point x="155.0" y="250.0" type="line"/>
      <point x="182.66666666666669" y="259.3333333333333" type="line"/>
      <point x="196.0" y="243.66666666666666"/>
      <point x="221.66666666666666" y="233.0"/>
      <point x="256.0" y="233.0" type="curve"/>
      <point x="488.3333333333333" y="233.0" type="line"/>
      <point x="510.0" y="233.0"/>
      <point x="539.3333333333334" y="253.33333333333334"/>
      <point x="555.0" y="327.3333333333333" type="curve" smooth="yes"/>
      <point x="556.0" y="332.0" type="line" smooth="yes"/>
      <point x="582.3333333333334" y="455.3333333333333"/>
      <point x="520.0" y="546.6666666666666"/>
    </contour>
  </outline>
</glyph>
<glyph name="f" format="2">
  <advance width="600.0"/>
  <unicode hex="0066"/>
  <outline>
    <contour>
      <point x="115.33333333333334" y="515.3333333333334" type="line"/>
      <point x="108.33333333333334" y="507.6666666666667"/>
      <point x="104.66666666666667" y="500.3333333333333"/>
      <point x="101.0" y="487.6666666666667" type="curve"/>
      <point x="89.0" y="444.3333333333333"/>
      <point x="116.0" y="406.0"/>
      <point x="180.33333333333331" y="406.0" type="curve"/>
      <point x="572.6666666666666" y="406.0" type="line"/>
      <point x="578.3333333333334" y="418.0"/>
      <point x="584.0" y="433.33333333333337"/>
      <point x="587.6666666666666" y="448.6666666666667" type="curve"/>
      <point x="597.3333333333334" y="490.3333333333333"/>
      <point x="581.6666666666666" y="515.3333333333334"/>
      <point x="534.3333333333334" y="515.3333333333334" type="curve"/>
    </contour>
    <contour>
      <point x="261.3333333333333" y="77.66666666666666" type="curve"/>
      <point x="305.72897760506663" y="190.82244401273334"/>
      <point x="313.03029431753333" y="308.1627347158667"/>
      <point x="364.6666666666667" y="513.3333333333334" type="curve" smooth="yes"/>
      <point x="380.6666666666667" y="577.3333333333334"/>
      <point x="392.6666666666667" y="611.3333333333334"/>
      <point x="412.6666666666667" y="640.3333333333334" type="curve" smooth="yes"/>
      <point x="440.0" y="652.0"/>
      <point x="468.6666666666667" y="656.6666666666666"/>
      <point x="507.3333333333333" y="656.6666666666666" type="curve" smooth="yes"/>
      <point x="563.0" y="656.6666666666666"/>
      <point x="613.6666666666666" y="643.6666666666666"/>
      <point x="644.3333333333334" y="625.6666666666666" type="curve"/>
      <point x="650.3333333333334" y="625.6666666666666" type="line"/>
      <point x="659.3333333333334" y="638.6666666666666"/>
      <point x="666.0" y="657.3333333333334"/>
      <point x="670.3333333333334" y="673.6666666666666" type="curve"/>
      <point x="677.0" y="705.0"/>
      <point x="676.0" y="721.3333333333334"/>
      <point x="663.0" y="734.3333333333334" type="curve" smooth="yes"/>
      <point x="647.6666666666666" y="749.6666666666666"/>
      <point x="603.3333333333334" y="766.6666666666666"/>
      <point x="526.3333333333334" y="766.6666666666666" type="curve" smooth="yes"/>
      <point x="396.3333333333333" y="766.6666666666666"/>
      <point x="303.6666666666667" y="702.0"/>
      <point x="259.0" y="542.3333333333334" type="curve" smooth="yes"/>
      <point x="210.33333333333334" y="366.0"/>
      <point x="204.0" y="265.6666666666667"/>
      <point x="152.66666666666666" y="119.66666666666666" type="curve"/>
      <point x="132.33333333333331" y="62.0"/>
      <point x="113.33333333333334" y="31.0"/>
      <point x="89.0" y="0.0" type="curve"/>
      <point x="104.0" y="-9.666666666666666"/>
      <point x="119.66666666666666" y="-13.666666666666666"/>
      <point x="145.0" y="-13.666666666666666" type="curve"/>
      <point x="198.72335600906666" y="-13.666666666666666"/>
      <point x="234.70789296226667" y="10.603065738933333"/>
    </contour>
  </outline>
</glyph>
<glyph name="g" format="2">
  <advance width="600.0"/>
  <unicode hex="0067"/>
  <outline>
    <contour>
      <point x="313.79999999999995" y="545.6" type="curve" smooth="yes"/>
      <point x="202.39999999999998" y="545.6"/>
      <point x="102.4" y="465.4"/>
      <point x="53.0" y="267.00000000000006" type="curve" smooth="yes"/>
      <point x="47.2" y="243.8" type="line" smooth="yes"/>
      <point x="21.0" y="139.20000000000002"/>
      <point x="60.19999999999998" y="24.8"/>
      <point x="168.0" y="24.8" type="curve" smooth="yes"/>
      <point x="241.0" y="24.8"/>
      <point x="327.0" y="85.19999999999999"/>
      <point x="381.6" y="170.0" type="curve"/>
      <point x="416.0" y="170.0" type="line"/>
      <point x="450.6" y="329.99999999999994" type="line"/>
      <point x="358.79999999999995" y="178.0"/>
      <point x="273.0" y="140.60000000000002"/>
      <point x="193.20000000000005" y="140.60000000000002" type="curve" smooth="yes"/>
      <point x="173.2" y="140.60000000000002"/>
      <point x="159.00000000000003" y="146.2"/>
      <point x="147.79999999999998" y="155.99999999999997" type="curve" smooth="yes"/>
      <point x="146.8" y="185.6"/>
      <point x="151.4" y="214.4"/>
      <point x="161.8" y="252.6" type="curve" smooth="yes"/>
      <point x="166.4" y="269.40000000000003" type="line" smooth="yes"/>
      <point x="197.6" y="384.2"/>
      <point x="253.79999999999998" y="443.00000000000006"/>
      <point x="326.8" y="443.00000000000006" type="curve" smooth="yes"/>
      <point x="389.00000000000006" y="443.00000000000006"/>
      <point x="433.80000000000007" y="422.6"/>
      <point x="458.2" y="376.40000000000003" type="curve"/>
      <point x="482.8" y="456.79999999999995" type="line"/>
      <point x="454.6" y="456.79999999999995" type="line"/>
      <point x="429.2" y="506.0"/>
      <point x="382.99999999999994" y="545.6"/>
    </contour>
    <contour>
      <point x="492.40000000000003" y="537.9999999999999" type="curve"/>
      <point x="474.99999999999994" y="497.8"/>
      <point x="461.0" y="458.2"/>
      <point x="449.40000000000003" y="422.40000000000003" type="curve" smooth="yes"/>
      <point x="404.2" y="277.00000000000006"/>
      <point x="392.00000000000006" y="160.2"/>
      <point x="352.4" y="46.4" type="curve" smooth="yes"/>
      <point x="334.4" y="-5.200000000000001"/>
      <point x="315.79999999999995" y="-41.6"/>
      <point x="290.2" y="-75.8" type="curve" smooth="yes"/>
      <point x="255.0" y="-95.4"/>
      <point x="216.39999999999998" y="-103.8"/>
      <point x="172.2" y="-103.8" type="curve" smooth="yes"/>
      <point x="102.80000000000001" y="-103.8"/>
      <point x="60.599999999999994" y="-92.60000000000001"/>
      <point x="24.200000000000003" y="-69.6" type="curve"/>
      <point x="18.200000000000003" y="-69.6" type="line"/>
      <point x="12.600000000000005" y="-78.8"/>
      <point x="8.600000000000007" y="-88.8"/>
      <point x="5.400000000000006" y="-100.80000000000001" type="curve" smooth="yes"/>
      <point x="-1.7999999999999945" y="-129.8"/>
      <point x="5.773159728050814e-15" y="-153.8"/>
      <point x="11.600000000000005" y="-169.8" type="curve" smooth="yes"/>
      <point x="26.599999999999998" y="-190.4"/>
      <point x="62.8" y="-210.0"/>
      <point x="135.40000000000003" y="-210.0" type="curve" smooth="yes"/>
      <point x="289.19999999999993" y="-210.0"/>
      <point x="398.2" y="-137.6"/>
      <point x="449.6" y="-1.4000000000000021" type="curve" smooth="yes"/>
      <point x="500.59999999999997" y="133.39999999999998"/>
      <point x="510.0" y="285.19999999999993"/>
      <point x="574.8000000000001" y="450.0" type="curve" smooth="yes"/>
      <point x="594.8000000000001" y="501.79999999999995"/>
      <point x="563.4" y="541.5999999999999"/>
      <point x="518.0" y="541.5999999999999" type="curve" smooth="yes"/>
      <point x="508.20000000000005" y="541.5999999999999"/>
      <point x="499.6" y="539.9999999999999"/>
    </contour>
  </outline>
</glyph>
<glyph name="h" format="2">
  <advance width="600.0"/>
  <unicode hex="0068"/>
  <anchor x="250.88418713053332" y="730.0" name="top"/>
  <outline>
    <contour>
      <point x="110.66666666666666" y="-3.666666666666667" type="curve" smooth="yes"/>
      <point x="118.33333333333333" y="-3.666666666666667"/>
      <point x="126.66666666666666" y="-2.666666666666667"/>
      <point x="133.66666666666666" y="-0.6666666666666667" type="curve"/>
      <point x="144.0" y="223.33333333333334"/>
      <point x="252.33333333333331" y="393.0"/>
      <point x="299.3333333333333" y="612.0" type="curve"/>
      <point x="325.0" y="721.6666666666666"/>
      <point x="285.3333333333333" y="757.3333333333334"/>
      <point x="229.0" y="757.3333333333334" type="curve" smooth="yes"/>
      <point x="211.66666666666669" y="757.3333333333334"/>
      <point x="197.33333333333334" y="755.6666666666666"/>
      <point x="182.0" y="750.0" type="curve"/>
      <point x="193.0" y="724.3333333333334"/>
      <point x="190.66666666666666" y="691.0"/>
      <point x="183.66666666666666" y="653.6666666666666" type="curve" smooth="yes"/>
      <point x="148.0" y="456.6666666666667"/>
      <point x="66.66666666666666" y="318.66666666666663"/>
      <point x="27.0" y="118.33333333333333" type="curve" smooth="yes"/>
      <point x="13.0" y="52.0"/>
      <point x="46.0" y="-3.666666666666667"/>
    </contour>
    <contour>
      <point x="151.66666666666666" y="175.66666666666669" type="line"/>
      <point x="223.66666666666666" y="310.33333333333337"/>
      <point x="331.3333333333333" y="421.0"/>
      <point x="403.6666666666667" y="421.0" type="curve" smooth="yes"/>
      <point x="431.3333333333333" y="421.0"/>
      <point x="447.3333333333333" y="408.6666666666667"/>
      <point x="455.0" y="382.6666666666667" type="curve" smooth="yes"/>
      <point x="407.6666666666667" y="287.6666666666667"/>
      <point x="370.0" y="203.66666666666669"/>
      <point x="354.0" y="132.33333333333331" type="curve" smooth="yes"/>
      <point x="334.6666666666667" y="48.0"/>
      <point x="357.0" y="-7.666666666666666"/>
      <point x="424.0" y="-7.666666666666666" type="curve"/>
      <point x="445.0" y="-7.666666666666666"/>
      <point x="466.0" y="-5.0"/>
      <point x="479.0" y="0.0" type="curve"/>
      <point x="470.0" y="44.333333333333336"/>
      <point x="473.3333333333333" y="90.33333333333334"/>
      <point x="486.3333333333333" y="145.0" type="curve" smooth="yes"/>
      <point x="504.3333333333333" y="227.0"/>
      <point x="540.6666666666666" y="298.3333333333333"/>
      <point x="559.0" y="377.0" type="curve" smooth="yes"/>
      <point x="575.3333333333334" y="447.0"/>
      <point x="539.0" y="545.0"/>
      <point x="458.3333333333333" y="545.0" type="curve" smooth="yes"/>
      <point x="381.0" y="545.0"/>
      <point x="285.6666666666667" y="450.0"/>
      <point x="229.0" y="359.6666666666667" type="curve"/>
      <point x="193.0" y="369.0" type="line"/>
    </contour>
  </outline>
</glyph>
